<svg width="197" height="38" viewBox="0 0 197 38" fill="none" xmlns="http://www.w3.org/2000/svg">
<path d="M158.942 0L157.025 2.72233C155.87 1.85192 154.808 1.29635 153.84 1.0556C152.877 0.814847 151.942 0.694472 151.034 0.694472H150.664V16.7044C150.664 17.6859 150.673 18.5331 150.692 19.2415C150.71 19.9452 150.747 20.6003 150.803 21.2045C150.863 21.811 150.932 22.4615 151.007 23.1583H144.321C144.418 22.4615 144.49 21.811 144.534 21.2045C144.583 20.6003 144.617 19.9452 144.636 19.2415C144.659 18.5331 144.673 17.6859 144.673 16.7044V0.694472H144.293C143.386 0.694472 142.453 0.814847 141.497 1.0556C140.545 1.29635 139.481 1.85192 138.302 2.72233L136.395 0H158.942Z" fill="#B0E867"/>
<path d="M177.75 17.63H178.333C177.733 19.5375 176.768 21.0352 175.435 22.1209C174.106 23.1997 172.305 23.7414 170.027 23.7414C168.809 23.7414 167.64 23.5747 166.518 23.2413C165.4 22.9149 164.411 22.4334 163.555 21.7968C162.696 21.1626 162.013 20.3662 161.508 19.4079C161.008 18.4518 160.758 17.3476 160.758 16.0929C160.758 14.8405 161.008 13.7386 161.508 12.7872C162.013 11.8312 162.696 11.0279 163.555 10.3797C164.411 9.73155 165.374 9.24542 166.444 8.9167C167.518 8.5903 168.624 8.42594 169.768 8.42594C171.421 8.42594 172.833 8.71068 173.999 9.27783C175.171 9.84729 176.076 10.6089 176.713 11.565C177.347 12.5233 177.676 13.5789 177.694 14.7317H166.407C166.388 14.8683 166.379 15.0188 166.379 15.1855C166.379 15.3475 166.379 15.5049 166.379 15.6577C166.379 16.917 166.576 18.0606 166.971 19.0838C167.365 20.1023 167.962 20.9125 168.759 21.5098C169.56 22.1093 170.56 22.408 171.759 22.408C172.955 22.408 174.104 22.0515 175.203 21.3339C176.301 20.6185 177.15 19.3847 177.75 17.63ZM169.675 9.14819C168.786 9.14819 168.059 9.54173 167.499 10.3242C166.944 11.102 166.587 12.3312 166.434 14.0095H172.286C172.286 12.4863 172.085 11.2941 171.685 10.4353C171.289 9.57876 170.62 9.14819 169.675 9.14819Z" fill="#B0E867"/>
<path d="M180.528 16.0929C180.528 14.3776 180.921 12.9516 181.713 11.815C182.509 10.6737 183.57 9.82414 184.898 9.26857C186.232 8.70836 187.699 8.42594 189.306 8.42594C190.676 8.42594 191.843 8.62965 192.806 9.03708C193.769 9.43987 194.54 9.96998 195.121 10.6297C195.7 11.2849 196.096 12.0071 196.306 12.7965C195.899 13.3775 195.401 13.7201 194.815 13.8243C194.227 13.9308 193.69 13.8104 193.204 13.4632C192.723 13.1183 192.426 12.5881 192.315 11.8705C192.234 11.389 192.107 10.9446 191.936 10.5371C191.762 10.1297 191.491 9.79637 191.121 9.5371C190.755 9.27783 190.237 9.14819 189.565 9.14819C188.329 9.14819 187.449 9.6621 186.926 10.6853C186.408 11.7038 186.148 13.2942 186.148 15.454C186.148 16.6948 186.301 17.8291 186.611 18.8523C186.919 19.8708 187.426 20.6857 188.13 21.2968C188.834 21.9033 189.792 22.2043 191.01 22.2043C192.207 22.2043 193.292 21.8154 194.269 21.0375C195.244 20.2551 195.95 19.0421 196.39 17.3985H197.001C196.653 18.5791 196.163 19.6463 195.528 20.6023C194.892 21.5538 194.052 22.3154 193.01 22.8895C191.966 23.4566 190.632 23.7414 189.01 23.7414C187.51 23.7414 186.116 23.4589 184.834 22.8987C183.549 22.3385 182.509 21.489 181.713 20.3523C180.921 19.2111 180.528 17.792 180.528 16.0929Z" fill="#B0E867"/>
<path d="M0 23.1583C0.0925962 22.5426 0.171303 21.9314 0.24075 21.3249C0.307882 20.7138 0.356496 20.0054 0.388904 19.1952C0.418998 18.3804 0.435202 17.3873 0.435202 16.2136V6.94472C0.435202 5.75486 0.418998 4.75713 0.388904 3.95386C0.356496 3.1529 0.307882 2.44223 0.24075 1.82415C0.171303 1.20838 0.0925962 0.599561 0 0H9.98187C11.5236 0 13.0051 0.0787071 14.4265 0.231491C15.8455 0.386589 17.1072 0.675952 18.2137 1.1019C19.3248 1.52784 20.1976 2.15749 20.8342 2.99086C21.4754 3.81959 21.7972 4.89603 21.7972 6.22247C21.7972 7.55585 21.4754 8.63923 20.8342 9.47259C20.1976 10.3013 19.3248 10.9264 18.2137 11.3523C17.1072 11.7736 15.8455 12.0607 14.4265 12.2134C13.0051 12.3685 11.5236 12.4449 9.98187 12.4449H8.53737V16.2136C8.53737 17.3873 8.54895 18.3804 8.57441 19.1952C8.6045 20.0054 8.65312 20.7138 8.72256 21.3249C8.7897 21.9314 8.87303 22.5426 8.97257 23.1583H0ZM8.53737 11.5838H9.87076C10.6231 11.5838 11.2829 11.431 11.8523 11.1208C12.4195 10.8129 12.8662 10.2666 13.195 9.48185C13.5214 8.69942 13.6857 7.61141 13.6857 6.22247C13.6857 4.815 13.5214 3.727 13.195 2.95382C12.8662 2.18296 12.4195 1.64358 11.8523 1.33339C11.2829 1.0255 10.6231 0.870405 9.87076 0.870405H8.53737V11.5838Z" fill="#0097B2"/>
<path d="M36.4097 23.1583C36.5625 22.1536 36.669 21.311 36.7245 20.6304C36.7847 19.9452 36.8194 19.2855 36.8264 18.6489C36.838 18.0077 36.8449 17.2923 36.8449 16.5006V11.6393C36.8449 11.0791 36.7523 10.6393 36.5671 10.3245C36.3865 10.005 36.0763 9.84298 35.6319 9.84298C35.0694 9.84298 34.4883 10.0999 33.8911 10.6115C33.2915 11.1254 32.6827 11.9982 32.0669 13.232V16.2136C32.0669 17.0053 32.0716 17.7414 32.0855 18.4266C32.097 19.1119 32.1341 19.8225 32.1966 20.5564C32.2637 21.2856 32.3656 22.1536 32.5021 23.1583H24.687C24.8398 22.1536 24.9463 21.2856 25.0018 20.5564C25.062 19.8225 25.0967 19.1119 25.1037 18.4266C25.1153 17.7414 25.1222 17.0053 25.1222 16.2136V6.94472C25.1222 6.13682 25.1153 5.39605 25.1037 4.72241C25.0967 4.04414 25.062 3.33346 25.0018 2.59269C24.9463 1.85192 24.8398 0.988465 24.687 0H32.5021C32.3656 0.988465 32.2637 1.85192 32.1966 2.59269C32.1341 3.33346 32.097 4.04414 32.0855 4.72241C32.0716 5.39605 32.0669 6.13682 32.0669 6.94472V11.8708C32.7637 10.7296 33.5948 9.8152 34.5578 9.12999C35.5254 8.44478 36.8287 8.10217 38.4653 8.10217C39.5256 8.10217 40.4515 8.29199 41.2432 8.66701C42.0395 9.04434 42.6623 9.68325 43.1137 10.5837C43.5628 11.4796 43.7896 12.7088 43.7896 14.2691V16.5006C43.7896 17.2923 43.7942 18.0077 43.8081 18.6489C43.8197 19.2855 43.8567 19.9452 43.9193 20.6304C43.9864 21.311 44.0882 22.1536 44.2248 23.1583H36.4097Z" fill="#0097B2"/>
<path d="M65.9058 23.1576H58.9611C58.7249 22.4052 58.5999 21.6436 58.5814 20.8705C58.1555 21.7964 57.4633 22.5071 56.5073 23.0002C55.5558 23.4933 54.278 23.7409 52.6738 23.7409C52.0812 23.7409 51.4608 23.6761 50.8126 23.5465C50.1644 23.4215 49.5579 23.2132 48.9977 22.9168C48.4421 22.6159 47.9884 22.2039 47.6366 21.6853C47.2893 21.1621 47.118 20.5047 47.118 19.713C47.118 18.8611 47.3148 18.1435 47.7106 17.5555C48.1042 16.9699 48.6204 16.486 49.257 16.1018C49.8982 15.7129 50.5834 15.405 51.3126 15.1758C52.0464 14.942 52.7594 14.7545 53.4516 14.611C54.1484 14.4628 54.741 14.3401 55.2294 14.2406C56.1114 14.0693 56.7897 13.8517 57.2666 13.5924C57.7411 13.3331 58.0675 12.9905 58.2481 12.5646C58.4333 12.1386 58.5259 11.6178 58.5259 10.9997C58.5259 10.2844 58.38 9.76818 58.0907 9.45335C57.799 9.1339 57.3545 8.97185 56.7573 8.97185C56.1022 8.97185 55.5859 9.1339 55.2109 9.45335C54.8336 9.76818 54.5164 10.171 54.2572 10.6571C53.9979 11.1386 53.7039 11.6108 53.3775 12.0738C52.9701 12.6549 52.484 13.0507 51.9238 13.2591C51.3682 13.4697 50.8033 13.5137 50.2292 13.3887C49.6598 13.266 49.1574 12.979 48.7199 12.5275C48.287 12.0715 47.993 11.4581 47.8403 10.6849C48.5556 10.2404 49.4237 9.82142 50.4422 9.42557C51.4654 9.03204 52.602 8.71258 53.8498 8.47183C55.0952 8.22645 56.4054 8.10145 57.7758 8.10145C59.2389 8.10145 60.5468 8.24729 61.7019 8.53665C62.8617 8.82833 63.7784 9.33992 64.452 10.0737C65.1303 10.8099 65.4706 11.8308 65.4706 13.1387V16.4999C65.4706 17.2916 65.4729 18.0069 65.4798 18.6482C65.4914 19.2848 65.5308 19.9445 65.6002 20.6297C65.6673 21.3103 65.7692 22.1529 65.9058 23.1576ZM58.5259 18.037V13.722C58.3337 13.9142 58.093 14.0924 57.8036 14.2591C57.5119 14.4211 57.1647 14.6086 56.7573 14.8239C56.0026 15.2082 55.4632 15.7036 55.1368 16.3147C54.8081 16.9212 54.6461 17.6481 54.6461 18.5C54.6461 19.5625 54.7942 20.3149 55.0905 20.7594C55.3915 21.1992 55.785 21.4168 56.2665 21.4168C56.9818 21.4168 57.5374 21.0742 57.9332 20.389C58.3268 19.7038 58.5259 18.9213 58.5259 18.037Z" fill="#0097B2"/>
<path d="M85.8563 8.68503C86.0091 9.62951 85.9442 10.4258 85.6618 11.074C85.384 11.7222 84.9349 12.1666 84.3192 12.4074C83.7011 12.6481 82.9395 12.6343 82.032 12.3611C81.414 12.1713 80.8306 12.0833 80.282 12.1018C79.731 12.1203 79.1361 12.3588 78.4949 12.8148C77.8583 13.2662 77.0874 14.0602 76.18 15.1945V16.5001C76.18 17.2918 76.1846 18.0072 76.1985 18.6484C76.2101 19.285 76.2471 19.9447 76.3096 20.6299C76.3767 21.3105 76.4786 22.1531 76.6152 23.1578H68.8C68.9528 22.1531 69.0593 21.3105 69.1149 20.6299C69.1751 19.9447 69.2098 19.285 69.2167 18.6484C69.2283 18.0072 69.2353 17.2918 69.2353 16.5001V15.3427C69.2353 14.5348 69.2283 13.8149 69.2167 13.1852C69.2098 12.5555 69.1751 11.8958 69.1149 11.2036C69.0593 10.5069 68.9528 9.66655 68.8 8.68503H76.6152C76.4416 9.86563 76.3304 10.8309 76.2818 11.5833C76.2378 12.3379 76.2031 13.1181 76.18 13.926C76.7402 13.1181 77.3143 12.3426 77.9023 11.6018C78.4949 10.8564 79.1616 10.2129 79.9023 9.67581C80.6431 9.13412 81.495 8.7591 82.458 8.55539C83.4256 8.35168 84.5599 8.39566 85.8563 8.68503Z" fill="#0097B2"/>
<path d="M108.804 23.1576C108.957 22.1529 109.063 21.3103 109.119 20.6297C109.179 19.9445 109.214 19.2848 109.221 18.6482C109.232 18.0069 109.239 17.2916 109.239 16.4999V11.6386C109.239 11.2312 109.188 10.8793 109.091 10.583C108.998 10.2821 108.769 10.1293 108.406 10.1293C108.096 10.1293 107.721 10.3191 107.276 10.6941C106.832 11.0715 106.26 11.8099 105.563 12.9072C105.582 13.1248 105.593 13.3424 105.6 13.5646C105.612 13.7869 105.619 14.023 105.619 14.2684V16.4999C105.619 17.2916 105.623 18.0069 105.637 18.6482C105.649 19.2848 105.686 19.9445 105.748 20.6297C105.815 21.3103 105.917 22.1529 106.054 23.1576H98.2387C98.3914 22.1529 98.4979 21.3103 98.5535 20.6297C98.6137 19.9445 98.6484 19.2848 98.6553 18.6482C98.6669 18.0069 98.6739 17.2916 98.6739 16.4999V11.6386C98.6739 11.2312 98.6229 10.8793 98.5257 10.583C98.4331 10.2821 98.2039 10.1293 97.8405 10.1293C97.5303 10.1293 97.1483 10.34 96.6923 10.759C96.2409 11.1733 95.7062 11.9882 95.0904 13.2035C95.0649 13.5322 95.0534 13.8679 95.0534 14.2128C95.0534 14.56 95.0534 14.935 95.0534 15.3425V16.4999C95.0534 17.2916 95.058 18.0069 95.0719 18.6482C95.0834 19.2848 95.1205 19.9445 95.183 20.6297C95.2501 21.3103 95.352 22.1529 95.4886 23.1576H87.6734C87.8262 22.1529 87.9327 21.3103 87.9883 20.6297C88.0484 19.9445 88.0832 19.2848 88.0901 18.6482C88.1017 18.0069 88.1086 17.2916 88.1086 16.4999V15.3425C88.1086 14.5346 88.1017 13.8146 88.0901 13.185C88.0832 12.5553 88.0484 11.8956 87.9883 11.2034C87.9327 10.5066 87.8262 9.66632 87.6734 8.6848H95.4886C95.4145 9.30288 95.345 9.85152 95.2848 10.333C95.2293 10.8145 95.183 11.2775 95.1459 11.722C95.7015 10.759 96.4145 9.91633 97.2849 9.19408C98.1553 8.4672 99.2526 8.10145 100.581 8.10145C101.723 8.10145 102.725 8.37924 103.591 8.93481C104.461 9.48576 105.049 10.4534 105.359 11.8423C105.822 11.1826 106.322 10.5691 106.859 9.99967C107.401 9.43252 108.026 8.97648 108.73 8.62925C109.438 8.27738 110.244 8.10145 111.147 8.10145C112.114 8.10145 112.975 8.29127 113.73 8.66629C114.482 9.04361 115.077 9.68253 115.517 10.583C115.962 11.4789 116.184 12.7081 116.184 14.2684V16.4999C116.184 17.2916 116.188 18.0069 116.202 18.6482C116.214 19.2848 116.251 19.9445 116.313 20.6297C116.381 21.3103 116.482 22.1529 116.619 23.1576H108.804Z" fill="#0097B2"/>
<path d="M138.3 23.1576H131.355C131.119 22.4052 130.994 21.6436 130.975 20.8705C130.549 21.7964 129.857 22.5071 128.901 23.0002C127.95 23.4933 126.672 23.7409 125.068 23.7409C124.475 23.7409 123.855 23.6761 123.207 23.5465C122.558 23.4215 121.952 23.2132 121.392 22.9168C120.836 22.6159 120.382 22.2039 120.031 21.6853C119.683 21.1621 119.512 20.5047 119.512 19.713C119.512 18.8611 119.709 18.1435 120.105 17.5555C120.498 16.9699 121.014 16.486 121.651 16.1018C122.292 15.7129 122.977 15.405 123.707 15.1758C124.44 14.942 125.153 14.7545 125.846 14.611C126.542 14.4628 127.135 14.3401 127.623 14.2406C128.505 14.0693 129.184 13.8517 129.661 13.5924C130.135 13.3331 130.462 12.9905 130.642 12.5646C130.827 12.1386 130.92 11.6178 130.92 10.9997C130.92 10.2844 130.774 9.76818 130.485 9.45335C130.193 9.1339 129.749 8.97185 129.151 8.97185C128.496 8.97185 127.98 9.1339 127.605 9.45335C127.228 9.76818 126.91 10.171 126.651 10.6571C126.392 11.1386 126.098 11.6108 125.772 12.0738C125.364 12.6549 124.878 13.0507 124.318 13.2591C123.762 13.4697 123.197 13.5137 122.623 13.3887C122.054 13.266 121.551 12.979 121.114 12.5275C120.681 12.0715 120.387 11.4581 120.234 10.6849C120.95 10.2404 121.818 9.82142 122.836 9.42557C123.859 9.03204 124.996 8.71258 126.244 8.47183C127.489 8.22645 128.799 8.10145 130.17 8.10145C131.633 8.10145 132.941 8.24729 134.096 8.53665C135.256 8.82833 136.172 9.33992 136.846 10.0737C137.524 10.8099 137.865 11.8308 137.865 13.1387V16.4999C137.865 17.2916 137.867 18.0069 137.874 18.6482C137.885 19.2848 137.925 19.9445 137.994 20.6297C138.061 21.3103 138.163 22.1529 138.3 23.1576ZM130.92 18.037V13.722C130.728 13.9142 130.487 14.0924 130.198 14.2591C129.906 14.4211 129.559 14.6086 129.151 14.8239C128.397 15.2082 127.857 15.7036 127.531 16.3147C127.202 16.9212 127.04 17.6481 127.04 18.5C127.04 19.5625 127.188 20.3149 127.485 20.7594C127.785 21.1992 128.179 21.4168 128.661 21.4168C129.376 21.4168 129.931 21.0742 130.327 20.389C130.721 19.7038 130.92 18.9213 130.92 18.037Z" fill="#0097B2"/>
<path d="M3.55674 37.1292H0.834412V30.5733H3.60304C4.22575 30.5733 4.7003 30.7284 5.02902 31.0363C5.35542 31.3465 5.51978 31.7493 5.51978 32.2493C5.51978 32.6012 5.39478 32.9207 5.1494 33.2031C4.90865 33.4809 4.5128 33.6475 3.96416 33.7031C4.4202 33.754 4.78364 33.8559 5.0568 34.0087C5.32764 34.1638 5.5221 34.3605 5.64016 34.6013C5.7559 34.8374 5.81609 35.092 5.81609 35.3698C5.81609 35.9254 5.61469 36.3583 5.21421 36.6662C4.81836 36.9764 4.2651 37.1292 3.55674 37.1292ZM3.30673 31.3326H1.6863V33.3883H3.35303C3.72804 33.3883 4.03824 33.3188 4.27899 33.1753C4.51974 33.0271 4.64012 32.7563 4.64012 32.3605C4.64012 31.9669 4.51511 31.6984 4.26973 31.5549C4.02204 31.4067 3.70027 31.3326 3.30673 31.3326ZM3.44563 34.1476H1.6863V36.3791H3.41785C3.94102 36.3791 4.32529 36.2935 4.56604 36.1199C4.81142 35.9416 4.93642 35.6546 4.93642 35.2587C4.93642 34.8652 4.7929 34.5805 4.51048 34.4068C4.22575 34.2355 3.87157 34.1476 3.44563 34.1476Z" fill="#032B59"/>
<path d="M14.8778 37.231C14.0305 37.231 13.4055 36.9995 12.9981 36.5365C12.5953 36.0736 12.3962 35.3583 12.3962 34.3883V30.5733H13.2481V34.3883C13.2481 35.1175 13.3708 35.6384 13.6185 35.9532C13.8708 36.2634 14.2944 36.4162 14.887 36.4162C15.4843 36.4162 15.9079 36.2634 16.1556 35.9532C16.4079 35.6384 16.5353 35.1175 16.5353 34.3883V30.5733H17.3779V34.3883C17.3779 35.3583 17.1765 36.0736 16.776 36.5365C16.3802 36.9995 15.7482 37.231 14.8778 37.231Z" fill="#032B59"/>
<path d="M26.7506 37.2298C26.3363 37.2298 25.9451 37.1743 25.5747 37.0632C25.2043 36.952 24.8756 36.7738 24.5932 36.5261C24.3154 36.2738 24.1047 35.9474 23.9635 35.5446L24.6024 34.9797C24.7066 35.3316 24.8733 35.614 25.1024 35.8224C25.3362 36.033 25.5978 36.1881 25.8895 36.2853C26.1858 36.3779 26.4729 36.4242 26.7506 36.4242C27.1141 36.4242 27.4289 36.3478 27.6951 36.1927C27.959 36.04 28.0933 35.783 28.0933 35.4242C28.0933 35.1719 28.0308 34.9774 27.9081 34.8408C27.79 34.6996 27.6234 34.5885 27.4081 34.5075C27.1974 34.4218 26.9451 34.3478 26.6488 34.2853L26.0377 34.1464C25.8201 34.0908 25.6025 34.026 25.3802 33.9519C25.158 33.8732 24.9566 33.7644 24.7783 33.6278C24.5978 33.4936 24.4543 33.3199 24.3431 33.1093C24.232 32.894 24.1765 32.6347 24.1765 32.3315C24.1765 31.931 24.2783 31.5953 24.482 31.3222C24.6904 31.0444 24.9589 30.8384 25.2876 30.7018C25.621 30.5606 25.9775 30.4888 26.3617 30.4888C26.9544 30.4888 27.4683 30.6161 27.9081 30.8685C28.3526 31.1231 28.6766 31.4958 28.8804 31.9889L28.1674 32.5537C28.0123 32.1093 27.7738 31.7921 27.4544 31.6C27.1326 31.4032 26.7599 31.3037 26.334 31.3037C25.9752 31.3037 25.6765 31.3916 25.4358 31.5629C25.195 31.7296 25.0747 31.9657 25.0747 32.2667C25.0747 32.5954 25.1858 32.8361 25.408 32.9889C25.6302 33.144 25.9289 33.2644 26.3062 33.35L27.0192 33.526C27.253 33.5885 27.4845 33.6602 27.7136 33.7389C27.9405 33.82 28.1512 33.9311 28.3433 34.0723C28.5331 34.2089 28.6859 34.3848 28.797 34.6001C28.9081 34.8107 28.9637 35.0793 28.9637 35.4057C28.9637 35.783 28.8665 36.1071 28.6766 36.3779C28.4845 36.6511 28.2183 36.8594 27.8803 37.0076C27.547 37.1557 27.1696 37.2298 26.7506 37.2298Z" fill="#032B59"/>
<path d="M36.4663 37.1292H35.6144V30.5733H36.4663V37.1292Z" fill="#032B59"/>
<path d="M44.2414 37.1292H43.3895V30.5733H44.1488L47.0656 34.7402L47.7415 35.7587L47.6952 34.7587V30.5733H48.5471V37.1292H47.7786L44.7784 32.8697L44.1951 31.9993L44.2414 32.8697V37.1292Z" fill="#032B59"/>
<path d="M59.9474 37.1292H55.4658V30.5733H59.9474V31.3326H56.3177V33.3975H59.3085V34.1476H56.3177V36.3791H59.9474V37.1292Z" fill="#032B59"/>
<path d="M69.0712 37.2298C68.6568 37.2298 68.2656 37.1743 67.8952 37.0632C67.5248 36.952 67.1961 36.7738 66.9137 36.5261C66.6359 36.2738 66.4253 35.9474 66.2841 35.5446L66.923 34.9797C67.0271 35.3316 67.1938 35.614 67.423 35.8224C67.6568 36.033 67.9184 36.1881 68.2101 36.2853C68.5064 36.3779 68.7934 36.4242 69.0712 36.4242C69.4346 36.4242 69.7495 36.3478 70.0157 36.1927C70.2796 36.04 70.4138 35.783 70.4138 35.4242C70.4138 35.1719 70.3513 34.9774 70.2287 34.8408C70.1106 34.6996 69.9439 34.5885 69.7286 34.5075C69.518 34.4218 69.2657 34.3478 68.9693 34.2853L68.3582 34.1464C68.1406 34.0908 67.923 34.026 67.7008 33.9519C67.4785 33.8732 67.2772 33.7644 67.0989 33.6278C66.9183 33.4936 66.7748 33.3199 66.6637 33.1093C66.5526 32.894 66.497 32.6347 66.497 32.3315C66.497 31.931 66.5989 31.5953 66.8026 31.3222C67.0109 31.0444 67.2795 30.8384 67.6082 30.7018C67.9415 30.5606 68.298 30.4888 68.6823 30.4888C69.2749 30.4888 69.7888 30.6161 70.2287 30.8685C70.6731 31.1231 70.9972 31.4958 71.2009 31.9889L70.4879 32.5537C70.3328 32.1093 70.0944 31.7921 69.7749 31.6C69.4532 31.4032 69.0805 31.3037 68.6545 31.3037C68.2957 31.3037 67.9971 31.3916 67.7563 31.5629C67.5156 31.7296 67.3952 31.9657 67.3952 32.2667C67.3952 32.5954 67.5063 32.8361 67.7286 32.9889C67.9508 33.144 68.2494 33.2644 68.6267 33.35L69.3397 33.526C69.5735 33.5885 69.805 33.6602 70.0342 33.7389C70.2611 33.82 70.4717 33.9311 70.6639 34.0723C70.8537 34.2089 71.0065 34.3848 71.1176 34.6001C71.2287 34.8107 71.2843 35.0793 71.2843 35.4057C71.2843 35.783 71.187 36.1071 70.9972 36.3779C70.8051 36.6511 70.5389 36.8594 70.2009 37.0076C69.8675 37.1557 69.4902 37.2298 69.0712 37.2298Z" fill="#032B59"/>
<path d="M80.4712 37.2298C80.0569 37.2298 79.6656 37.1743 79.2953 37.0632C78.9249 36.952 78.5962 36.7738 78.3137 36.5261C78.0359 36.2738 77.8253 35.9474 77.6841 35.5446L78.323 34.9797C78.4272 35.3316 78.5938 35.614 78.823 35.8224C79.0568 36.033 79.3184 36.1881 79.6101 36.2853C79.9064 36.3779 80.1934 36.4242 80.4712 36.4242C80.8347 36.4242 81.1495 36.3478 81.4157 36.1927C81.6796 36.04 81.8139 35.783 81.8139 35.4242C81.8139 35.1719 81.7514 34.9774 81.6287 34.8408C81.5106 34.6996 81.3439 34.5885 81.1287 34.5075C80.918 34.4218 80.6657 34.3478 80.3694 34.2853L79.7582 34.1464C79.5406 34.0908 79.323 34.026 79.1008 33.9519C78.8786 33.8732 78.6772 33.7644 78.4989 33.6278C78.3184 33.4936 78.1748 33.3199 78.0637 33.1093C77.9526 32.894 77.8971 32.6347 77.8971 32.3315C77.8971 31.931 77.9989 31.5953 78.2026 31.3222C78.411 31.0444 78.6795 30.8384 79.0082 30.7018C79.3416 30.5606 79.698 30.4888 80.0823 30.4888C80.6749 30.4888 81.1888 30.6161 81.6287 30.8685C82.0731 31.1231 82.3972 31.4958 82.6009 31.9889L81.888 32.5537C81.7329 32.1093 81.4944 31.7921 81.175 31.6C80.8532 31.4032 80.4805 31.3037 80.0545 31.3037C79.6957 31.3037 79.3971 31.3916 79.1564 31.5629C78.9156 31.7296 78.7952 31.9657 78.7952 32.2667C78.7952 32.5954 78.9064 32.8361 79.1286 32.9889C79.3508 33.144 79.6494 33.2644 80.0268 33.35L80.7398 33.526C80.9736 33.5885 81.2051 33.6602 81.4342 33.7389C81.6611 33.82 81.8717 33.9311 82.0639 34.0723C82.2537 34.2089 82.4065 34.3848 82.5176 34.6001C82.6287 34.8107 82.6843 35.0793 82.6843 35.4057C82.6843 35.783 82.5871 36.1071 82.3972 36.3779C82.2051 36.6511 81.9389 36.8594 81.6009 37.0076C81.2676 37.1557 80.8902 37.2298 80.4712 37.2298Z" fill="#032B59"/>
<path d="M99.4719 37.2298C99.0575 37.2298 98.6663 37.1743 98.2959 37.0632C97.9255 36.952 97.5968 36.7738 97.3144 36.5261C97.0366 36.2738 96.8259 35.9474 96.6847 35.5446L97.3236 34.9797C97.4278 35.3316 97.5945 35.614 97.8237 35.8224C98.0575 36.033 98.319 36.1881 98.6107 36.2853C98.907 36.3779 99.1941 36.4242 99.4719 36.4242C99.8353 36.4242 100.15 36.3478 100.416 36.1927C100.68 36.04 100.815 35.783 100.815 35.4242C100.815 35.1719 100.752 34.9774 100.629 34.8408C100.511 34.6996 100.345 34.5885 100.129 34.5075C99.9186 34.4218 99.6663 34.3478 99.37 34.2853L98.7589 34.1464C98.5413 34.0908 98.3237 34.026 98.1014 33.9519C97.8792 33.8732 97.6778 33.7644 97.4996 33.6278C97.319 33.4936 97.1755 33.3199 97.0644 33.1093C96.9533 32.894 96.8977 32.6347 96.8977 32.3315C96.8977 31.931 96.9996 31.5953 97.2033 31.3222C97.4116 31.0444 97.6801 30.8384 98.0088 30.7018C98.3422 30.5606 98.6987 30.4888 99.083 30.4888C99.6756 30.4888 100.189 30.6161 100.629 30.8685C101.074 31.1231 101.398 31.4958 101.602 31.9889L100.889 32.5537C100.733 32.1093 100.495 31.7921 100.176 31.6C99.8538 31.4032 99.4811 31.3037 99.0552 31.3037C98.6964 31.3037 98.3978 31.3916 98.157 31.5629C97.9163 31.7296 97.7959 31.9657 97.7959 32.2667C97.7959 32.5954 97.907 32.8361 98.1292 32.9889C98.3515 33.144 98.6501 33.2644 99.0274 33.35L99.7404 33.526C99.9742 33.5885 100.206 33.6602 100.435 33.7389C100.662 33.82 100.872 33.9311 101.065 34.0723C101.254 34.2089 101.407 34.3848 101.518 34.6001C101.629 34.8107 101.685 35.0793 101.685 35.4057C101.685 35.783 101.588 36.1071 101.398 36.3779C101.206 36.6511 100.94 36.8594 100.602 37.0076C100.268 37.1557 99.8909 37.2298 99.4719 37.2298Z" fill="#032B59"/>
<path d="M109.187 37.1292H108.336V30.5733H109.187V37.1292Z" fill="#032B59"/>
<path d="M116.961 37.1292H116.109V30.5733H117.063L118.748 33.8235L119.415 35.2587L120.072 33.8235L121.776 30.5733H122.72V37.1292H121.868V33.5086L121.961 31.7401L121.239 33.3605L119.831 36.0365H118.998L117.59 33.3605L116.859 31.7401L116.961 33.5086V37.1292Z" fill="#032B59"/>
<path d="M130.504 37.1292H129.652V30.5733H132.273C132.703 30.5733 133.092 30.6544 133.439 30.8141C133.791 30.9761 134.069 31.2215 134.273 31.5549C134.476 31.8836 134.578 32.2956 134.578 32.7957C134.578 33.2586 134.476 33.6522 134.273 33.9716C134.069 34.2865 133.791 34.5226 133.439 34.6754C133.092 34.8305 132.703 34.9069 132.273 34.9069H130.504V37.1292ZM132.134 31.3326H130.504V34.1568H132.134C132.405 34.1568 132.657 34.1198 132.893 34.0457C133.134 33.967 133.328 33.8281 133.476 33.629C133.625 33.4253 133.699 33.1475 133.699 32.7957C133.699 32.4068 133.625 32.1081 133.476 31.8975C133.328 31.6822 133.134 31.534 132.893 31.453C132.657 31.3743 132.405 31.3326 132.134 31.3326Z" fill="#032B59"/>
<path d="M145.301 37.1292H141.014V30.5733H141.866V36.3791H145.301V37.1292Z" fill="#032B59"/>
<path d="M152.582 37.1292H151.731V30.5733H152.582V37.1292Z" fill="#032B59"/>
<path d="M160.356 37.1292H159.504V30.5733H163.893V31.3326H160.356V33.6753H163.263V34.4346H160.356V37.1292Z" fill="#032B59"/>
<path d="M171.229 37.1292H170.377V30.5733H171.229V37.1292Z" fill="#032B59"/>
<path d="M182.635 37.1292H178.154V30.5733H182.635V31.3326H179.006V33.3975H181.996V34.1476H179.006V36.3791H182.635V37.1292Z" fill="#032B59"/>
<path d="M191.545 37.1292H189.221V30.5733H191.545C192.568 30.5733 193.337 30.8604 193.851 31.4345C194.369 32.0086 194.629 32.8142 194.629 33.8513C194.629 34.8883 194.369 35.6939 193.851 36.268C193.337 36.8421 192.568 37.1292 191.545 37.1292ZM191.406 31.3326H190.073V36.3791H191.406C191.899 36.3791 192.318 36.3004 192.666 36.1384C193.017 35.9787 193.286 35.7171 193.471 35.3513C193.656 34.9809 193.749 34.4809 193.749 33.8513C193.749 33.2285 193.656 32.7355 193.471 32.3697C193.286 31.9993 193.017 31.7354 192.666 31.5734C192.318 31.4137 191.899 31.3326 191.406 31.3326Z" fill="#032B59"/>
</svg>
