<svg width="197" height="58" viewBox="0 0 197 58" fill="none" xmlns="http://www.w3.org/2000/svg">
<path d="M189.536 58H7.60705C3.8269 58 0.75 54.9144 0.75 51.1371V6.8527C0.75 3.074 3.8269 0 7.60705 0H189.536C193.314 0 196.5 3.074 196.5 6.8527V51.1371C196.5 54.9144 193.314 58 189.536 58Z" fill="#A6A6A6"/>
<path d="M195.095 51.1391C195.095 54.2073 192.61 56.6926 189.536 56.6926H7.60561C4.53306 56.6926 2.03906 54.2073 2.03906 51.1391V6.85177C2.03906 3.78502 4.53306 1.29102 7.60561 1.29102H189.534C192.61 1.29102 195.094 3.78502 195.094 6.85177L195.095 51.1391Z" fill="black"/>
<path d="M44.4342 28.6865C44.3922 24.0132 48.2608 21.7395 48.4377 21.6337C46.2467 18.4393 42.8508 18.0029 41.6575 17.9681C38.8053 17.668 36.0387 19.6748 34.5858 19.6748C33.1039 19.6748 30.8666 17.9971 28.4552 18.0464C25.3522 18.0942 22.4493 19.8908 20.8572 22.6806C17.5715 28.369 20.022 36.7282 23.17 41.3261C24.7447 43.578 26.5847 46.0923 28.9932 46.0038C31.3494 45.9067 32.2296 44.5016 35.073 44.5016C37.8904 44.5016 38.7169 46.0038 41.1732 45.9473C43.702 45.9067 45.2941 43.6853 46.8137 41.4132C48.6334 38.8322 49.3642 36.2903 49.3932 36.1598C49.3338 36.1395 44.4821 34.2879 44.4342 28.6865Z" fill="white"/>
<path d="M39.7951 14.9437C41.0624 13.3588 41.9295 11.2027 41.6888 9.01465C39.8545 9.09585 37.5606 10.2834 36.2397 11.8334C35.071 13.1993 34.027 15.4381 34.2967 17.5435C36.3571 17.6972 38.4727 16.5039 39.7951 14.9437Z" fill="white"/>
<path d="M78.5368 45.6804H75.2439L73.4401 40.0123H67.1703L65.452 45.6804H62.2461L68.4579 26.3838H72.2946L78.5368 45.6804ZM72.8963 37.6343L71.2651 32.5956C71.0925 32.0808 70.7692 30.8686 70.2921 28.9604H70.2341C70.0442 29.7811 69.7382 30.9933 69.3177 32.5956L67.7155 37.6343H72.8963Z" fill="white"/>
<path d="M94.5127 38.5521C94.5127 40.9185 93.8733 42.789 92.5944 44.1622C91.4489 45.3845 90.0264 45.995 88.3285 45.995C86.4957 45.995 85.1791 45.3367 84.3772 44.0201H84.3192V51.3498H81.2278V36.3467C81.2278 34.859 81.1887 33.3321 81.1133 31.7661H83.832L84.0046 33.9716H84.0626C85.0935 32.3099 86.6581 31.4805 88.7577 31.4805C90.3991 31.4805 91.7693 32.1286 92.8655 33.4264C93.9646 34.7256 94.5127 36.4337 94.5127 38.5521ZM91.3633 38.6652C91.3633 37.3109 91.0588 36.1944 90.4469 35.3157C89.7785 34.3993 88.8809 33.9411 87.7557 33.9411C86.993 33.9411 86.2999 34.1963 85.6808 34.6995C85.0602 35.207 84.6542 35.8696 84.4642 36.6903C84.3685 37.0731 84.3207 37.3863 84.3207 37.6328V39.9528C84.3207 40.9649 84.631 41.819 85.2516 42.5164C85.8722 43.2139 86.6784 43.5619 87.6702 43.5619C88.8345 43.5619 89.7408 43.1124 90.3889 42.2163C91.0385 41.3187 91.3633 40.1355 91.3633 38.6652Z" fill="white"/>
<path d="M110.515 38.5521C110.515 40.9185 109.876 42.789 108.595 44.1622C107.451 45.3845 106.029 45.995 104.331 45.995C102.498 45.995 101.182 45.3367 100.381 44.0201H100.323V51.3498H97.2317V36.3467C97.2317 34.859 97.1926 33.3321 97.1172 31.7661H99.8359L100.008 33.9716H100.066C101.096 32.3099 102.661 31.4805 104.762 31.4805C106.402 31.4805 107.772 32.1286 108.871 33.4264C109.966 34.7256 110.515 36.4337 110.515 38.5521ZM107.366 38.6652C107.366 37.3109 107.06 36.1944 106.448 35.3157C105.779 34.3993 104.885 33.9411 103.758 33.9411C102.994 33.9411 102.302 34.1963 101.682 34.6995C101.061 35.207 100.657 35.8696 100.467 36.6903C100.372 37.0731 100.323 37.3863 100.323 37.6328V39.9528C100.323 40.9649 100.633 41.819 101.251 42.5164C101.872 43.2124 102.678 43.5619 103.673 43.5619C104.837 43.5619 105.743 43.1124 106.391 42.2163C107.041 41.3187 107.366 40.1355 107.366 38.6652Z" fill="white"/>
<path d="M128.409 40.269C128.409 41.9104 127.839 43.2459 126.695 44.2768C125.438 45.4035 123.688 45.9661 121.439 45.9661C119.362 45.9661 117.698 45.5659 116.438 44.764L117.154 42.1874C118.511 43.0081 120 43.4199 121.623 43.4199C122.787 43.4199 123.693 43.156 124.344 42.6311C124.993 42.1062 125.316 41.4015 125.316 40.5228C125.316 39.7398 125.049 39.08 124.514 38.545C123.982 38.0099 123.093 37.5126 121.852 37.0529C118.473 35.7929 116.786 33.947 116.786 31.5197C116.786 29.9334 117.377 28.6328 118.562 27.6207C119.742 26.6071 121.317 26.1011 123.286 26.1011C125.042 26.1011 126.501 26.407 127.665 27.0175L126.892 29.5376C125.804 28.946 124.575 28.6502 123.199 28.6502C122.111 28.6502 121.262 28.9184 120.653 29.452C120.138 29.9291 119.88 30.5105 119.88 31.1993C119.88 31.962 120.174 32.5927 120.766 33.0886C121.281 33.5468 122.216 34.0427 123.573 34.5778C125.233 35.2462 126.453 36.0278 127.237 36.9239C128.019 37.8171 128.409 38.935 128.409 40.269Z" fill="white"/>
<path d="M138.63 34.0868H135.223V40.8423C135.223 42.5606 135.823 43.419 137.026 43.419C137.579 43.419 138.037 43.3711 138.399 43.2754L138.485 45.623C137.876 45.8506 137.074 45.9652 136.081 45.9652C134.86 45.9652 133.906 45.5925 133.217 44.8487C132.531 44.1034 132.186 42.8535 132.186 41.0975V34.0839H130.156V31.7639H132.186V29.2162L135.223 28.2998V31.7639H138.63V34.0868Z" fill="white"/>
<path d="M154.004 38.6087C154.004 40.7474 153.392 42.5034 152.171 43.8765C150.89 45.2903 149.191 45.995 147.073 45.995C145.031 45.995 143.405 45.3178 142.193 43.9635C140.981 42.6092 140.375 40.8997 140.375 38.8392C140.375 36.6831 140.998 34.917 142.25 33.5438C143.498 32.1692 145.183 31.4819 147.302 31.4819C149.343 31.4819 150.986 32.1591 152.226 33.5148C153.412 34.83 154.004 36.5279 154.004 38.6087ZM150.796 38.7087C150.796 37.4255 150.522 36.3249 149.967 35.4071C149.319 34.2964 148.392 33.7425 147.191 33.7425C145.949 33.7425 145.005 34.2978 144.357 35.4071C143.801 36.3264 143.527 37.4443 143.527 38.7667C143.527 40.05 143.801 41.1505 144.357 42.0669C145.025 43.1776 145.959 43.7315 147.164 43.7315C148.344 43.7315 149.271 43.166 149.939 42.0379C150.509 41.1027 150.796 39.9905 150.796 38.7087Z" fill="white"/>
<path d="M164.054 34.4849C163.748 34.4283 163.421 34.3993 163.079 34.3993C161.992 34.3993 161.151 34.8097 160.559 35.6318C160.044 36.3568 159.786 37.2732 159.786 38.3796V45.6803H156.696L156.725 36.148C156.725 34.5443 156.686 33.0842 156.609 31.7676H159.302L159.415 34.4298H159.501C159.827 33.5148 160.342 32.7782 161.046 32.2258C161.735 31.7284 162.479 31.4805 163.281 31.4805C163.566 31.4805 163.825 31.5008 164.054 31.537V34.4849Z" fill="white"/>
<path d="M177.881 38.0647C177.881 38.6186 177.845 39.0855 177.768 39.4668H168.494C168.53 40.8414 168.978 41.8927 169.84 42.6177C170.621 43.2658 171.632 43.5906 172.873 43.5906C174.246 43.5906 175.499 43.3716 176.626 42.9323L177.11 45.0783C175.793 45.6525 174.239 45.9381 172.445 45.9381C170.288 45.9381 168.594 45.3031 167.361 44.0343C166.132 42.7655 165.516 41.0618 165.516 38.9245C165.516 36.8263 166.088 35.0791 167.235 33.6857C168.436 32.198 170.058 31.4541 172.1 31.4541C174.105 31.4541 175.624 32.198 176.655 33.6857C177.471 34.8674 177.881 36.329 177.881 38.0647ZM174.933 37.2628C174.954 36.3464 174.752 35.5547 174.333 34.8862C173.798 34.0264 172.976 33.5972 171.87 33.5972C170.859 33.5972 170.037 34.0163 169.409 34.8573C168.894 35.5257 168.588 36.3276 168.494 37.2614L174.933 37.2628Z" fill="white"/>
<path d="M71.8704 14.5131C71.8704 16.2198 71.3586 17.5045 70.3363 18.3672C69.3895 19.1633 68.0439 19.562 66.301 19.562C65.4368 19.562 64.6973 19.5243 64.0781 19.4489V10.124C64.8858 9.99346 65.7558 9.92676 66.6954 9.92676C68.3556 9.92676 69.607 10.2878 70.4509 11.0099C71.3963 11.8263 71.8704 12.9935 71.8704 14.5131ZM70.2682 14.5552C70.2682 13.4488 69.9753 12.6006 69.3895 12.009C68.8037 11.4188 67.9482 11.123 66.8215 11.123C66.343 11.123 65.9356 11.1549 65.5977 11.2216V18.3107C65.7848 18.3397 66.127 18.3527 66.6243 18.3527C67.7872 18.3527 68.6848 18.0294 69.317 17.3827C69.9492 16.736 70.2682 15.7935 70.2682 14.5552Z" fill="white"/>
<path d="M80.3665 16.0037C80.3665 17.055 80.0664 17.9163 79.4661 18.592C78.8368 19.2865 78.003 19.6331 76.9619 19.6331C75.9585 19.6331 75.1596 19.301 74.5636 18.634C73.9691 17.9685 73.6719 17.1289 73.6719 16.1168C73.6719 15.0583 73.9778 14.1898 74.5926 13.5155C75.2074 12.8413 76.0339 12.5034 77.075 12.5034C78.0784 12.5034 78.8846 12.8355 79.4951 13.501C80.0751 14.1477 80.3665 14.9829 80.3665 16.0037ZM78.7904 16.053C78.7904 15.4223 78.6541 14.8814 78.3829 14.4305C78.0639 13.8853 77.6101 13.6127 77.0199 13.6127C76.4095 13.6127 75.9455 13.8853 75.6265 14.4305C75.3539 14.8814 75.219 15.431 75.219 16.0806C75.219 16.7113 75.3553 17.2522 75.6265 17.7031C75.9556 18.2483 76.4138 18.5209 77.0054 18.5209C77.5854 18.5209 78.0407 18.244 78.3684 17.6886C78.6497 17.229 78.7904 16.6838 78.7904 16.053Z" fill="white"/>
<path d="M91.7591 12.6426L89.6204 19.4779H88.2284L87.3425 16.5097C87.1177 15.7688 86.935 15.0322 86.7929 14.3014H86.7653C86.6334 15.0525 86.4507 15.7876 86.2158 16.5097L85.2747 19.4779H83.8668L81.8557 12.6426H83.4173L84.1901 15.892C84.3772 16.6605 84.5309 17.3928 84.6542 18.0859H84.6817C84.7948 17.5146 84.9818 16.7867 85.2457 15.9065L86.2158 12.644H87.4541L88.3836 15.8369C88.6083 16.6156 88.791 17.3652 88.9316 18.0873H88.9737C89.0767 17.3841 89.2318 16.6344 89.4377 15.8369L90.2671 12.644H91.7591V12.6426Z" fill="white"/>
<path d="M99.6359 19.4779H98.1163V15.5629C98.1163 14.3565 97.6581 13.7533 96.7388 13.7533C96.2879 13.7533 95.9239 13.9186 95.6412 14.2506C95.3613 14.5827 95.2192 14.9742 95.2192 15.4222V19.4764H93.6996V14.5957C93.6996 13.9954 93.6808 13.3444 93.6445 12.6397H94.98L95.051 13.7083H95.0931C95.27 13.3763 95.5339 13.1022 95.8804 12.8833C96.2922 12.6281 96.7533 12.499 97.2579 12.499C97.8959 12.499 98.4266 12.7049 98.8486 13.1182C99.3735 13.6242 99.6359 14.3797 99.6359 15.3831V19.4779Z" fill="white"/>
<path d="M103.827 19.478H102.309V9.50635H103.827V19.478Z" fill="white"/>
<path d="M112.773 16.0037C112.773 17.055 112.473 17.9163 111.872 18.592C111.243 19.2865 110.408 19.6331 109.368 19.6331C108.363 19.6331 107.564 19.301 106.97 18.634C106.375 17.9685 106.078 17.1289 106.078 16.1168C106.078 15.0583 106.384 14.1898 106.999 13.5155C107.614 12.8413 108.44 12.5034 109.48 12.5034C110.485 12.5034 111.289 12.8355 111.901 13.501C112.481 14.1477 112.773 14.9829 112.773 16.0037ZM111.195 16.053C111.195 15.4223 111.059 14.8814 110.788 14.4305C110.47 13.8853 110.015 13.6127 109.426 13.6127C108.814 13.6127 108.35 13.8853 108.033 14.4305C107.76 14.8814 107.625 15.431 107.625 16.0806C107.625 16.7113 107.762 17.2522 108.033 17.7031C108.362 18.2483 108.82 18.5209 109.412 18.5209C109.992 18.5209 110.446 18.244 110.773 17.6886C111.056 17.229 111.195 16.6838 111.195 16.053Z" fill="white"/>
<path d="M120.127 19.4779H118.763L118.65 18.6906H118.608C118.141 19.3184 117.475 19.6331 116.611 19.6331C115.966 19.6331 115.444 19.4257 115.051 19.0139C114.694 18.6398 114.516 18.1744 114.516 17.6219C114.516 16.7867 114.864 16.1502 115.564 15.7094C116.263 15.2686 117.246 15.0525 118.512 15.0627V14.9351C118.512 14.0346 118.039 13.5851 117.092 13.5851C116.418 13.5851 115.824 13.7548 115.31 14.0912L115.001 13.0936C115.636 12.7006 116.421 12.5034 117.346 12.5034C119.132 12.5034 120.029 13.4459 120.029 15.3309V17.8481C120.029 18.5311 120.062 19.0748 120.127 19.4779ZM118.55 17.1289V16.0748C116.873 16.0458 116.035 16.5054 116.035 17.4523C116.035 17.809 116.131 18.0758 116.327 18.2541C116.522 18.4325 116.772 18.5209 117.069 18.5209C117.403 18.5209 117.714 18.4151 117.999 18.2048C118.284 17.9931 118.46 17.7249 118.525 17.3957C118.541 17.3218 118.55 17.2319 118.55 17.1289Z" fill="white"/>
<path d="M128.759 19.478H127.411L127.34 18.3803H127.298C126.867 19.2155 126.133 19.6331 125.102 19.6331C124.279 19.6331 123.593 19.3098 123.049 18.6631C122.506 18.0164 122.234 17.1768 122.234 16.1459C122.234 15.0395 122.529 14.1434 123.12 13.459C123.693 12.821 124.395 12.502 125.23 12.502C126.148 12.502 126.79 12.8109 127.156 13.43H127.185V9.50635H128.706V17.6365C128.706 18.302 128.723 18.9154 128.759 19.478ZM127.185 16.5954V15.4557C127.185 15.2585 127.17 15.099 127.143 14.9772C127.057 14.6118 126.873 14.3044 126.593 14.0564C126.31 13.8085 125.97 13.6838 125.577 13.6838C125.01 13.6838 124.566 13.9085 124.24 14.3595C123.916 14.8104 123.753 15.3861 123.753 16.0893C123.753 16.765 123.908 17.3131 124.219 17.7351C124.549 18.1846 124.992 18.4093 125.548 18.4093C126.046 18.4093 126.445 18.2223 126.748 17.8467C127.041 17.5002 127.185 17.0826 127.185 16.5954Z" fill="white"/>
<path d="M141.757 16.0037C141.757 17.055 141.457 17.9163 140.857 18.592C140.228 19.2865 139.395 19.6331 138.353 19.6331C137.351 19.6331 136.552 19.301 135.954 18.634C135.36 17.9685 135.063 17.1289 135.063 16.1168C135.063 15.0583 135.369 14.1898 135.983 13.5155C136.598 12.8413 137.425 12.5034 138.467 12.5034C139.469 12.5034 140.277 12.8355 140.886 13.501C141.466 14.1477 141.757 14.9829 141.757 16.0037ZM140.183 16.053C140.183 15.4223 140.046 14.8814 139.775 14.4305C139.455 13.8853 139.002 13.6127 138.411 13.6127C137.802 13.6127 137.338 13.8853 137.017 14.4305C136.745 14.8814 136.61 15.431 136.61 16.0806C136.61 16.7113 136.746 17.2522 137.017 17.7031C137.346 18.2483 137.805 18.5209 138.396 18.5209C138.976 18.5209 139.433 18.244 139.761 17.6886C140.041 17.229 140.183 16.6838 140.183 16.053Z" fill="white"/>
<path d="M149.928 19.4779H148.409V15.5629C148.409 14.3565 147.951 13.7533 147.031 13.7533C146.58 13.7533 146.216 13.9186 145.934 14.2506C145.653 14.5827 145.512 14.9742 145.512 15.4222V19.4764H143.991V14.5957C143.991 13.9954 143.974 13.3444 143.938 12.6397H145.272L145.343 13.7083H145.385C145.563 13.3763 145.827 13.1022 146.172 12.8833C146.585 12.6281 147.045 12.499 147.551 12.499C148.188 12.499 148.718 12.7049 149.14 13.1182C149.667 13.6242 149.928 14.3797 149.928 15.3831V19.4779Z" fill="white"/>
<path d="M160.155 13.781H158.482V17.1015C158.482 17.9454 158.779 18.3673 159.368 18.3673C159.641 18.3673 159.867 18.3441 160.045 18.2963L160.084 19.449C159.784 19.5621 159.39 19.6187 158.904 19.6187C158.304 19.6187 157.837 19.436 157.499 19.0706C157.16 18.7052 156.991 18.0904 156.991 17.2276V13.781H155.992V12.6427H156.991V11.3899L158.481 10.9404V12.6413H160.154L160.155 13.781Z" fill="white"/>
<path d="M168.202 19.478H166.681V15.592C166.681 14.3667 166.223 13.7534 165.305 13.7534C164.6 13.7534 164.119 14.1086 163.855 14.8191C163.81 14.9685 163.784 15.1512 163.784 15.3658V19.4765H162.266V9.50635H163.784V13.6258H163.813C164.291 12.8761 164.977 12.502 165.866 12.502C166.495 12.502 167.016 12.7079 167.429 13.1212C167.944 13.6359 168.202 14.4015 168.202 15.4136V19.478Z" fill="white"/>
<path d="M176.499 15.7373C176.499 16.0099 176.479 16.239 176.442 16.426H171.885C171.905 17.1017 172.123 17.6165 172.545 17.9732C172.93 18.2922 173.428 18.4517 174.037 18.4517C174.711 18.4517 175.326 18.3444 175.88 18.1283L176.117 19.1839C175.469 19.4652 174.707 19.6059 173.824 19.6059C172.765 19.6059 171.931 19.2941 171.328 18.6706C170.722 18.0471 170.422 17.2105 170.422 16.1607C170.422 15.1297 170.702 14.2713 171.266 13.5869C171.854 12.8561 172.651 12.4907 173.655 12.4907C174.638 12.4907 175.385 12.8561 175.89 13.5869C176.297 14.1669 176.499 14.8847 176.499 15.7373ZM175.049 15.3443C175.06 14.8934 174.96 14.5048 174.754 14.1771C174.491 13.7551 174.089 13.5434 173.545 13.5434C173.049 13.5434 172.645 13.7493 172.336 14.1626C172.084 14.4917 171.934 14.8847 171.885 15.3443H175.049Z" fill="white"/>
</svg>
