<svg width="70" height="75" viewBox="0 0 70 75" fill="none" xmlns="http://www.w3.org/2000/svg">
<path d="M68.9791 35.2023V60.1937C68.9791 61.6546 67.7995 62.8342 66.3386 62.8342H46.6985V32.5618H66.3386C67.7995 32.5618 68.9791 33.7414 68.9791 35.2023Z" fill="#F3F7FA"/>
<path d="M46.6985 37.8511H68.9791V44.4837H46.6985V37.8511Z" fill="#B0E867"/>
<path d="M46.6948 31.4621V63.9344C46.6948 65.4842 45.4384 66.7408 43.8885 66.7408H41.6403V28.6558H43.8885C45.4384 28.6558 46.6948 29.9123 46.6948 31.4621Z" fill="white"/>
<path d="M41.6398 13.3493V70.9383C41.6398 72.749 40.1719 74.2167 38.3613 74.2167H4.06349C2.2528 74.2167 0.785034 72.7488 0.785034 70.9383V13.3493C0.785034 11.5386 2.25295 10.0708 4.06349 10.0708H38.3613C40.172 10.0708 41.6398 11.5387 41.6398 13.3493Z" fill="#0097B2"/>
<path d="M37.5427 24.2023V40.5046C37.5427 41.4099 36.8088 42.1439 35.9034 42.1439H6.52364C5.61837 42.1439 4.88434 41.41 4.88434 40.5046V24.2023C4.88434 23.297 5.61822 22.563 6.52364 22.563H35.9034C36.8087 22.563 37.5427 23.2969 37.5427 24.2023Z" fill="#F3F7FA"/>
<path d="M31.4 0.781738V16.3168H11.0275V0.781738L14.4247 4.17899L17.822 0.781738L21.2192 4.17899L24.6055 0.781738L28.0027 4.17899L31.4 0.781738Z" fill="white"/>
<path d="M66.3382 31.7804H47.4758V31.4623C47.4758 29.484 45.8668 27.8743 43.8886 27.8743H42.4214V13.3537C42.4214 11.1138 40.5987 9.29108 38.3588 9.29108H32.1806V0.781406C32.1806 0.465587 31.9906 0.180237 31.6985 0.0596809C31.4062 -0.0616076 31.0707 0.00548193 30.8471 0.229016L28.0023 3.07388L25.1573 0.229163C25.0108 0.0826788 24.8124 0.000208529 24.6049 0.000208529H24.6041C24.3966 0.000208529 24.1984 0.0832648 24.0517 0.229895L21.2177 3.07329L18.3734 0.229163C18.0683 -0.075963 17.5739 -0.075963 17.2688 0.229163L14.424 3.07402L11.5788 0.229163C11.356 0.00562842 11.0204 -0.0607287 10.7274 0.0598274C10.4352 0.180383 10.2454 0.465587 10.2454 0.781552V9.29123H4.06258C1.8227 9.29123 0 11.1139 0 13.3538V70.9382C0 73.178 1.8227 75 4.06258 75H38.3588C40.5987 75 42.4214 73.178 42.4214 70.9382V67.5217H43.8886C45.8668 67.5217 47.4758 65.9127 47.4758 63.9345V63.6156H66.3382C68.2249 63.6156 69.7599 62.0806 69.7599 60.1939V35.2023C69.7599 33.3153 68.2248 31.7804 66.3382 31.7804ZM47.4758 38.6322H68.1974V43.7026H47.4758V38.6322ZM66.3382 33.3428C67.3636 33.3428 68.1975 34.1768 68.1975 35.2021V37.0698H47.4759V33.3428H66.3382ZM13.8714 4.73119C14.1765 5.03632 14.6709 5.03632 14.9761 4.73119L17.8209 1.88633L20.6658 4.73119C20.969 5.03441 21.4632 5.03851 21.7711 4.73046L24.6053 1.88706L27.4494 4.73119C27.7546 5.03632 28.2489 5.03632 28.5541 4.73119L30.6177 2.66753V15.5357H11.8078V2.66738L13.8714 4.73119ZM40.859 70.9379C40.859 72.3157 39.7375 73.4372 38.3589 73.4372H4.06258C2.68387 73.4372 1.56254 72.3157 1.56254 70.9379V13.3537C1.56254 11.975 2.68402 10.8536 4.06258 10.8536H10.2452V15.5357H8.37989C7.94806 15.5357 7.59869 15.885 7.59869 16.3169C7.59869 16.7487 7.94806 17.0981 8.37989 17.0981H34.0384C34.4702 17.0981 34.8196 16.7487 34.8196 16.3169C34.8196 15.885 34.4702 15.5357 34.0384 15.5357H32.1807V10.8535H38.3589C39.7377 10.8535 40.859 11.975 40.859 13.3535V70.9379ZM45.9133 63.9343C45.9133 65.0504 45.0046 65.9592 43.8884 65.9592H42.4212V29.4367H43.8884C45.0045 29.4367 45.9133 30.3453 45.9133 31.4623V63.9343ZM66.3382 62.053H47.4758V45.265H68.1974V60.1937C68.1974 61.2191 67.3636 62.053 66.3382 62.053Z" fill="#2E2E6D"/>
<path d="M35.9032 21.7815H6.5233C5.18811 21.7815 4.10266 22.8671 4.10266 24.2021V40.5042C4.10266 41.8394 5.18825 42.9248 6.5233 42.9248H35.9032C37.2376 42.9248 38.3232 41.8392 38.3232 40.5042V24.2021C38.3233 22.8671 37.2377 21.7815 35.9032 21.7815ZM36.7608 40.5043C36.7608 40.9773 36.3762 41.3626 35.9032 41.3626H6.5233C6.05031 41.3626 5.66506 40.9772 5.66506 40.5043V24.2021C5.66506 23.7291 6.05045 23.3439 6.5233 23.3439H35.9032C36.3762 23.3439 36.7608 23.7293 36.7608 24.2021V40.5043Z" fill="#2E2E6D"/>
<path d="M15.8942 11.1759H26.5316C26.9634 11.1759 27.3128 10.8266 27.3128 10.3947C27.3128 9.96289 26.9634 9.61353 26.5316 9.61353H15.8942C15.4624 9.61353 15.113 9.96289 15.113 10.3947C15.1129 10.8266 15.4623 11.1759 15.8942 11.1759Z" fill="#2E2E6D"/>
<path d="M11.8909 46.9172H9.37794C8.9461 46.9172 8.59674 47.2666 8.59674 47.6984C8.59674 48.1303 8.9461 48.4796 9.37794 48.4796H11.8909C12.3227 48.4796 12.6721 48.1303 12.6721 47.6984C12.6721 47.2666 12.3227 46.9172 11.8909 46.9172Z" fill="#2E2E6D"/>
<path d="M22.4699 46.9172H19.9569C19.525 46.9172 19.1757 47.2666 19.1757 47.6984C19.1757 48.1303 19.525 48.4796 19.9569 48.4796H22.4699C22.9018 48.4796 23.2511 48.1303 23.2511 47.6984C23.2511 47.2666 22.9018 46.9172 22.4699 46.9172Z" fill="#2E2E6D"/>
<path d="M33.0483 46.9172H30.5345C30.1027 46.9172 29.7533 47.2666 29.7533 47.6984C29.7533 48.1303 30.1027 48.4796 30.5345 48.4796H33.0483C33.4801 48.4796 33.8295 48.1303 33.8295 47.6984C33.8295 47.2666 33.4801 46.9172 33.0483 46.9172Z" fill="#2E2E6D"/>
<path d="M11.8909 52.2031H9.37794C8.9461 52.2031 8.59674 52.5525 8.59674 52.9843C8.59674 53.4162 8.9461 53.7655 9.37794 53.7655H11.8909C12.3227 53.7655 12.6721 53.4162 12.6721 52.9843C12.6721 52.5525 12.3227 52.2031 11.8909 52.2031Z" fill="#2E2E6D"/>
<path d="M22.4699 52.2031H19.9569C19.525 52.2031 19.1757 52.5525 19.1757 52.9843C19.1757 53.4162 19.525 53.7655 19.9569 53.7655H22.4699C22.9018 53.7655 23.2511 53.4162 23.2511 52.9843C23.2511 52.5525 22.9018 52.2031 22.4699 52.2031Z" fill="#2E2E6D"/>
<path d="M33.0483 52.2031H30.5345C30.1027 52.2031 29.7533 52.5525 29.7533 52.9843C29.7533 53.4162 30.1027 53.7655 30.5345 53.7655H33.0483C33.4801 53.7655 33.8295 53.4162 33.8295 52.9843C33.8295 52.5525 33.4801 52.2031 33.0483 52.2031Z" fill="#2E2E6D"/>
<path d="M11.8909 57.4885H9.37794C8.9461 57.4885 8.59674 57.8379 8.59674 58.2697C8.59674 58.7016 8.9461 59.0509 9.37794 59.0509H11.8909C12.3227 59.0509 12.6721 58.7016 12.6721 58.2697C12.6721 57.8379 12.3227 57.4885 11.8909 57.4885Z" fill="#2E2E6D"/>
<path d="M22.4699 57.4885H19.9569C19.525 57.4885 19.1757 57.8379 19.1757 58.2697C19.1757 58.7016 19.525 59.0509 19.9569 59.0509H22.4699C22.9018 59.0509 23.2511 58.7016 23.2511 58.2697C23.2511 57.8379 22.9018 57.4885 22.4699 57.4885Z" fill="#2E2E6D"/>
<path d="M33.0483 57.4885H30.5345C30.1027 57.4885 29.7533 57.8379 29.7533 58.2697C29.7533 58.7016 30.1027 59.0509 30.5345 59.0509H33.0483C33.4801 59.0509 33.8295 58.7016 33.8295 58.2697C33.8295 57.8379 33.4801 57.4885 33.0483 57.4885Z" fill="#2E2E6D"/>
<path d="M11.8909 62.7739H9.37794C8.9461 62.7739 8.59674 63.1233 8.59674 63.5551C8.59674 63.987 8.9461 64.3363 9.37794 64.3363H11.8909C12.3227 64.3363 12.6721 63.987 12.6721 63.5551C12.6721 63.1233 12.3227 62.7739 11.8909 62.7739Z" fill="#2E2E6D"/>
<path d="M22.4699 62.7739H19.9569C19.525 62.7739 19.1757 63.1233 19.1757 63.5551C19.1757 63.987 19.525 64.3363 19.9569 64.3363H22.4699C22.9018 64.3363 23.2511 63.987 23.2511 63.5551C23.2511 63.1233 22.9018 62.7739 22.4699 62.7739Z" fill="#2E2E6D"/>
<path d="M33.0483 62.7739H30.5345C30.1027 62.7739 29.7533 63.1233 29.7533 63.5551C29.7533 63.987 30.1027 64.3363 30.5345 64.3363H33.0483C33.4801 64.3363 33.8295 63.987 33.8295 63.5551C33.8295 63.1233 33.4801 62.7739 33.0483 62.7739Z" fill="#2E2E6D"/>
<path d="M11.8909 68.0593H9.37794C8.9461 68.0593 8.59674 68.4087 8.59674 68.8405C8.59674 69.2724 8.9461 69.6217 9.37794 69.6217H11.8909C12.3227 69.6217 12.6721 69.2724 12.6721 68.8405C12.6721 68.4087 12.3227 68.0593 11.8909 68.0593Z" fill="#2E2E6D"/>
<path d="M22.4699 68.0593H19.9569C19.525 68.0593 19.1757 68.4087 19.1757 68.8405C19.1757 69.2724 19.525 69.6217 19.9569 69.6217H22.4699C22.9018 69.6217 23.2511 69.2724 23.2511 68.8405C23.2511 68.4087 22.9018 68.0593 22.4699 68.0593Z" fill="#2E2E6D"/>
<path d="M33.0483 68.0593H30.5345C30.1027 68.0593 29.7533 68.4087 29.7533 68.8405C29.7533 69.2724 30.1027 69.6217 30.5345 69.6217H33.0483C33.4801 69.6217 33.8295 69.2724 33.8295 68.8405C33.8295 68.4087 33.4801 68.0593 33.0483 68.0593Z" fill="#2E2E6D"/>
</svg>
