<svg width="50" height="50" viewBox="0 0 50 50" fill="none" xmlns="http://www.w3.org/2000/svg">
<path d="M12.5777 10.9053C13.6561 10.9053 14.5303 10.0311 14.5303 8.95267C14.5303 7.87424 13.6561 7 12.5777 7C11.4992 7 10.625 7.87424 10.625 8.95267C10.625 10.0311 11.4992 10.9053 12.5777 10.9053Z" stroke="#0097B2" stroke-width="1.5" stroke-miterlimit="10" stroke-linecap="round" stroke-linejoin="round"/>
<path d="M13.8058 15.7578H14.8425C15.3583 15.7578 15.777 15.3392 15.777 14.8233V14.1108C15.777 12.3411 14.3421 10.907 12.5724 10.9062C10.8021 10.907 9.36719 12.3411 9.36719 14.1108V14.8233C9.36719 15.3392 9.78581 15.7578 10.3024 15.7578H11.3391" stroke="#0097B2" stroke-width="1.5" stroke-miterlimit="10" stroke-linecap="round" stroke-linejoin="round"/>
<path d="M36.9214 10.9053C37.9999 10.9053 38.8741 10.0311 38.8741 8.95267C38.8741 7.87424 37.9999 7 36.9214 7C35.843 7 34.9688 7.87424 34.9688 8.95267C34.9688 10.0311 35.843 10.9053 36.9214 10.9053Z" stroke="#0097B2" stroke-width="1.5" stroke-miterlimit="10" stroke-linecap="round" stroke-linejoin="round"/>
<path d="M38.1566 15.7578H39.1933C39.7099 15.7578 40.1285 15.3392 40.1285 14.8233V14.1108C40.1285 12.3411 38.6929 10.907 36.9233 10.9062C35.1536 10.907 33.7188 12.3411 33.7188 14.1108V14.8233C33.7188 15.3392 34.1374 15.7578 34.6533 15.7578H35.69" stroke="#0097B2" stroke-width="1.5" stroke-miterlimit="10" stroke-linecap="round" stroke-linejoin="round"/>
<path d="M12.5777 37.1749C13.6561 37.1749 14.5303 36.3006 14.5303 35.2222C14.5303 34.1438 13.6561 33.2695 12.5777 33.2695C11.4992 33.2695 10.625 34.1438 10.625 35.2222C10.625 36.3006 11.4992 37.1749 12.5777 37.1749Z" stroke="#0097B2" stroke-width="1.5" stroke-miterlimit="10" stroke-linecap="round" stroke-linejoin="round"/>
<path d="M13.8058 42.0273H14.8425C15.3583 42.0273 15.777 41.6087 15.777 41.0928V40.3803C15.777 38.6107 14.3421 37.1765 12.5724 37.1758C10.8021 37.1765 9.36719 38.6107 9.36719 40.3803V41.0928C9.36719 41.6087 9.78581 42.0273 10.3024 42.0273H11.3391" stroke="#0097B2" stroke-width="1.5" stroke-miterlimit="10" stroke-linecap="round" stroke-linejoin="round"/>
<path d="M36.9214 37.1749C37.9999 37.1749 38.8741 36.3006 38.8741 35.2222C38.8741 34.1438 37.9999 33.2695 36.9214 33.2695C35.843 33.2695 34.9688 34.1438 34.9688 35.2222C34.9688 36.3006 35.843 37.1749 36.9214 37.1749Z" stroke="#0097B2" stroke-width="1.5" stroke-miterlimit="10" stroke-linecap="round" stroke-linejoin="round"/>
<path d="M36.9235 37.1758C35.1536 37.1759 33.7188 38.6101 33.7188 40.38V41.0923C33.7188 41.6085 34.1372 42.027 34.6535 42.027H39.1936C39.7098 42.027 40.1283 41.6085 40.1283 41.0923V40.38C40.1282 38.61 38.6934 37.1759 36.9235 37.1758Z" stroke="#0097B2" stroke-width="1.5" stroke-miterlimit="10" stroke-linecap="round" stroke-linejoin="round"/>
<path d="M31.9572 25.3617V23.6658C31.9572 23.3368 31.7179 23.0567 31.393 23.0054L30.4846 22.862C30.2965 22.8323 30.1367 22.7055 30.0696 22.5273C30.023 22.4035 29.9722 22.2818 29.9174 22.1623C29.8375 21.9881 29.8601 21.7842 29.9728 21.6293L30.5144 20.8845C30.7079 20.6184 30.6791 20.2512 30.4465 20.0185L29.2473 18.8193C29.0146 18.5867 28.6474 18.5579 28.3813 18.7514L27.6365 19.2931C27.4816 19.4057 27.2776 19.4284 27.1035 19.3484C26.984 19.2936 26.8623 19.2428 26.7385 19.1962C26.5603 19.1291 26.4335 18.9693 26.4038 18.7812L26.2604 17.8728C26.2091 17.5479 25.929 17.3086 25.6 17.3086H23.9041C23.5751 17.3086 23.295 17.5479 23.2437 17.8728L23.1003 18.7812C23.0706 18.9693 22.9438 19.1291 22.7655 19.1962C22.6418 19.2428 22.5201 19.2936 22.4005 19.3484C22.2264 19.4283 22.0224 19.4057 21.8675 19.2931L21.1227 18.7514C20.8567 18.5579 20.4895 18.5867 20.2568 18.8193L19.0576 20.0185C18.825 20.2512 18.7962 20.6184 18.9897 20.8845L19.5313 21.6293C19.644 21.7842 19.6666 21.9882 19.5867 22.1623C19.5319 22.2818 19.4811 22.4035 19.4345 22.5273C19.3674 22.7055 19.2076 22.8323 19.0195 22.862L18.1111 23.0054C17.7861 23.0567 17.5469 23.3368 17.5469 23.6658V25.3617C17.5469 25.6907 17.7862 25.9708 18.1111 26.0221L19.0195 26.1655C19.2076 26.1952 19.3674 26.322 19.4345 26.5003C19.4811 26.624 19.5319 26.7457 19.5867 26.8653C19.6666 27.0394 19.644 27.2434 19.5313 27.3983L18.9897 28.1431C18.7962 28.4091 18.825 28.7764 19.0576 29.009L20.2568 30.2082C20.4895 30.4409 20.8567 30.4696 21.1227 30.2762L21.8675 29.7345C22.0224 29.6218 22.2265 29.5992 22.4005 29.6791C22.5201 29.7339 22.6418 29.7847 22.7655 29.8313C22.9438 29.8984 23.0706 30.0582 23.1003 30.2463L23.2437 31.1547C23.295 31.4797 23.5751 31.7189 23.9041 31.7189H25.6C25.929 31.7189 26.2091 31.4796 26.2604 31.1547L26.4038 30.2463C26.4335 30.0582 26.5603 29.8984 26.7385 29.8313C26.8623 29.7847 26.984 29.7339 27.1035 29.6791C27.2777 29.5992 27.4816 29.6218 27.6365 29.7345L28.3813 30.2762C28.6474 30.4696 29.0146 30.4409 29.2473 30.2082L30.4465 29.009C30.6791 28.7764 30.7079 28.4091 30.5144 28.1431L29.9728 27.3983C29.8601 27.2434 29.8374 27.0393 29.9174 26.8653C29.9722 26.7457 30.023 26.6241 30.0696 26.5003C30.1367 26.322 30.2965 26.1952 30.4846 26.1655L31.393 26.0221C31.7179 25.9708 31.9572 25.6907 31.9572 25.3617ZM24.752 27.3258C23.1989 27.3258 21.9399 26.0668 21.9399 24.5138C21.9399 22.9607 23.1989 21.7017 24.752 21.7017C26.305 21.7017 27.564 22.9607 27.564 24.5138C27.564 26.0668 26.305 27.3258 24.752 27.3258Z" stroke="#0097B2" stroke-width="1.5" stroke-miterlimit="10" stroke-linecap="round" stroke-linejoin="round"/>
<path d="M18.8672 9.72578C20.654 8.8917 22.6467 8.42578 24.7483 8.42578C26.8499 8.42578 28.8427 8.8917 30.6295 9.72578" stroke="#B0E867" stroke-width="1.5" stroke-miterlimit="10" stroke-linecap="round" stroke-linejoin="round"/>
<path d="M20.8263 10.566L18.8672 9.72471L19.7085 7.76562" stroke="#B0E867" stroke-width="1.5" stroke-miterlimit="10" stroke-linecap="round" stroke-linejoin="round"/>
<path d="M9.96406 30.3951C9.12998 28.6083 8.66406 26.6155 8.66406 24.514C8.66406 22.4124 9.12998 20.4196 9.96406 18.6328" stroke="#B0E867" stroke-width="1.5" stroke-miterlimit="10" stroke-linecap="round" stroke-linejoin="round"/>
<path d="M10.8004 28.4336L9.95909 30.3928L8 29.5514" stroke="#B0E867" stroke-width="1.5" stroke-miterlimit="10" stroke-linecap="round" stroke-linejoin="round"/>
<path d="M30.6295 39.3008C28.8428 40.1348 26.85 40.6008 24.7483 40.6008C22.6467 40.6008 20.654 40.1349 18.8672 39.3008" stroke="#B0E867" stroke-width="1.5" stroke-miterlimit="10" stroke-linecap="round" stroke-linejoin="round"/>
<path d="M28.6719 38.4609L30.631 39.3022L29.7897 41.2613" stroke="#B0E867" stroke-width="1.5" stroke-miterlimit="10" stroke-linecap="round" stroke-linejoin="round"/>
<path d="M39.5391 18.6328C40.3731 20.4195 40.8391 22.4123 40.8391 24.514C40.8391 26.6156 40.3731 28.6083 39.5391 30.3951" stroke="#B0E867" stroke-width="1.5" stroke-miterlimit="10" stroke-linecap="round" stroke-linejoin="round"/>
<path d="M38.6953 20.592L39.5366 18.6328L41.4957 19.4742" stroke="#B0E867" stroke-width="1.5" stroke-miterlimit="10" stroke-linecap="round" stroke-linejoin="round"/>
</svg>
