<svg width="50" height="50" viewBox="0 0 50 50" fill="none" xmlns="http://www.w3.org/2000/svg">
<path d="M14.4106 12.2091C14.6553 12.0786 14.8889 11.9378 15.105 11.7806C16.5345 10.7402 17.5175 8.71155 19.2349 8.15393C20.892 7.61583 22.872 8.66166 24.7084 8.66166C26.5448 8.66166 28.5249 7.61583 30.1819 8.15385C31.8993 8.71147 32.8824 10.7402 34.3119 11.7806C35.7557 12.8313 37.9849 13.1466 39.0357 14.5904C40.0761 16.0199 39.6938 18.2322 40.2515 19.9496C40.7895 21.6067 42.4169 23.1636 42.4169 25C42.4169 26.8364 40.7895 28.3934 40.2515 30.0504C39.6938 31.7678 40.0761 33.9802 39.0357 35.4097C37.9849 36.8535 35.7557 37.1688 34.3119 38.2195C32.8824 39.2598 31.8993 41.2885 30.1819 41.8461C28.5249 42.3842 26.5448 41.3384 24.7084 41.3384C22.872 41.3384 20.892 42.3842 19.2349 41.8461C17.5175 41.2885 16.5345 39.2598 15.105 38.2195C13.6612 37.1688 11.432 36.8535 10.3812 35.4097C9.34079 33.9802 9.72304 31.7678 9.16549 30.0504C8.62739 28.3934 7 26.8364 7 25C7 23.1636 8.62739 21.6067 9.16542 19.9497C9.72304 18.2322 9.34079 16.0199 10.3812 14.5904C10.803 14.0108 11.4146 13.613 12.0892 13.2766" stroke="#0097B2" stroke-width="1.5" stroke-miterlimit="10" stroke-linecap="round" stroke-linejoin="round"/>
<path d="M39.0622 25.0002C39.0622 26.489 37.7429 27.7511 37.3068 29.0943C36.8547 30.4865 37.1646 32.28 36.3213 33.4388C35.4694 34.6093 33.6623 34.8648 32.4919 35.7166C31.333 36.56 30.5361 38.2045 29.144 38.6565C27.8007 39.0927 26.1955 38.2449 24.7069 38.2449C23.2182 38.2449 21.6131 39.0927 20.2698 38.6565C18.8776 38.2045 18.0807 36.56 16.9219 35.7166C15.7515 34.8648 13.9443 34.6093 13.0925 33.4388C12.2492 32.28 12.559 30.4866 12.107 29.0943C11.6708 27.7511 10.3516 26.489 10.3516 25.0002C10.3516 23.5116 11.6708 22.2494 12.1069 20.9062C12.559 19.514 12.2492 17.7205 13.0925 16.5617C13.9443 15.3913 15.7515 15.1357 16.9219 14.284C18.0807 13.4406 18.8776 11.796 20.2698 11.344C21.6131 10.9078 23.2182 11.7556 24.7069 11.7556C26.1955 11.7556 27.8007 10.9078 29.144 11.344C30.5361 11.796 31.333 13.4406 32.4919 14.284C33.6623 15.1357 35.4694 15.3913 36.3213 16.5617C37.1646 17.7205 36.8547 19.514 37.3068 20.9061C37.7429 22.2494 39.0622 23.5116 39.0622 25.0002Z" stroke="#B0E867" stroke-width="1.5" stroke-miterlimit="10" stroke-linecap="round" stroke-linejoin="round"/>
<path d="M27.4019 27.8946L24.4054 30.8564C23.482 31.8259 21.9195 31.7729 21.0637 30.7432L18.4104 27.5508C18.01 27.069 18.0759 26.3537 18.5578 25.9533L19.3016 25.3351C19.7834 24.9346 20.4986 25.0006 20.8991 25.4824L22.2358 27.0908C22.5553 27.4751 23.1384 27.495 23.4831 27.133L30.3168 20.4656C30.7489 20.0119 31.4669 19.9946 31.9206 20.4267L32.6209 21.0938C33.0745 21.5259 33.0919 22.2439 32.6598 22.6976L29.0319 26.2835" stroke="#0097B2" stroke-width="1.5" stroke-miterlimit="10" stroke-linecap="round" stroke-linejoin="round"/>
</svg>
