<svg width="511" height="201" viewBox="0 0 511 201" fill="none" xmlns="http://www.w3.org/2000/svg">
<mask id="mask0_4_2469" style="mask-type:alpha" maskUnits="userSpaceOnUse" x="0" y="0" width="511" height="201">
<path d="M0 11C0 4.92487 4.92487 0 11 0H500C506.075 0 511 4.92487 511 11V201H0V11Z" fill="white"/>
</mask>
<g mask="url(#mask0_4_2469)">
<rect y="-68" width="510" height="357" rx="16.575" fill="white"/>
<rect x="48.4492" y="-38.6748" width="411.4" height="411.4" rx="205.7" fill="#EFFDFF"/>
<rect x="130.898" y="43.7754" width="246.5" height="246.5" rx="123.25" fill="#D3F1F5"/>
<rect x="220.57" y="128.351" width="68" height="68" rx="33.7875" fill="#0097B2"/>
<rect x="213.564" y="121.338" width="82.025" height="82.025" rx="41.0125" stroke="#0097B2" stroke-width="0.425"/>
<rect x="205.06" y="112.837" width="99.025" height="99.025" rx="49.5125" stroke="#0097B2" stroke-width="0.425"/>
<path d="M327.888 109.437L291.551 128.562" stroke="url(#paint0_linear_4_2469)" stroke-width="0.425"/>
<path d="M255.848 48.4502V110.925" stroke="url(#paint1_linear_4_2469)" stroke-width="0.425"/>
<path d="M178.496 109.862L218.446 126.862" stroke="url(#paint2_linear_4_2469)" stroke-width="0.425"/>
<rect x="44.2125" y="90.2125" width="133.575" height="38.575" rx="19.2875" fill="white" stroke="#0097B2" stroke-width="0.425"/>
<rect x="187.209" y="10.2125" width="130.475" height="35.7" rx="17.85" fill="white" stroke="#0097B2" stroke-width="0.425"/>
<rect x="328.212" y="90.2125" width="127.575" height="37.575" rx="18.7875" fill="white" stroke="#0097B2" stroke-width="0.425"/>
<rect x="46.5328" y="200.388" width="116.45" height="38.675" rx="19.3375" fill="white" stroke="#0097B2" stroke-width="0.425"/>
<rect x="328.31" y="200.388" width="152.15" height="38.25" rx="19.125" fill="white" stroke="#0097B2" stroke-width="0.425"/>
<path d="M234.179 30.8648C234.179 30.493 234.052 30.2008 233.8 29.9883C233.548 29.7714 233.129 29.5876 232.545 29.4371L231.277 29.1117C230.387 28.8859 229.725 28.5539 229.291 28.1156C228.857 27.6729 228.64 27.1107 228.64 26.4289C228.64 25.663 228.955 25.0255 229.583 24.5164C230.216 24.0073 231.009 23.7527 231.961 23.7527C232.594 23.7527 233.167 23.8612 233.68 24.0781C234.194 24.2951 234.612 24.6227 234.936 25.0609C235.259 25.4992 235.436 26.0194 235.467 26.6215H233.793C233.754 26.1212 233.57 25.7405 233.242 25.4793C232.915 25.2137 232.487 25.0809 231.961 25.0809C231.407 25.0809 230.987 25.2092 230.699 25.466C230.415 25.7228 230.274 26.0305 230.274 26.3891C230.274 26.7255 230.393 26.9956 230.632 27.1992C230.871 27.4029 231.259 27.5733 231.795 27.7105L233.209 28.0891C234.081 28.3237 234.732 28.6602 235.161 29.0984C235.591 29.5367 235.805 30.0923 235.805 30.7652C235.805 31.5754 235.465 32.2527 234.783 32.7973C234.101 33.3374 233.227 33.6074 232.16 33.6074C231.035 33.6074 230.13 33.3152 229.444 32.7309C228.762 32.1421 228.395 31.3474 228.341 30.3469H229.988C230.033 30.9622 230.252 31.4359 230.646 31.768C231.044 32.1 231.549 32.266 232.16 32.266C232.749 32.266 233.231 32.1398 233.607 31.8875C233.988 31.6307 234.179 31.2898 234.179 30.8648ZM240.905 29.477C241.021 29.4637 241.111 29.4172 241.178 29.3375C241.249 29.2578 241.284 29.1626 241.284 29.052V28.959C241.284 28.6181 241.171 28.3525 240.945 28.1621C240.72 27.9673 240.407 27.8699 240.009 27.8699C239.593 27.8699 239.259 27.9695 239.006 28.1688C238.758 28.368 238.634 28.6402 238.634 28.9855H237.14C237.14 28.3259 237.406 27.7924 237.937 27.3852C238.473 26.9734 239.163 26.7676 240.009 26.7676C240.908 26.7676 241.594 26.9757 242.068 27.3918C242.546 27.8035 242.785 28.4034 242.785 29.1914V33.4746H241.344V32.3988C241.18 32.7574 240.894 33.0496 240.487 33.2754C240.084 33.4967 239.622 33.6074 239.099 33.6074C238.457 33.6074 237.928 33.4281 237.512 33.0695C237.1 32.7109 236.895 32.2527 236.895 31.6949C236.895 31.1504 237.072 30.7077 237.426 30.3668C237.78 30.0259 238.3 29.8112 238.986 29.7227L240.905 29.477ZM238.389 31.5023C238.389 31.7857 238.49 32.0137 238.694 32.1863C238.902 32.3546 239.181 32.4387 239.531 32.4387C240.075 32.4387 240.514 32.2793 240.846 31.9605C241.178 31.6374 241.344 31.2301 241.344 30.7387V30.2672C241.233 30.3336 240.965 30.3956 240.54 30.4531L239.371 30.5926C239.057 30.628 238.814 30.7232 238.641 30.8781C238.473 31.0331 238.389 31.2411 238.389 31.5023ZM246.039 23.8855V33.4746H244.538V23.8855H246.039ZM252.414 31.3563H253.908C253.766 32.0602 253.423 32.6113 252.879 33.0098C252.338 33.4082 251.663 33.6074 250.853 33.6074C249.879 33.6074 249.082 33.2887 248.462 32.6512C247.843 32.0137 247.533 31.1902 247.533 30.1809C247.533 29.1803 247.836 28.3613 248.443 27.7238C249.049 27.0863 249.828 26.7676 250.78 26.7676C251.705 26.7676 252.46 27.0664 253.045 27.6641C253.629 28.2617 253.921 29.0342 253.921 29.9816C253.921 30.2384 253.908 30.4199 253.881 30.5262H249.04C249.04 31.0618 249.213 31.5068 249.558 31.8609C249.904 32.2107 250.331 32.3855 250.84 32.3855C251.26 32.3855 251.608 32.297 251.882 32.1199C252.161 31.9384 252.338 31.6839 252.414 31.3563ZM252.414 29.5965C252.4 29.1228 252.241 28.7376 251.936 28.441C251.635 28.1444 251.249 27.9961 250.78 27.9961C250.302 27.9961 249.904 28.1444 249.585 28.441C249.266 28.7376 249.093 29.1228 249.067 29.5965H252.414ZM255.01 31.3961H256.491C256.495 31.7281 256.613 31.9915 256.843 32.1863C257.073 32.3811 257.379 32.4785 257.759 32.4785C258.105 32.4785 258.377 32.4077 258.576 32.266C258.775 32.1243 258.875 31.934 258.875 31.6949C258.875 31.4824 258.8 31.3053 258.649 31.1637C258.503 31.0176 258.264 30.9003 257.932 30.8117L257.115 30.5926C255.783 30.2296 255.116 29.5766 255.116 28.6336C255.116 28.0802 255.347 27.6309 255.807 27.2855C256.267 26.9402 256.876 26.7676 257.633 26.7676C258.399 26.7676 259.023 26.9602 259.506 27.3453C259.988 27.726 260.243 28.2329 260.27 28.866H258.789C258.784 28.5694 258.676 28.3348 258.463 28.1621C258.251 27.985 257.974 27.8965 257.633 27.8965C257.328 27.8965 257.084 27.9607 256.903 28.0891C256.721 28.2174 256.63 28.3857 256.63 28.5938C256.63 28.7841 256.699 28.9413 256.836 29.0652C256.974 29.1848 257.213 29.291 257.554 29.384L258.344 29.5965C259.703 29.9507 260.382 30.6368 260.382 31.6551C260.382 32.2439 260.141 32.7176 259.659 33.0762C259.18 33.4303 258.539 33.6074 257.733 33.6074C256.892 33.6074 256.228 33.4082 255.741 33.0098C255.254 32.6069 255.01 32.069 255.01 31.3961ZM272.475 26.6348C272.475 27.197 272.342 27.6818 272.077 28.0891C271.811 28.4964 271.446 28.7509 270.981 28.8527V28.9723C271.455 29.0033 271.807 29.1715 272.037 29.477C272.267 29.7824 272.382 30.1941 272.382 30.7121V33.4613H270.775V31.0375C270.775 30.5151 270.653 30.1432 270.41 29.9219C270.166 29.6961 269.761 29.5832 269.195 29.5832H266.684V33.4613H265.077V23.8855H269.294C270.312 23.8855 271.096 24.1313 271.645 24.6227C272.198 25.1141 272.475 25.7848 272.475 26.6348ZM269.088 25.2336H266.684V28.3746H269.088C269.642 28.3746 270.067 28.2374 270.363 27.9629C270.664 27.684 270.815 27.2855 270.815 26.7676C270.815 25.7449 270.239 25.2336 269.088 25.2336ZM278.657 31.3563H280.152C280.01 32.0602 279.667 32.6113 279.122 33.0098C278.582 33.4082 277.907 33.6074 277.097 33.6074C276.123 33.6074 275.326 33.2887 274.706 32.6512C274.086 32.0137 273.777 31.1902 273.777 30.1809C273.777 29.1803 274.08 28.3613 274.686 27.7238C275.293 27.0863 276.072 26.7676 277.024 26.7676C277.949 26.7676 278.704 27.0664 279.288 27.6641C279.873 28.2617 280.165 29.0342 280.165 29.9816C280.165 30.2384 280.152 30.4199 280.125 30.5262H275.284C275.284 31.0618 275.457 31.5068 275.802 31.8609C276.147 32.2107 276.574 32.3855 277.084 32.3855C277.504 32.3855 277.852 32.297 278.126 32.1199C278.405 31.9384 278.582 31.6839 278.657 31.3563ZM278.657 29.5965C278.644 29.1228 278.485 28.7376 278.179 28.441C277.878 28.1444 277.493 27.9961 277.024 27.9961C276.546 27.9961 276.147 28.1444 275.829 28.441C275.51 28.7376 275.337 29.1228 275.311 29.5965H278.657ZM282.243 26.482V25.0941H283.658V26.8672H285.431V28.1289H283.591V30.8648C283.591 31.3474 283.678 31.6839 283.85 31.8742C284.023 32.0602 284.335 32.1531 284.787 32.1531H285.524V33.4215C285.072 33.4569 284.718 33.4746 284.461 33.4746C283.678 33.4746 283.093 33.282 282.708 32.8969C282.327 32.5117 282.137 31.9251 282.137 31.1371V28.1289H280.776V26.8672H281.878C281.989 26.8672 282.077 26.8318 282.144 26.7609C282.21 26.6901 282.243 26.5971 282.243 26.482ZM291.275 30.4664V26.8805H292.769V30.4C292.769 31.4138 292.512 32.2018 291.998 32.7641C291.489 33.3263 290.732 33.6074 289.727 33.6074C288.727 33.6074 287.968 33.3241 287.45 32.7574C286.936 32.1908 286.679 31.4182 286.679 30.4398V26.8805H288.173V30.493C288.173 31.0906 288.304 31.5422 288.565 31.8477C288.826 32.1531 289.209 32.3059 289.714 32.3059C290.232 32.3059 290.622 32.1576 290.883 31.8609C291.144 31.5643 291.275 31.0995 291.275 30.4664ZM296.043 30.566V33.4746H294.542V26.8805H295.983V28.4809C296.062 28.0027 296.286 27.6176 296.654 27.3254C297.021 27.0288 297.479 26.8805 298.028 26.8805H298.666L298.612 28.2219H298.095C297.43 28.2219 296.921 28.4189 296.567 28.8129C296.217 29.2069 296.043 29.7913 296.043 30.566ZM301.395 30.0082V33.4746H299.894V26.8805H301.335V27.8301C301.574 27.4892 301.877 27.228 302.245 27.0465C302.617 26.8605 303.026 26.7676 303.473 26.7676C304.275 26.7676 304.906 27.0288 305.366 27.5512C305.826 28.0736 306.057 28.8018 306.057 29.7359V33.4746H304.562V29.8023C304.562 29.2224 304.434 28.7885 304.177 28.5008C303.925 28.2086 303.569 28.0625 303.108 28.0625C302.577 28.0625 302.159 28.2352 301.853 28.5805C301.548 28.9214 301.395 29.3973 301.395 30.0082Z" fill="black"/>
<path d="M369.007 114.649V105.06H372.248C373.731 105.06 374.88 105.481 375.694 106.322C376.513 107.159 376.923 108.325 376.923 109.822C376.923 111.318 376.513 112.498 375.694 113.361C374.88 114.22 373.735 114.649 372.261 114.649H369.007ZM375.575 109.822C375.575 107.409 374.455 106.203 372.214 106.203H370.315V113.507H372.201C374.45 113.507 375.575 112.279 375.575 109.822ZM383.152 112.558H384.387C384.236 113.253 383.898 113.797 383.371 114.191C382.848 114.585 382.191 114.782 381.398 114.782C380.464 114.782 379.69 114.461 379.074 113.819C378.463 113.173 378.158 112.356 378.158 111.369C378.158 110.364 378.454 109.541 379.048 108.899C379.641 108.252 380.4 107.929 381.325 107.929C382.242 107.929 382.983 108.228 383.55 108.826C384.117 109.419 384.4 110.196 384.4 111.156C384.4 111.409 384.387 111.575 384.36 111.654H379.4C379.4 112.243 379.594 112.739 379.984 113.142C380.374 113.54 380.845 113.74 381.398 113.74C381.877 113.74 382.268 113.638 382.574 113.434C382.884 113.226 383.076 112.934 383.152 112.558ZM383.165 110.811C383.156 110.267 382.983 109.826 382.647 109.49C382.31 109.149 381.874 108.978 381.339 108.978C380.799 108.978 380.351 109.149 379.997 109.49C379.643 109.826 379.453 110.267 379.426 110.811H383.165ZM392.668 111.369C392.668 112.352 392.375 113.166 391.791 113.813C391.207 114.459 390.452 114.782 389.527 114.782C389.044 114.782 388.601 114.674 388.198 114.457C387.8 114.235 387.486 113.937 387.255 113.56V114.649H386.087V105.06H387.309V109.158C387.557 108.777 387.88 108.48 388.278 108.268C388.677 108.051 389.11 107.942 389.58 107.942C390.456 107.942 391.189 108.27 391.778 108.925C392.371 109.58 392.668 110.395 392.668 111.369ZM391.432 111.369C391.432 110.678 391.244 110.116 390.868 109.682C390.492 109.248 390.014 109.031 389.434 109.031C388.849 109.031 388.351 109.246 387.939 109.676C387.528 110.101 387.322 110.634 387.322 111.276V111.415C387.322 112.075 387.514 112.622 387.9 113.056C388.289 113.485 388.785 113.7 389.387 113.7C389.976 113.7 390.463 113.483 390.848 113.049C391.238 112.615 391.432 112.055 391.432 111.369ZM395.583 105.06V106.528H394.308V105.06H395.583ZM395.57 108.055V114.649H394.348V108.055H395.57ZM398.212 107.73V106.282H399.368V108.055H401.214V109.085H399.302V112.212C399.302 112.717 399.388 113.069 399.561 113.268C399.738 113.463 400.054 113.56 400.51 113.56H401.3V114.61C401.039 114.636 400.72 114.649 400.344 114.649C399.569 114.649 399.001 114.466 398.637 114.098C398.279 113.726 398.1 113.144 398.1 112.352V109.085H396.712V108.055H397.887C397.989 108.055 398.069 108.026 398.126 107.969C398.184 107.907 398.212 107.827 398.212 107.73ZM407.516 107.019L407.463 106.628H407.357V114.649H406.048V105.06H407.669L412.47 112.677L412.523 113.142H412.643V105.06H413.951V114.649H412.317L407.516 107.019ZM415.717 111.369C415.717 110.36 416.016 109.536 416.614 108.899C417.211 108.261 418.015 107.942 419.024 107.942C420.011 107.942 420.804 108.263 421.402 108.905C421.999 109.547 422.298 110.368 422.298 111.369C422.298 112.02 422.165 112.604 421.9 113.122C421.634 113.636 421.251 114.041 420.751 114.337C420.255 114.634 419.679 114.782 419.024 114.782C418.037 114.782 417.238 114.461 416.627 113.819C416.02 113.177 415.717 112.361 415.717 111.369ZM416.972 111.369C416.972 112.042 417.158 112.6 417.53 113.042C417.902 113.481 418.4 113.7 419.024 113.7C419.635 113.7 420.124 113.478 420.492 113.036C420.864 112.593 421.05 112.037 421.05 111.369C421.05 110.696 420.864 110.138 420.492 109.696C420.124 109.253 419.635 109.031 419.024 109.031C418.391 109.031 417.891 109.253 417.523 109.696C417.156 110.134 416.972 110.692 416.972 111.369ZM424.523 107.73V106.282H425.678V108.055H427.524V109.085H425.612V112.212C425.612 112.717 425.698 113.069 425.871 113.268C426.048 113.463 426.364 113.56 426.82 113.56H427.611V114.61C427.349 114.636 427.031 114.649 426.654 114.649C425.88 114.649 425.311 114.466 424.948 114.098C424.589 113.726 424.41 113.144 424.41 112.352V109.085H423.022V108.055H424.197C424.299 108.055 424.379 108.026 424.436 107.969C424.494 107.907 424.523 107.827 424.523 107.73ZM433.434 112.558H434.67C434.519 113.253 434.18 113.797 433.654 114.191C433.131 114.585 432.474 114.782 431.681 114.782C430.747 114.782 429.972 114.461 429.357 113.819C428.746 113.173 428.441 112.356 428.441 111.369C428.441 110.364 428.737 109.541 429.33 108.899C429.924 108.252 430.683 107.929 431.608 107.929C432.525 107.929 433.266 108.228 433.833 108.826C434.399 109.419 434.683 110.196 434.683 111.156C434.683 111.409 434.67 111.575 434.643 111.654H429.682C429.682 112.243 429.877 112.739 430.267 113.142C430.656 113.54 431.128 113.74 431.681 113.74C432.159 113.74 432.551 113.638 432.857 113.434C433.167 113.226 433.359 112.934 433.434 112.558ZM433.448 110.811C433.439 110.267 433.266 109.826 432.93 109.49C432.593 109.149 432.157 108.978 431.621 108.978C431.081 108.978 430.634 109.149 430.28 109.49C429.926 109.826 429.736 110.267 429.709 110.811H433.448ZM435.905 112.597H437.113C437.127 112.965 437.264 113.259 437.525 113.481C437.786 113.698 438.14 113.806 438.587 113.806C438.986 113.806 439.302 113.722 439.537 113.554C439.772 113.385 439.889 113.162 439.889 112.883C439.889 112.648 439.809 112.449 439.65 112.285C439.495 112.122 439.236 111.993 438.873 111.9L437.97 111.654C437.306 111.482 436.817 111.243 436.502 110.937C436.188 110.627 436.031 110.242 436.031 109.782C436.031 109.242 436.254 108.801 436.702 108.46C437.153 108.115 437.74 107.942 438.461 107.942C439.205 107.942 439.809 108.135 440.274 108.52C440.743 108.901 440.991 109.403 441.018 110.028H439.809C439.796 109.696 439.668 109.43 439.424 109.231C439.181 109.027 438.86 108.925 438.461 108.925C438.098 108.925 437.811 108.998 437.598 109.144C437.386 109.29 437.279 109.485 437.279 109.729C437.279 109.954 437.357 110.138 437.512 110.28C437.667 110.417 437.934 110.537 438.315 110.638L439.185 110.871C439.831 111.044 440.318 111.3 440.646 111.641C440.978 111.978 441.144 112.383 441.144 112.856C441.144 113.432 440.907 113.897 440.434 114.251C439.96 114.605 439.336 114.782 438.561 114.782C437.755 114.782 437.111 114.581 436.629 114.178C436.146 113.775 435.905 113.248 435.905 112.597Z" fill="black"/>
<path d="M91.3387 110.633H92.7C92.5583 111.762 92.0891 112.665 91.2922 113.342C90.4953 114.02 89.5081 114.358 88.3305 114.358C87.6221 114.358 86.9758 114.23 86.3914 113.973C85.807 113.716 85.3201 113.367 84.9305 112.924C84.5409 112.481 84.2398 111.961 84.0273 111.363C83.8148 110.766 83.7086 110.124 83.7086 109.438C83.7086 108.751 83.8126 108.11 84.0207 107.512C84.2332 106.914 84.532 106.392 84.9172 105.945C85.3068 105.498 85.7915 105.146 86.3715 104.889C86.9559 104.632 87.6 104.504 88.3039 104.504C88.906 104.504 89.4572 104.597 89.9574 104.783C90.4621 104.969 90.8871 105.228 91.2324 105.56C91.5822 105.887 91.8677 106.272 92.0891 106.715C92.3104 107.153 92.4587 107.631 92.534 108.149H91.1926C91.0642 107.415 90.7432 106.819 90.2297 106.363C89.7206 105.903 89.0742 105.672 88.2906 105.672C87.7815 105.672 87.3189 105.772 86.9027 105.971C86.491 106.171 86.1523 106.443 85.8867 106.788C85.6211 107.129 85.4152 107.525 85.2691 107.977C85.1275 108.424 85.0566 108.902 85.0566 109.411C85.0566 109.938 85.1275 110.429 85.2691 110.885C85.4152 111.341 85.6233 111.742 85.8934 112.087C86.1634 112.428 86.5065 112.698 86.9227 112.897C87.3388 113.092 87.8036 113.19 88.3172 113.19C89.1406 113.19 89.8224 112.964 90.3625 112.512C90.9026 112.056 91.228 111.43 91.3387 110.633ZM95.6219 111.178V114.226H94.4V107.631H95.5687V109.232C95.644 108.763 95.8676 108.38 96.2395 108.083C96.6158 107.782 97.0673 107.631 97.5941 107.631H98.2914L98.2449 108.734H97.7203C97.0518 108.734 96.5339 108.942 96.1664 109.358C95.8034 109.774 95.6219 110.381 95.6219 111.178ZM103.75 112.134H104.985C104.835 112.829 104.496 113.373 103.969 113.767C103.447 114.161 102.789 114.358 101.997 114.358C101.063 114.358 100.288 114.037 99.6727 113.396C99.0617 112.749 98.7562 111.932 98.7562 110.945C98.7562 109.94 99.0529 109.117 99.6461 108.475C100.239 107.828 100.999 107.505 101.924 107.505C102.84 107.505 103.582 107.804 104.148 108.402C104.715 108.995 104.998 109.772 104.998 110.733C104.998 110.985 104.985 111.151 104.959 111.231H99.998C99.998 111.819 100.193 112.315 100.582 112.718C100.972 113.117 101.443 113.316 101.997 113.316C102.475 113.316 102.867 113.214 103.172 113.01C103.482 112.802 103.675 112.51 103.75 112.134ZM103.763 110.387C103.754 109.843 103.582 109.402 103.245 109.066C102.909 108.725 102.473 108.554 101.937 108.554C101.397 108.554 100.95 108.725 100.596 109.066C100.242 109.402 100.051 109.843 100.025 110.387H103.763ZM107.104 113.409C106.515 112.771 106.22 111.95 106.22 110.945C106.22 109.94 106.517 109.119 107.11 108.481C107.703 107.84 108.445 107.519 109.335 107.519C109.795 107.519 110.238 107.627 110.663 107.844C111.092 108.061 111.407 108.353 111.606 108.721V104.637H112.828V114.226H111.659V113.044C111.46 113.446 111.143 113.767 110.709 114.006C110.28 114.241 109.817 114.358 109.321 114.358C108.432 114.358 107.692 114.042 107.104 113.409ZM107.475 110.945C107.475 111.653 107.664 112.22 108.04 112.645C108.421 113.066 108.916 113.276 109.527 113.276C110.129 113.276 110.623 113.05 111.008 112.599C111.398 112.143 111.593 111.583 111.593 110.919V110.786C111.593 110.188 111.393 109.677 110.995 109.252C110.601 108.822 110.112 108.608 109.527 108.608C108.921 108.608 108.427 108.822 108.046 109.252C107.666 109.677 107.475 110.241 107.475 110.945ZM116.195 104.637V106.104H114.92V104.637H116.195ZM116.181 107.631V114.226H114.959V107.631H116.181ZM118.824 107.306V105.858H119.98V107.631H121.826V108.661H119.913V111.788C119.913 112.293 120 112.645 120.172 112.844C120.349 113.039 120.666 113.137 121.122 113.137H121.912V114.186C121.651 114.212 121.332 114.226 120.956 114.226C120.181 114.226 119.612 114.042 119.249 113.674C118.891 113.303 118.711 112.72 118.711 111.928V108.661H117.323V107.631H118.499C118.601 107.631 118.68 107.603 118.738 107.545C118.795 107.483 118.824 107.403 118.824 107.306ZM128.128 106.596L128.075 106.204H127.968V114.226H126.66V104.637H128.28L133.082 112.253L133.135 112.718H133.254V104.637H134.562V114.226H132.929L128.128 106.596ZM136.329 110.945C136.329 109.936 136.628 109.112 137.225 108.475C137.823 107.837 138.627 107.519 139.636 107.519C140.623 107.519 141.416 107.84 142.013 108.481C142.611 109.123 142.91 109.945 142.91 110.945C142.91 111.596 142.777 112.18 142.511 112.698C142.246 113.212 141.863 113.617 141.362 113.913C140.867 114.21 140.291 114.358 139.636 114.358C138.649 114.358 137.85 114.037 137.239 113.396C136.632 112.754 136.329 111.937 136.329 110.945ZM137.584 110.945C137.584 111.618 137.77 112.176 138.142 112.619C138.514 113.057 139.012 113.276 139.636 113.276C140.247 113.276 140.736 113.055 141.104 112.612C141.475 112.169 141.661 111.614 141.661 110.945C141.661 110.272 141.475 109.714 141.104 109.272C140.736 108.829 140.247 108.608 139.636 108.608C139.003 108.608 138.503 108.829 138.135 109.272C137.768 109.71 137.584 110.268 137.584 110.945ZM145.134 107.306V105.858H146.29V107.631H148.136V108.661H146.223V111.788C146.223 112.293 146.31 112.645 146.482 112.844C146.659 113.039 146.976 113.137 147.432 113.137H148.222V114.186C147.961 114.212 147.642 114.226 147.266 114.226C146.491 114.226 145.922 114.042 145.559 113.674C145.201 113.303 145.021 112.72 145.021 111.928V108.661H143.634V107.631H144.809C144.911 107.631 144.99 107.603 145.048 107.545C145.106 107.483 145.134 107.403 145.134 107.306ZM154.046 112.134H155.281C155.131 112.829 154.792 113.373 154.265 113.767C153.743 114.161 153.085 114.358 152.293 114.358C151.359 114.358 150.584 114.037 149.969 113.396C149.358 112.749 149.052 111.932 149.052 110.945C149.052 109.94 149.349 109.117 149.942 108.475C150.535 107.828 151.295 107.505 152.22 107.505C153.136 107.505 153.878 107.804 154.445 108.402C155.011 108.995 155.295 109.772 155.295 110.733C155.295 110.985 155.281 111.151 155.255 111.231H150.294C150.294 111.819 150.489 112.315 150.879 112.718C151.268 113.117 151.74 113.316 152.293 113.316C152.771 113.316 153.163 113.214 153.468 113.01C153.778 112.802 153.971 112.51 154.046 112.134ZM154.059 110.387C154.051 109.843 153.878 109.402 153.541 109.066C153.205 108.725 152.769 108.554 152.233 108.554C151.693 108.554 151.246 108.725 150.892 109.066C150.538 109.402 150.347 109.843 150.321 110.387H154.059ZM156.516 112.174H157.725C157.738 112.541 157.876 112.835 158.137 113.057C158.398 113.274 158.752 113.382 159.199 113.382C159.598 113.382 159.914 113.298 160.149 113.13C160.383 112.962 160.501 112.738 160.501 112.459C160.501 112.225 160.421 112.025 160.262 111.862C160.107 111.698 159.848 111.569 159.485 111.476L158.582 111.231C157.918 111.058 157.428 110.819 157.114 110.513C156.8 110.204 156.643 109.818 156.643 109.358C156.643 108.818 156.866 108.377 157.313 108.037C157.765 107.691 158.351 107.519 159.073 107.519C159.817 107.519 160.421 107.711 160.886 108.096C161.355 108.477 161.603 108.979 161.63 109.604H160.421C160.408 109.272 160.279 109.006 160.036 108.807C159.792 108.603 159.471 108.501 159.073 108.501C158.71 108.501 158.422 108.574 158.21 108.721C157.997 108.867 157.891 109.061 157.891 109.305C157.891 109.531 157.968 109.714 158.123 109.856C158.278 109.993 158.546 110.113 158.927 110.215L159.797 110.447C160.443 110.62 160.93 110.876 161.258 111.217C161.59 111.554 161.756 111.959 161.756 112.433C161.756 113.008 161.519 113.473 161.045 113.827C160.572 114.181 159.947 114.358 159.173 114.358C158.367 114.358 157.723 114.157 157.24 113.754C156.758 113.351 156.516 112.824 156.516 112.174Z" fill="black"/>
</g>
<rect x="340" y="98" width="22" height="22" rx="9" fill="#0097B2"/>
<rect x="56" y="98" width="22" height="22" rx="9" fill="#0097B2"/>
<rect x="199" y="17" width="22" height="22" rx="9" fill="#0097B2"/>
<path d="M209.465 20.667C205.715 20.667 202.664 23.7177 202.664 27.4675C202.664 31.2174 205.715 34.2681 209.465 34.2681C213.214 34.2681 216.265 31.2174 216.265 27.4675V26.1888" stroke="white" stroke-width="1.25" stroke-miterlimit="10" stroke-linecap="round" stroke-linejoin="round"/>
<path d="M217.993 27.3493L216.262 25.7227L214.531 27.3493" stroke="white" stroke-width="1.25" stroke-miterlimit="10" stroke-linecap="round" stroke-linejoin="round"/>
<path d="M72.0921 108.091H67.9109V103.909C67.9109 103.668 67.8151 103.437 67.6445 103.266C67.474 103.096 67.2427 103 67.0015 103C66.7603 103 66.529 103.096 66.3584 103.266C66.1879 103.437 66.0921 103.668 66.0921 103.909V108.091H61.9094C61.6682 108.091 61.4369 108.186 61.2664 108.357C61.0958 108.527 61 108.759 61 109C61 109.241 61.0958 109.473 61.2664 109.643C61.4369 109.814 61.6682 109.909 61.9094 109.909H66.0906V114.091C66.0906 114.332 66.1864 114.563 66.357 114.734C66.5275 114.904 66.7588 115 67 115C67.2412 115 67.4725 114.904 67.643 114.734C67.8136 114.563 67.9094 114.332 67.9094 114.091V109.909H72.0906C72.3318 109.909 72.5631 109.814 72.7336 109.643C72.9042 109.473 73 109.241 73 109C73 108.759 72.9042 108.527 72.7336 108.357C72.5631 108.186 72.3318 108.091 72.0906 108.091H72.0921Z" fill="white"/>
<path d="M351.911 108.091H356.091C356.332 108.091 356.563 108.187 356.734 108.357C356.904 108.528 357 108.759 357 109C357 109.241 356.904 109.473 356.734 109.643C356.563 109.814 356.332 109.91 356.091 109.91H351.909H350.091H345.909C345.668 109.91 345.437 109.814 345.266 109.643C345.096 109.473 345 109.241 345 109C345 108.759 345.096 108.528 345.266 108.357C345.437 108.187 345.668 108.091 345.909 108.091H350.092H351.911Z" fill="white"/>
<defs>
<linearGradient id="paint0_linear_4_2469" x1="309.72" y1="109.437" x2="309.72" y2="128.562" gradientUnits="userSpaceOnUse">
<stop stop-color="#0097B2"/>
<stop offset="1" stop-color="#0097B2" stop-opacity="0"/>
</linearGradient>
<linearGradient id="paint1_linear_4_2469" x1="256.348" y1="48.4502" x2="256.348" y2="110.925" gradientUnits="userSpaceOnUse">
<stop stop-color="#0097B2"/>
<stop offset="1" stop-color="#0097B2" stop-opacity="0"/>
</linearGradient>
<linearGradient id="paint2_linear_4_2469" x1="198.471" y1="109.862" x2="198.471" y2="126.862" gradientUnits="userSpaceOnUse">
<stop stop-color="#0097B2"/>
<stop offset="1" stop-color="#0097B2" stop-opacity="0"/>
</linearGradient>
</defs>
</svg>
