<svg width="48" height="46" viewBox="0 0 48 46" fill="none" xmlns="http://www.w3.org/2000/svg">
<path d="M37.063 4.58501L42.9874 10.2901L34.8052 18.1692L33.969 18.9745H35.1299H46.7284V27.0255H35.1299H33.969L34.8052 27.8308L42.9874 35.71L37.063 41.415L28.8553 33.5113L28.0625 32.7479V33.8485V45H19.6658V33.8485V32.7479L18.873 33.5113L10.6655 41.415L4.74092 35.7097L12.9231 27.8308L13.7593 27.0255H12.5983H1V18.9745H12.5984H13.7593L12.9231 18.1692L4.74092 10.2901L10.6655 4.58503L18.873 12.4886L19.6658 13.252V12.1515V1H28.0625V12.1515V13.252L28.8553 12.4886L37.063 4.58501Z" fill="#CDF8B2"/>
<path d="M37.063 4.58501L42.9874 10.2901L34.8052 18.1692L33.969 18.9745H35.1299H46.7284V27.0255H35.1299H33.969L34.8052 27.8308L42.9874 35.71L37.063 41.415L28.8553 33.5113L28.0625 32.7479V33.8485V45H19.6658V33.8485V32.7479L18.873 33.5113L10.6655 41.415L4.74092 35.7097L12.9231 27.8308L13.7593 27.0255H12.5983H1V18.9745H12.5984H13.7593L12.9231 18.1692L4.74092 10.2901L10.6655 4.58503L18.873 12.4886L19.6658 13.252V12.1515V1H28.0625V12.1515V13.252L28.8553 12.4886L37.063 4.58501Z" stroke="black"/>
</svg>
