<svg width="511" height="200" viewBox="0 0 511 200" fill="none" xmlns="http://www.w3.org/2000/svg">
<mask id="mask0_4_1522" style="mask-type:alpha" maskUnits="userSpaceOnUse" x="0" y="0" width="511" height="200">
<path d="M0 11C0 4.92487 4.92487 0 11 0H500C506.075 0 511 4.92487 511 11V200H0V11Z" fill="white"/>
</mask>
<g mask="url(#mask0_4_1522)">
<path d="M363.167 44.3727C362.448 41.2277 365.85 36.8727 369.858 35.0495C374.9 32.7564 379.584 35.067 380.185 35.376C380.37 34.0858 381.012 30.8688 383.674 28.135C384.402 27.3871 388.399 23.283 393.73 24.4589C397.498 25.2901 400.503 28.4441 401.459 32.4972C401.702 31.8158 402.354 30.2995 403.928 29.2532C404.354 28.9702 405.023 28.5033 405.912 28.4554C407.943 28.3463 409.522 30.342 410.019 31.0174C410.281 20.0147 418.976 11.2244 429.231 10.8048C438.413 10.429 447.019 16.8374 449.486 26.2971C450.353 25.9288 451.631 25.4663 453.226 25.1772C455.4 24.7829 460.874 23.7902 464.563 27.1385C467.774 30.0532 467.741 34.5413 467.708 35.5779C468.763 34.8803 471.136 33.5364 474.176 33.7368C478.818 34.0426 481.672 37.7268 482.92 39.3384C483.511 40.101 486.635 44.133 486.276 46.7629C484.536 59.5355 398.824 52.7397 386.56 51.7673C377.955 51.085 364.415 49.8324 363.167 44.3727Z" fill="#DAF4F9"/>
<path d="M200.518 45.9254C199.975 43.5496 202.545 40.26 205.573 38.8828C209.381 37.1505 212.92 38.8959 213.373 39.1293C213.513 38.1547 213.998 35.7247 216.009 33.6595C216.559 33.0946 219.578 29.9944 223.605 30.8826C226.452 31.5105 228.721 33.8931 229.444 36.9546C229.627 36.4399 230.12 35.2945 231.309 34.5041C231.631 34.2903 232.136 33.9376 232.808 33.9015C234.342 33.8191 235.535 35.3267 235.91 35.8368C236.108 27.5256 242.676 20.8855 250.422 20.5685C257.358 20.2846 263.859 25.1255 265.722 32.2711C266.378 31.993 267.343 31.6436 268.548 31.4252C270.19 31.1274 274.325 30.3774 277.111 32.9067C279.537 35.1084 279.512 38.4987 279.487 39.2817C280.284 38.7547 282.077 37.7397 284.373 37.8909C287.879 38.1219 290.035 40.9048 290.978 42.1224C291.425 42.6985 293.784 45.7441 293.513 47.7307C292.198 57.379 227.453 52.2454 218.189 51.5109C211.689 50.9957 201.461 50.0494 200.518 45.9254Z" fill="#DAF4F9"/>
<path d="M14.5183 135.925C13.975 133.55 16.545 130.26 19.5728 128.883C23.381 127.151 26.9197 128.896 27.3735 129.129C27.5131 128.155 27.998 125.725 30.0091 123.66C30.5591 123.095 33.5783 119.994 37.6051 120.883C40.4515 121.51 42.7212 123.893 43.444 126.955C43.6275 126.44 44.1196 125.294 45.3091 124.504C45.6309 124.29 46.1359 123.938 46.8077 123.901C48.3418 123.819 49.5348 125.327 49.91 125.837C50.1076 117.526 56.6757 110.885 64.4223 110.568C71.3579 110.285 77.8593 115.125 79.7222 122.271C80.3778 121.993 81.3432 121.644 82.5477 121.425C84.19 121.127 88.3251 120.377 91.1115 122.907C93.5371 125.108 93.5122 128.499 93.4868 129.282C94.284 128.755 96.0765 127.74 98.3731 127.891C101.879 128.122 104.035 130.905 104.978 132.122C105.425 132.698 107.784 135.744 107.513 137.731C106.198 147.379 41.4531 142.245 32.1887 141.511C25.6893 140.996 15.4614 140.049 14.5183 135.925Z" fill="#DAF4F9"/>
<path d="M116.77 14.4131C64.953 14.4131 64.867 88.0961 116.77 88.0961C168.584 88.0961 168.67 14.4131 116.77 14.4131Z" fill="#EBEBEB"/>
<path d="M148.28 58.1608C145.516 70.8378 135.005 81.8328 116.765 81.8328C73.6959 81.8328 73.7629 20.6758 116.765 20.6758C117.046 20.6758 117.328 20.6758 117.609 20.6908C77.1389 21.4328 77.3379 79.3488 118.403 79.3488C135.154 79.3498 145.135 69.6568 148.28 58.1608Z" fill="#DBDBDB"/>
<path d="M432.724 89.8781C398.131 100.573 363.538 53.9361 328.945 64.6291C335.013 52.9291 341.082 42.9931 347.15 34.2021C375.307 38.9761 403.464 68.4081 431.621 60.6622C431.989 70.4062 432.356 80.1451 432.724 89.8781Z" fill="#EBEBEB"/>
<path d="M398.206 71.3439C397.11 76.4659 389.892 77.6549 382.085 73.5169C374.28 69.4269 369.664 62.7219 371.772 58.2339C373.88 53.7029 381.092 53.0219 387.885 56.4819C394.678 59.9309 399.301 66.2689 398.206 71.3439Z" fill="#DBDBDB"/>
<path d="M363.285 53.6591C362.723 54.6871 360.665 54.8531 358.688 54.1291C356.711 53.4051 355.614 52.0401 356.238 50.9721C356.862 49.9061 358.92 49.5891 360.835 50.3551C362.749 51.1181 363.847 52.6341 363.285 53.6591Z" fill="#DBDBDB"/>
<path d="M414.131 75.7147C414.019 76.9657 412.324 77.7017 410.345 77.1997C408.365 76.7017 406.903 75.1977 407.077 73.9857C407.251 72.7687 408.946 72.2667 410.863 72.7277C412.779 73.1917 414.242 74.4607 414.131 75.7147Z" fill="#DBDBDB"/>
<path d="M349.702 34.7041C343.829 43.2281 337.957 52.7441 332.084 63.8121C331.037 64.0341 329.989 64.3051 328.941 64.6291C335.009 52.9291 341.076 42.9941 347.144 34.2041C347.997 34.3481 348.85 34.5161 349.702 34.7041Z" fill="#DBDBDB"/>
<path d="M432.724 89.8781C431.675 90.2021 430.626 90.4741 429.577 90.6961C429.405 80.8871 429.232 71.0771 429.059 61.2651C429.913 61.0971 430.767 60.8961 431.621 60.6611C431.989 70.4061 432.356 80.1451 432.724 89.8781Z" fill="#DBDBDB"/>
<path d="M432.651 88.0398C432.674 88.6528 432.696 89.2648 432.719 89.8778C398.127 100.57 363.534 53.9338 328.941 64.6278C329.323 63.8908 329.706 63.1618 330.088 62.4388C364.276 53.1078 398.463 98.5338 432.651 88.0398Z" fill="#DBDBDB"/>
<path d="M431.619 60.6622C431.643 61.2752 431.666 61.8882 431.689 62.5012C403.127 70.4182 374.565 40.0292 346.004 35.8742C346.385 35.3112 346.767 34.7542 347.148 34.2002C375.305 38.9752 403.462 68.4062 431.619 60.6622Z" fill="#DBDBDB"/>
<path d="M340.063 61.1696C337.774 61.1516 335.484 61.3306 333.195 61.7396C334.012 60.2276 334.829 58.7456 335.646 57.2916C339.339 56.9266 341.319 58.9656 340.063 61.1696Z" fill="#DBDBDB"/>
<path d="M429.473 84.751C429.496 86.116 429.52 87.481 429.543 88.846C427.253 89.329 424.962 89.576 422.672 89.62C422.731 87.336 425.773 85.529 429.473 84.751Z" fill="#DBDBDB"/>
<path d="M423.345 63.7832C425.261 63.7112 427.177 63.4962 429.093 63.1162C429.118 64.4802 429.142 65.8432 429.167 67.2062C425.894 67.8642 423.287 66.0412 423.345 63.7832Z" fill="#DBDBDB"/>
<path d="M346.145 39.9972C346.961 38.7522 347.778 37.5282 348.594 36.3242C350.504 36.7042 352.414 37.1932 354.325 37.7712C353.072 39.6402 349.413 40.4562 346.145 39.9972Z" fill="#DBDBDB"/>
<path d="M231.295 27.2061L93.2578 40.0713L109.707 216.562L247.744 203.697L231.295 27.2061Z" fill="white"/>
<path d="M247.736 203.697C247.677 203.752 109.662 216.638 109.603 216.679C109.555 216.684 93.0454 40.1277 93.0074 40.0947L92.9844 39.8467L93.2334 39.8237C93.3414 39.7727 231.311 27.0947 231.417 27.0557C231.453 27.1127 247.705 203.607 247.736 203.697ZM247.736 203.697L231.15 27.2217C232.158 27.3787 93.0064 40.3197 93.2794 40.3197L93.5044 40.0487L109.81 216.55C109.085 216.426 247.905 203.698 247.736 203.697Z" fill="#263238"/>
<path d="M118.855 104.384C150.57 100.939 186.207 97.6128 218.013 95.1438C186.298 98.5938 150.661 101.91 118.855 104.384Z" fill="#263238"/>
<path d="M119.445 110.72C151.16 107.275 186.797 103.949 218.603 101.48C186.888 104.929 151.251 108.246 119.445 110.72Z" fill="#263238"/>
<path d="M120.035 117.056C151.75 113.611 187.387 110.286 219.193 107.816C187.478 111.265 151.841 114.582 120.035 117.056Z" fill="#263238"/>
<path d="M120.629 123.392C152.344 119.947 187.981 116.622 219.787 114.152C188.072 117.602 152.434 120.918 120.629 123.392Z" fill="#263238"/>
<path d="M178.293 164.694C193.255 162.794 209.028 161.332 224.097 160.426C209.116 162.32 193.352 163.797 178.293 164.694Z" fill="#263238"/>
<path d="M178.883 171.031C193.845 169.131 209.618 167.669 224.687 166.763C209.707 168.656 193.942 170.133 178.883 171.031Z" fill="#263238"/>
<path d="M179.473 177.367C194.435 175.467 210.208 174.005 225.277 173.099C210.296 174.993 194.532 176.469 179.473 177.367Z" fill="#263238"/>
<path d="M180.062 183.703C195.024 181.803 210.798 180.341 225.867 179.435C210.886 181.329 195.122 182.805 180.062 183.703Z" fill="#263238"/>
<path d="M180.656 190.039C195.618 188.139 211.391 186.677 226.46 185.771C211.479 187.664 195.715 189.141 180.656 190.039Z" fill="#263238"/>
<path d="M121.219 129.73C139.785 127.505 160.265 125.593 178.922 124.353C160.357 126.581 139.876 128.485 121.219 129.73Z" fill="#263238"/>
<path d="M122.398 142.402C154.113 138.957 189.75 135.632 221.556 133.162C189.841 136.612 154.204 139.928 122.398 142.402Z" fill="#263238"/>
<path d="M122.988 148.738C154.703 145.293 190.34 141.967 222.146 139.498C190.431 142.948 154.793 146.265 122.988 148.738Z" fill="#263238"/>
<path d="M123.578 155.075C155.293 151.63 190.93 148.305 222.736 145.835C191.021 149.284 155.384 152.601 123.578 155.075Z" fill="#263238"/>
<path d="M166.246 184.189L166.197 184.178L166.152 184.167L165.257 183.944L165.204 183.933L164.693 183.806L164.633 183.792L163.823 183.592L163.757 183.574L163.261 183.451L163.188 183.435V183.433L162.254 183.204L162.175 183.184L161.615 183.045L161.527 183.025L160.831 182.852L160.737 182.829L160.124 182.677L160.026 182.654L159.18 182.445L159.092 182.422L158.449 182.263L158.363 182.242L157.746 182.09L157.673 182.072L156.968 181.897L156.898 181.879L156.287 181.729L156.227 181.713L155.366 181.502L155.304 181.486L154.4 181.263L154.351 181.25L153.657 181.08L153.612 181.069L152.715 180.846L152.677 180.837L151.921 180.651L151.887 180.642L151.094 180.447L151.803 180.144L151.833 180.132L152.65 179.781L152.687 179.767L153.388 179.466L153.429 179.449L154.324 179.067L154.373 179.044L154.973 178.789L155.027 178.766L156.345 178.201L156.41 178.174L156.74 178.033L156.809 178.004L158.094 177.454L158.174 177.421V177.419L158.457 177.299L158.541 177.264L159.863 176.699V176.697L159.964 176.655L160.259 176.528L160.356 176.486L161.745 175.892L161.846 175.848L162.008 175.78L162.103 175.738L163.634 175.084L163.722 175.047V175.045L163.862 174.987L163.944 174.952L165.466 174.3C165.483 174.343 165.501 174.386 165.518 174.429V174.431C165.533 174.468 165.547 174.502 165.562 174.539V174.541C165.566 174.552 165.57 174.563 165.574 174.573V174.575C165.593 174.618 165.609 174.661 165.626 174.704C166.052 175.829 166.349 176.945 166.52 178.065V178.067C166.528 178.112 166.534 178.157 166.542 178.204V178.206C166.618 178.732 166.667 179.262 166.685 179.792C166.69 179.895 166.693 179.996 166.694 180.099V180.103C166.719 181.437 166.567 182.789 166.246 184.189Z" fill="#C7C7C7"/>
<path d="M151.835 180.131L151.922 180.651L151.888 180.642L151.805 180.144L151.835 180.131ZM152.652 179.78L152.678 180.837L152.716 180.846L152.688 179.765L152.652 179.78ZM153.431 179.448L153.39 179.465L153.614 181.069L153.659 181.08L153.431 179.448ZM154.326 179.066L154.353 181.251L154.402 181.264L154.375 179.043L154.326 179.066ZM155.029 178.765L154.975 178.788L155.306 181.487L155.368 181.503L155.029 178.765ZM156.287 179.978L156.229 181.713L156.289 181.729L156.35 179.981L156.412 178.173L156.347 178.2L156.287 179.978ZM156.81 178.003L156.741 178.032L156.9 181.88L156.97 181.898L156.81 178.003ZM157.675 182.072L157.748 182.09L158.175 177.419L158.095 177.452L157.675 182.072ZM158.457 177.297L158.365 182.243L158.451 182.264L158.542 177.262L158.457 177.297ZM159.863 176.697L159.093 182.422L159.181 182.445L159.964 176.653L159.863 176.695V176.697ZM160.26 176.526L160.027 182.653L160.125 182.676L160.357 176.484L160.26 176.526ZM161.746 175.891L160.739 182.829L160.833 182.852L161.848 175.848L161.746 175.891ZM162.009 175.779L161.529 183.024L161.617 183.044L162.104 175.737L162.009 175.779ZM163.635 175.083L162.177 183.183L162.256 183.203L163.724 175.046L163.635 175.083ZM163.863 174.986L163.189 183.433V183.435L163.262 183.451L163.946 174.951L163.863 174.986ZM165.563 174.538C165.548 174.501 165.534 174.467 165.519 174.43L163.757 183.574L163.823 183.592L165.563 174.54V174.538ZM165.575 174.574L164.633 183.791L164.693 183.805L165.627 174.704C165.61 174.661 165.594 174.617 165.575 174.574ZM166.543 178.204C166.535 178.157 166.529 178.112 166.521 178.067L165.203 183.933L165.256 183.944L166.542 178.206L166.543 178.204ZM166.686 179.792L166.152 184.166L166.197 184.177L166.695 180.103V180.099C166.694 179.996 166.691 179.895 166.686 179.792Z" fill="#DBDBDB"/>
<path d="M166.245 184.189L164.989 184.172L149.84 180.43L151.096 180.447L166.245 184.189Z" fill="#A6A6A6"/>
<path d="M151.096 180.446L149.84 180.429L164.212 174.282L165.468 174.299L151.096 180.446Z" fill="#A6A6A6"/>
<path d="M141.402 165.237L142.787 181.228L157.338 174.989C154.606 168.455 148.361 164.634 141.402 165.237Z" fill="#37474F"/>
<path d="M141.864 165.203L141.473 166.031L141.465 165.939L141.812 165.205C141.83 165.206 141.847 165.205 141.864 165.203ZM142.342 165.181L141.59 167.38L141.601 167.504L142.396 165.18C142.378 165.18 142.359 165.182 142.342 165.181ZM144.09 165.223L141.807 169.891L141.817 170.006L144.157 165.227C144.136 165.226 144.112 165.226 144.09 165.223ZM144.472 165.259L142.001 172.125L142.015 172.285L144.537 165.264C144.515 165.262 144.494 165.259 144.472 165.259ZM146.116 166.999L146.837 165.684C146.813 165.675 146.786 165.669 146.76 165.663L146.049 166.962L143.926 170.836L142.169 174.041L142.181 174.176L143.994 170.871L146.116 166.999ZM146.951 165.713L142.327 175.889L142.342 176.062L147.028 165.734C147.002 165.728 146.977 165.72 146.951 165.713ZM148.909 166.385L142.406 176.797L142.419 176.944L148.996 166.422L148.909 166.385ZM149.09 166.462L142.578 178.786L142.594 178.972L149.177 166.503C149.148 166.489 149.119 166.476 149.09 166.462ZM150.803 167.344L142.62 179.268L142.634 179.434L150.901 167.402C150.869 167.381 150.835 167.363 150.803 167.344ZM151.008 167.468L143.58 180.888L143.758 180.812L151.105 167.528C151.074 167.508 151.04 167.487 151.008 167.468ZM152.531 168.541L143.991 180.713L144.198 180.624L152.619 168.611C152.589 168.587 152.561 168.564 152.531 168.541ZM152.703 168.679L146.134 179.794L146.294 179.726L152.789 168.751C152.758 168.728 152.73 168.702 152.703 168.679ZM154.069 169.95L146.897 179.467L147.084 179.386L154.136 170.019C154.114 169.996 154.09 169.972 154.069 169.95ZM154.287 170.183L149.245 178.459L149.384 178.4L154.352 170.255C154.33 170.231 154.309 170.207 154.287 170.183ZM155.413 171.559L150.496 177.925L150.649 177.858L155.459 171.624C155.445 171.602 155.43 171.579 155.413 171.559ZM155.584 171.796L152.101 177.235L152.217 177.186L155.63 171.86C155.614 171.839 155.599 171.816 155.584 171.796ZM156.567 173.376L154.093 176.383L154.221 176.327L156.597 173.434C156.587 173.415 156.577 173.395 156.567 173.376ZM156.739 173.703L155.294 175.868L155.391 175.825L156.77 173.763C156.762 173.742 156.752 173.724 156.739 173.703Z" fill="#263238"/>
<path d="M142.788 181.228L128.238 187.469C130.986 194.039 137.533 197.801 144.172 197.226C145.785 197.086 147.403 196.691 148.974 196.017C153.795 193.95 157.02 190.052 158.196 184.874L142.788 181.228Z" fill="#0097B2"/>
<path d="M128.236 187.469L126.984 187.577C129.732 194.147 136.279 197.909 142.918 197.334L144.17 197.226C137.531 197.801 130.984 194.039 128.236 187.469Z" fill="#0097B2"/>
<g opacity="0.1">
<path d="M128.236 187.469L126.984 187.577C129.732 194.147 136.279 197.909 142.918 197.334L144.17 197.226C137.531 197.801 130.984 194.039 128.236 187.469Z" fill="black"/>
</g>
<path opacity="0.1" d="M128.902 187.184L128.881 188.823C128.876 188.817 128.874 188.813 128.871 188.807L128.894 187.189L128.902 187.184ZM130.547 186.479L129.617 190.077C129.622 190.081 129.624 190.085 129.627 190.089L130.561 186.471L130.547 186.479ZM131.132 186.229L130.877 191.756C130.884 191.764 130.889 191.77 130.896 191.778L131.148 186.221L131.132 186.229ZM132.176 185.781L131.157 192.072C131.164 192.08 131.169 192.086 131.174 192.092L132.201 185.768L132.176 185.781ZM132.582 185.606L132.457 193.353C132.466 193.363 132.476 193.371 132.487 193.378L132.609 185.595L132.582 185.606ZM133.812 185.078L132.731 193.588C132.74 193.598 132.752 193.606 132.761 193.613L133.849 185.062L133.812 185.078ZM134.113 184.949L134.26 194.723C134.273 194.73 134.287 194.74 134.303 194.749L134.15 184.933L134.113 184.949ZM134.506 194.877C134.52 194.887 134.534 194.896 134.549 194.903L135.336 184.422L135.286 184.446L134.506 194.877ZM135.685 184.275L136.64 195.999C136.658 196.008 136.678 196.017 136.698 196.024L135.734 184.254L135.685 184.275ZM136.822 196.075C136.842 196.084 136.86 196.091 136.88 196.098L137.098 183.668L137.034 183.697L136.822 196.075ZM137.386 183.544L137.324 183.573L138.654 196.71C138.678 196.716 138.705 196.723 138.729 196.731L137.386 183.544ZM138.797 196.75C138.821 196.757 138.845 196.763 138.87 196.77L138.687 182.987L138.61 183.022L138.797 196.75ZM138.915 182.889L138.838 182.922L140.597 197.121C140.625 197.125 140.656 197.131 140.686 197.133L138.915 182.889ZM140.761 197.143C140.792 197.149 140.82 197.153 140.85 197.155L140.475 182.221L140.382 182.261L140.761 197.143ZM142.782 197.256L140.695 182.126L140.602 182.166L142.682 197.284C142.716 197.283 142.751 197.282 142.785 197.284C142.787 197.284 142.787 197.284 142.787 197.284C142.821 197.283 142.856 197.285 142.89 197.284L141.96 181.584L141.85 181.63L142.782 197.256ZM144.796 197.058L142.197 181.481L142.089 181.527L144.705 197.169C144.737 197.166 144.771 197.163 144.803 197.156C144.808 197.158 144.81 197.158 144.814 197.155C144.846 197.152 144.878 197.147 144.91 197.142L143.823 181.471L143.718 181.448L144.796 197.058ZM144.029 181.521L143.924 181.498L146.785 196.77C146.815 196.763 146.844 196.756 146.873 196.747L144.029 181.521ZM145.188 181.797L146.873 196.747C146.902 196.74 146.932 196.731 146.961 196.722L145.276 181.817L145.188 181.797ZM145.472 181.863L145.38 181.841L148.929 196.036C148.944 196.03 148.96 196.022 148.975 196.017C148.983 196.014 148.991 196.009 149 196.006L145.472 181.863ZM148.609 193.243L147.897 189.075L146.713 182.158L146.641 182.141L147.826 189.086L148.538 193.256L148.895 195.34L149.008 196.003C149.033 195.992 149.056 195.982 149.078 195.971L148.969 195.329L148.609 193.243ZM146.97 182.217L146.893 182.2L151.18 194.877C151.198 194.867 151.215 194.855 151.233 194.844L146.97 182.217ZM148.698 182.627L151.357 194.765C151.375 194.755 151.394 194.742 151.41 194.732L148.756 182.641L148.698 182.627ZM149.012 182.7L148.953 182.686L152.864 193.681C152.878 193.671 152.89 193.661 152.902 193.65L149.012 182.7ZM152.856 183.611L154.673 191.941C154.683 191.929 154.691 191.92 154.7 191.911L152.886 183.618L152.856 183.611ZM153.227 183.699L153.196 183.691L155.994 190.189C156 190.18 156.006 190.173 156.011 190.164L153.227 183.699ZM150.703 183.1L153.118 193.467C153.13 193.46 153.144 193.448 153.156 193.436L150.745 183.112L150.703 183.1ZM152.471 186.865L151.183 183.541L151.044 183.183L151 183.172L151.147 183.555L152.435 186.879L154.483 192.149C154.491 192.142 154.501 192.132 154.509 192.123L152.471 186.865ZM154.268 183.945L156.14 189.959C156.146 189.952 156.149 189.943 156.155 189.934L154.29 183.949L154.268 183.945ZM154.593 184.022L154.569 184.015L156.858 188.662C156.864 188.655 156.868 188.65 156.867 188.644L154.593 184.022ZM155.595 184.258L157.025 188.321C157.029 188.314 157.033 188.31 157.032 188.303L155.608 184.261L155.595 184.258ZM156.148 184.389L156.135 184.386L157.686 186.672C157.688 186.67 157.69 186.665 157.689 186.663L156.148 184.389ZM157.152 184.626L157.863 186.124C157.865 186.122 157.867 186.117 157.866 186.115L157.158 184.627L157.152 184.626ZM158.088 184.849L158.081 184.847C158.114 184.883 158.145 184.919 158.174 184.957C158.174 184.957 158.176 184.955 158.176 184.953C158.148 184.919 158.119 184.883 158.088 184.849Z" fill="black"/>
<path d="M141.405 165.238C132.708 165.991 126.277 173.762 127.042 182.594C127.195 184.361 127.557 185.837 128.241 187.47L142.791 181.229L141.405 165.238Z" fill="#455A64"/>
<path d="M142.502 177.909L142.512 178.031L128.244 174.9C128.258 174.864 128.272 174.829 128.286 174.793L142.502 177.909ZM128.17 175.08L142.662 179.758L142.652 179.645L128.21 174.978C128.196 175.011 128.182 175.045 128.17 175.08ZM129.262 172.888C129.241 172.92 129.22 172.954 129.204 172.988L142.36 176.269L142.351 176.16L129.262 172.888ZM129.097 173.171L142.479 177.642L142.468 177.514L129.154 173.072C129.135 173.103 129.114 173.137 129.097 173.171ZM132.027 169.443C132.005 169.462 131.985 169.483 131.965 169.502L142.024 172.398L142.018 172.325L132.027 169.443ZM131.712 169.749L142.144 173.777L142.136 173.685L131.773 169.688C131.751 169.708 131.731 169.728 131.712 169.749ZM130.554 171.035C130.53 171.061 130.509 171.088 130.49 171.114L142.181 174.197L142.173 174.105L130.554 171.035ZM130.277 171.386L142.326 175.875L142.316 175.764L130.336 171.309C130.315 171.336 130.296 171.361 130.277 171.386ZM136.525 166.474C136.506 166.48 136.487 166.488 136.469 166.496L141.687 168.496L141.683 168.451L136.525 166.474ZM135.846 166.786L141.792 169.708L141.787 169.649L135.902 166.76C135.883 166.768 135.865 166.778 135.846 166.786ZM133.899 167.932C133.877 167.945 133.856 167.959 133.836 167.974L141.856 170.455L141.851 170.395L133.899 167.932ZM133.429 168.267L141.979 171.872L141.973 171.8L133.488 168.226C133.468 168.238 133.447 168.253 133.429 168.267ZM139.136 165.602C139.119 165.606 139.104 165.608 139.09 165.611L141.526 166.634L141.523 166.604L139.136 165.602ZM138.104 165.887L141.63 167.851L141.626 167.805L138.15 165.872C138.134 165.876 138.119 165.879 138.104 165.887ZM140.665 165.321C140.652 165.32 140.639 165.323 140.627 165.324L141.455 165.825L141.452 165.795L140.665 165.321ZM127.246 184.161L133.661 185.146L133.738 185.111L127.238 184.111C127.241 184.128 127.243 184.146 127.246 184.161ZM127.192 183.828C127.193 183.845 127.197 183.862 127.199 183.879L135.806 184.224L135.92 184.175L127.192 183.828ZM127.759 186.182L130.263 186.602L130.319 186.578L127.747 186.147C127.751 186.159 127.754 186.17 127.759 186.182ZM127.7 186C127.703 186.013 127.707 186.025 127.712 186.036L131.483 186.079L131.568 186.044L127.7 186ZM127.002 182.012L137.048 183.691L137.146 183.65L126.999 181.95C126.998 181.969 127 181.99 127.002 182.012ZM126.992 181.742C126.992 181.763 126.991 181.785 126.993 181.808L139.772 182.523L139.917 182.461L126.992 181.742ZM129.617 179.815L127.458 179.35L127.092 179.272C127.088 179.298 127.086 179.324 127.084 179.35L127.441 179.427L129.6 179.89L133.919 180.82L140.461 182.23L140.575 182.179L133.934 180.747L129.617 179.815ZM127.105 179.159C127.101 179.185 127.097 179.21 127.095 179.236L142.487 181.359L142.638 181.294L127.105 179.159ZM127.496 177.111L142.651 181.288L142.78 181.234L127.521 177.02C127.51 177.052 127.502 177.08 127.496 177.111ZM127.558 176.88C127.548 176.911 127.54 176.944 127.534 176.975L142.683 179.996L142.674 179.889L127.558 176.88Z" fill="#37474F"/>
<path d="M141.403 165.238L140.151 165.346C131.454 166.099 125.023 173.87 125.788 182.702C125.941 184.469 126.303 185.945 126.987 187.578L128.239 187.47C127.556 185.837 127.193 184.361 127.04 182.594C126.275 173.763 132.706 165.991 141.403 165.238Z" fill="#37474F"/>
<path d="M160.221 176.079L159.363 166.865" stroke="#263238" stroke-width="0.5" stroke-miterlimit="10"/>
<path d="M160.274 165.764C160.326 166.32 159.917 166.812 159.362 166.864C158.806 166.916 158.314 166.507 158.262 165.952C158.21 165.396 158.619 164.904 159.174 164.852C159.73 164.8 160.222 165.208 160.274 165.764Z" stroke="#263238" stroke-width="0.5" stroke-miterlimit="10"/>
<path d="M173.378 163.529L162.23 164.568L162.277 165.07L173.425 164.031L173.378 163.529Z" fill="#263238"/>
<path d="M168.631 164.986L162.32 165.574L162.367 166.077L168.678 165.489L168.631 164.986Z" fill="#263238"/>
<path d="M115.754 56.911L164.016 52.33C180.109 50.86 196.197 49.342 212.294 47.915C196.211 49.486 180.119 50.967 164.032 52.496L115.754 56.911Z" fill="#C7C7C7"/>
<path d="M115.992 59.4521L164.254 54.8711C180.347 53.4011 196.435 51.8831 212.532 50.4561C196.449 52.0271 180.357 53.5081 164.27 55.0371L115.992 59.4521Z" fill="#C7C7C7"/>
<path d="M116.227 61.9931L164.489 57.4121C180.582 55.9421 196.67 54.4241 212.767 52.9971C196.684 54.5681 180.592 56.0491 164.505 57.5781L116.227 61.9931Z" fill="#C7C7C7"/>
<path d="M116.465 64.5341L164.727 59.9531C180.82 58.4831 196.908 56.9661 213.005 55.5381C196.922 57.1091 180.83 58.5901 164.743 60.1191L116.465 64.5341Z" fill="#C7C7C7"/>
<path d="M116.699 67.0741L164.961 62.4931C181.054 61.0231 197.142 59.5061 213.239 58.0781C197.156 59.6491 181.064 61.1301 164.977 62.6591L116.699 67.0741Z" fill="#C7C7C7"/>
<path d="M116.938 69.6151L165.199 65.0341C181.292 63.5641 197.38 62.0461 213.477 60.6191C197.394 62.1901 181.302 63.6711 165.215 65.2001L116.938 69.6151Z" fill="#C7C7C7"/>
<path d="M117.176 72.1562L165.438 67.5751C181.531 66.1051 197.619 64.5872 213.716 63.1602C197.633 64.7312 181.541 66.2121 165.454 67.7411L117.176 72.1562Z" fill="#C7C7C7"/>
<path d="M117.41 74.6972L165.672 70.1162C181.765 68.6462 197.853 67.1282 213.95 65.7012C197.867 67.2722 181.775 68.7532 165.688 70.2822L117.41 74.6972Z" fill="#C7C7C7"/>
<path d="M117.648 77.2382L165.91 72.6572C182.003 71.1872 198.091 69.6702 214.188 68.2422C198.105 69.8132 182.013 71.2942 165.926 72.8232L117.648 77.2382Z" fill="#C7C7C7"/>
<path d="M117.887 79.7792L166.149 75.1982C182.242 73.7282 198.33 72.2102 214.427 70.7832C198.344 72.3542 182.252 73.8352 166.165 75.3642L117.887 79.7792Z" fill="#C7C7C7"/>
<path d="M118.121 82.3202L166.383 77.7392C182.476 76.2692 198.564 74.7512 214.661 73.3242C198.578 74.8952 182.486 76.3762 166.399 77.9052L118.121 82.3202Z" fill="#C7C7C7"/>
<path d="M118.359 84.8603L166.621 80.2793C182.714 78.8093 198.802 77.2913 214.899 75.8633C198.816 77.4343 182.724 78.9153 166.637 80.4443L118.359 84.8603Z" fill="#C7C7C7"/>
<path d="M118.594 87.4013L166.856 82.8203C182.949 81.3503 199.037 79.8333 215.134 78.4053C199.051 79.9763 182.959 81.4573 166.872 82.9863L118.594 87.4013Z" fill="#C7C7C7"/>
<path d="M118.832 89.9423L167.094 85.3613C183.187 83.8913 199.275 82.3743 215.372 80.9463C199.289 82.5173 183.197 83.9983 167.11 85.5273L118.832 89.9423Z" fill="#C7C7C7"/>
<path d="M119.07 92.4833L167.332 87.9023C183.425 86.4323 199.513 84.9143 215.61 83.4873C199.527 85.0583 183.435 86.5393 167.348 88.0683L119.07 92.4833Z" fill="#C7C7C7"/>
<path d="M134.946 73.0628L127.625 73.7451L129.559 94.4935L136.88 93.8112L134.946 73.0628Z" fill="#0097B2"/>
<path d="M147.708 63.0208L140.387 63.7031L143.138 93.2276L150.46 92.5453L147.708 63.0208Z" fill="#455A64"/>
<path d="M161.876 68.0784L154.555 68.7607L156.717 91.9615L164.038 91.2792L161.876 68.0784Z" fill="#A6A6A6"/>
<path d="M174.739 59.1028L167.418 59.7852L170.299 90.6967L177.62 90.0143L174.739 59.1028Z" fill="#0097B2"/>
<path d="M188.708 61.9817L181.387 62.6641L183.881 89.4305L191.203 88.7481L188.708 61.9817Z" fill="#455A64"/>
<path d="M203.704 75.8811L196.383 76.5635L197.464 88.1644L204.785 87.482L203.704 75.8811Z" fill="#A6A6A6"/>
<path d="M118.207 54.8838L119.346 64.9448L120.422 75.0108C121.142 81.7218 121.796 88.4388 122.439 95.1568L121.935 94.8938L145.414 92.6928L168.897 90.5408L192.386 88.4538L215.883 86.4478L192.42 88.8178L168.949 91.1068L145.472 93.3308L121.991 95.5058L121.514 95.5498L121.486 95.2428C120.877 88.5218 120.279 81.7998 119.747 75.0718L118.945 64.9798L118.207 54.8838Z" fill="#C7C7C7"/>
<path d="M137.075 95.9417L129.754 96.624L129.794 97.0512L137.115 96.3688L137.075 95.9417Z" fill="#C7C7C7"/>
<path d="M150.657 94.677L143.336 95.3594L143.376 95.7865L150.697 95.1042L150.657 94.677Z" fill="#C7C7C7"/>
<path d="M164.239 93.4094L156.918 94.0918L156.958 94.519L164.279 93.8366L164.239 93.4094Z" fill="#C7C7C7"/>
<path d="M177.821 92.1438L170.5 92.8262L170.54 93.2533L177.861 92.571L177.821 92.1438Z" fill="#C7C7C7"/>
<path d="M191.4 90.8782L184.078 91.5605L184.118 91.9877L191.439 91.3053L191.4 90.8782Z" fill="#C7C7C7"/>
<path d="M204.982 89.6126L197.66 90.2949L197.7 90.7221L205.021 90.0397L204.982 89.6126Z" fill="#C7C7C7"/>
<path d="M281.474 127.692L288.664 119.895L257.989 91.6098L250.799 99.4074L281.474 127.692Z" fill="#C7C7C7"/>
<path d="M305.85 153.852L316.723 142.06L284.944 112.757L274.07 124.549L305.85 153.852Z" fill="#263238"/>
<path d="M240.032 28.0389L246.497 97.4149C246.472 97.4449 246.455 97.4549 246.43 97.4759C237.984 104.028 227.544 107.038 216.904 105.947C212.177 105.469 207.712 104.203 203.634 102.292C203.359 102.172 203.101 102.042 202.835 101.912C199.804 100.412 196.995 98.5639 194.457 96.4099C194.251 96.2469 194.063 96.0829 193.865 95.9109C191.112 93.4939 188.689 90.7189 186.659 87.6619C186.554 87.5079 186.449 87.3539 186.351 87.1909C185.778 86.3079 185.249 85.4109 184.744 84.4859C184.722 84.4429 184.7 84.3989 184.677 84.3559C184.238 83.5509 183.825 82.7259 183.447 81.8879C183.425 81.8449 183.412 81.7999 183.389 81.7569C183.022 80.9459 182.681 80.1139 182.366 79.2699L181.591 79.3419L181.275 75.9519C181.096 75.2959 180.925 74.6389 180.772 73.9709C180.759 73.9269 180.755 73.8819 180.741 73.8379C180.554 73.0009 180.393 72.1519 180.259 71.3009C180.245 71.2479 180.241 71.2029 180.236 71.1579C180.102 70.3069 179.996 69.4619 179.916 68.6049L179.903 68.4699C179.833 67.6219 179.78 66.7629 179.755 65.9019C179.76 65.8559 179.755 65.8019 179.76 65.7559C179.735 64.9039 179.746 64.0389 179.784 63.1799C179.779 63.1259 179.784 63.0799 179.798 63.0329C179.815 62.4399 179.851 61.8459 179.905 61.2499L179.328 55.0569L180.96 54.9049C180.965 54.8589 180.978 54.8029 180.992 54.7569C181.209 53.8639 181.463 52.9759 181.754 52.1039C181.759 52.0579 181.773 52.0109 181.796 51.9639C182.085 51.0639 182.411 50.1699 182.765 49.2909C182.787 49.2339 182.801 49.1879 182.824 49.1399C183.193 48.2239 183.601 47.3309 184.047 46.4529C184.06 46.3969 184.092 46.3489 184.115 46.3009C186.707 41.1309 190.379 36.5329 195.002 32.7659C203.571 25.7839 214.336 22.5529 225.307 23.6769C230.484 24.1949 235.404 25.6729 239.91 27.9719C239.946 27.9929 239.993 28.0069 240.032 28.0389Z" fill="white"/>
<path d="M240.031 28.0387C239.992 28.0057 239.945 27.9918 239.906 27.9688L246.428 97.4757C246.453 97.4547 246.471 97.4447 246.495 97.4147C246.521 97.4037 246.556 97.3817 246.58 97.3527C243.85 67.7647 241.344 40.5737 240.183 28.1157C240.135 28.0837 240.078 28.0527 240.031 28.0387Z" fill="#263238"/>
<path d="M225.286 93.2539C215.302 94.3209 204.952 95.3759 194.455 96.4089C194.249 96.2459 194.061 96.0819 193.863 95.9099C204.558 94.9579 215.105 94.0659 225.286 93.2539Z" fill="#263238"/>
<path d="M225.916 99.9883C218.659 100.755 211.202 101.532 203.635 102.292C203.36 102.172 203.102 102.042 202.836 101.912C210.675 101.235 218.398 100.588 225.916 99.9883Z" fill="#263238"/>
<path d="M219.215 43.0996C207.491 44.2376 195.764 45.3396 184.047 46.4496C184.06 46.3936 184.092 46.3456 184.115 46.2976C195.807 45.2176 207.509 44.1356 219.215 43.0996Z" fill="#C7C7C7"/>
<path d="M219.467 45.7959C207.23 46.9909 194.998 48.1399 182.766 49.2889C182.788 49.2319 182.802 49.1859 182.825 49.1379C195.041 48.0169 207.247 46.8799 219.467 45.7959Z" fill="#C7C7C7"/>
<path d="M219.717 48.4902C207.066 49.7332 194.41 50.9122 181.754 52.1002C181.759 52.0542 181.773 52.0072 181.796 51.9602C194.435 50.7912 207.074 49.6142 219.717 48.4902Z" fill="#C7C7C7"/>
<path d="M219.969 51.1943C206.966 52.4603 193.967 53.6723 180.961 54.9023C180.966 54.8563 180.979 54.8003 180.993 54.7543C193.983 53.5523 206.973 52.3423 219.969 51.1943Z" fill="#C7C7C7"/>
<path d="M220.22 53.8906C206.939 55.1916 193.66 56.4296 180.374 57.6766L179.581 57.7506L179.567 57.6066L180.396 57.5296C193.667 56.3106 206.937 55.0736 220.22 53.8906Z" fill="#C7C7C7"/>
<path d="M220.471 56.5947C211.73 57.4457 202.988 58.2787 194.253 59.0927C191.658 59.3437 189.07 59.5847 186.483 59.8257L179.983 60.4317C179.93 60.4457 179.885 60.4497 179.83 60.4457L179.817 60.3107C179.879 60.2957 179.933 60.2907 179.997 60.2937L186.47 59.6907C189.057 59.4497 191.644 59.2087 194.241 58.9757C202.978 58.1707 211.723 57.3647 220.471 56.5947Z" fill="#C7C7C7"/>
<path d="M220.724 59.29C211.983 60.141 203.241 60.974 194.507 61.797C191.911 62.039 189.324 62.28 186.737 62.53L179.787 63.178C179.782 63.124 179.787 63.078 179.801 63.031L186.724 62.386C189.312 62.154 191.899 61.913 194.495 61.671C203.231 60.866 211.976 60.06 220.724 59.29Z" fill="#C7C7C7"/>
<path d="M220.975 61.9854C212.235 62.8454 203.492 63.6693 194.758 64.4923C192.163 64.7433 189.575 64.9843 186.988 65.2253L180.335 65.8454C180.147 65.8724 179.948 65.8904 179.758 65.8994C179.763 65.8534 179.758 65.7993 179.763 65.7533L180.322 65.7014C182.54 65.4944 184.757 65.2884 186.976 65.0904C189.563 64.8494 192.15 64.6084 194.747 64.3754C203.481 63.5604 212.227 62.7644 220.975 61.9854Z" fill="#C7C7C7"/>
<path d="M221.227 64.6895C212.486 65.5405 203.744 66.3735 195.009 67.1875C192.414 67.4385 189.827 67.6794 187.239 67.9204L180.586 68.5405C180.361 68.5705 180.145 68.5904 179.919 68.6024L179.906 68.4675C180.131 68.4375 180.347 68.4174 180.573 68.4054L187.226 67.7855C189.813 67.5445 192.4 67.3034 194.997 67.0704C203.733 66.2654 212.478 65.4595 221.227 64.6895Z" fill="#C7C7C7"/>
<path d="M221.478 67.3848C212.737 68.2358 203.995 69.0688 195.261 69.8918C192.665 70.1338 190.078 70.3748 187.491 70.6248L180.261 71.2988C180.247 71.2458 180.243 71.2008 180.238 71.1558L187.477 70.4818C190.065 70.2498 192.652 70.0088 195.248 69.7668C203.984 68.9608 212.73 68.1638 221.478 67.3848Z" fill="#C7C7C7"/>
<path d="M221.729 70.0811C212.989 70.9411 204.246 71.7651 195.512 72.5881C192.917 72.8391 190.33 73.0801 187.742 73.3211L181.089 73.9411C180.982 73.9601 180.883 73.9691 180.773 73.9701C180.76 73.9261 180.756 73.8811 180.742 73.8371C180.849 73.8181 180.967 73.8071 181.076 73.8061L187.729 73.1861C190.316 72.9451 192.903 72.7041 195.5 72.4711C204.236 71.6561 212.981 70.8591 221.729 70.0811Z" fill="#C7C7C7"/>
<path d="M221.979 72.7842C218.05 73.1682 214.112 73.5442 210.182 73.9202C207.596 74.1702 205 74.4122 202.412 74.6532C200.195 74.8692 197.978 75.0752 195.76 75.2822C193.165 75.5332 190.577 75.7742 187.99 76.0152L181.472 76.6222C181.428 76.6352 181.383 76.6392 181.337 76.6352L181.324 76.5002C181.359 76.4882 181.386 76.4852 181.423 76.4912L187.977 75.8802C190.564 75.6392 193.151 75.3982 195.748 75.1652C197.966 74.9582 200.183 74.7522 202.402 74.5542C204.989 74.3132 207.586 74.0802 210.173 73.8392C214.106 73.4812 218.047 73.1322 221.979 72.7842Z" fill="#C7C7C7"/>
<path d="M222.232 75.4795C218.303 75.8635 214.365 76.2395 210.435 76.6155C207.849 76.8655 205.252 77.1075 202.666 77.3575C200.448 77.5645 198.231 77.7705 196.014 77.9865C193.418 78.2285 190.831 78.4695 188.244 78.7195L181.591 79.3395L181.578 79.1955L188.231 78.5755C190.819 78.3435 193.406 78.1025 196.002 77.8605C198.22 77.6625 200.438 77.4565 202.656 77.2495C205.244 77.0175 207.84 76.7755 210.428 76.5435C214.36 76.1865 218.3 75.8285 222.232 75.4795Z" fill="#C7C7C7"/>
<path d="M222.481 78.1758C218.552 78.5598 214.615 78.9448 210.685 79.3208C208.098 79.5618 205.503 79.8128 202.915 80.0538C200.698 80.2698 198.481 80.4758 196.263 80.6828C193.668 80.9338 191.081 81.1748 188.493 81.4158L183.445 81.8858C183.423 81.8428 183.41 81.7978 183.387 81.7548L188.48 81.2798C191.067 81.0388 193.654 80.7978 196.251 80.5648C198.469 80.3578 200.686 80.1518 202.905 79.9538C205.492 79.7128 208.088 79.4708 210.676 79.2388C214.609 78.8818 218.549 78.5238 222.481 78.1758Z" fill="#C7C7C7"/>
<path d="M222.734 80.8799C218.805 81.2639 214.867 81.6399 210.937 82.0159C208.351 82.2659 205.755 82.5079 203.167 82.7489C200.95 82.9649 198.733 83.1709 196.515 83.3779C193.92 83.6289 191.332 83.8699 188.745 84.1109L184.743 84.4839C184.721 84.4409 184.699 84.3969 184.676 84.3539L188.733 83.9759C191.32 83.7349 193.907 83.4939 196.504 83.2609C198.722 83.0539 200.939 82.8479 203.158 82.6499C205.745 82.4089 208.342 82.1759 210.929 81.9349C214.861 81.5769 218.802 81.2279 222.734 80.8799Z" fill="#C7C7C7"/>
<path d="M179.905 61.248L181.275 75.951C181.096 75.295 180.925 74.638 180.772 73.97C180.759 73.926 180.755 73.881 180.741 73.837C180.554 73 180.393 72.151 180.259 71.3C180.245 71.247 180.241 71.202 180.236 71.157C180.102 70.306 179.996 69.461 179.916 68.604L179.903 68.469C179.833 67.621 179.78 66.762 179.755 65.901C179.76 65.855 179.755 65.801 179.76 65.755C179.735 64.903 179.746 64.038 179.784 63.179C179.779 63.125 179.784 63.079 179.798 63.032C179.816 62.438 179.852 61.844 179.905 61.248Z" fill="#0097B2"/>
<path d="M194.162 58.0361L186.387 58.7607L189.036 87.188L196.812 86.4633L194.162 58.0361Z" fill="#455A64"/>
<path d="M210.088 72.8017L202.313 73.5264L203.461 85.8472L211.236 85.1225L210.088 72.8017Z" fill="#A6A6A6"/>
<path d="M223.029 84.0254L198.112 86.5384L186.66 87.6604C186.555 87.5064 186.45 87.3524 186.352 87.1894L189.013 86.9594L196.786 86.2624L198.076 86.1514L203.444 85.6964L211.22 85.0354L223.029 84.0254Z" fill="#C7C7C7"/>
<path d="M197.022 88.7265L189.246 89.4512L189.289 89.9052L197.064 89.1805L197.022 88.7265Z" fill="#C7C7C7"/>
<path d="M211.447 87.3847L203.672 88.1094L203.714 88.5634L211.49 87.8387L211.447 87.3847Z" fill="#C7C7C7"/>
<path d="M216.199 112.887C189.688 110.179 170.322 86.4073 173.03 59.8963C175.738 33.3853 199.51 14.0193 226.021 16.7273C252.532 19.4353 271.898 43.2063 269.19 69.7183C266.482 96.2293 242.71 115.595 216.199 112.887ZM216.762 107.375C240.234 109.772 261.281 92.6273 263.678 69.1553C266.076 45.6833 248.93 24.6363 225.458 22.2393C201.986 19.8423 180.94 36.9873 178.542 60.4593C176.145 83.9313 193.29 104.978 216.762 107.375Z" fill="#37474F"/>
<path d="M262.904 50.3098C261.229 45.5018 258.701 40.9628 255.388 36.8878C247.911 27.7138 237.335 22.0108 225.603 20.8088C213.872 19.6148 202.359 23.0658 193.192 30.5338C184.017 38.0028 178.306 48.5798 177.112 60.3108C175.91 72.0508 179.37 83.5638 186.838 92.7298C190.572 97.3128 195.079 101.029 200.123 103.758C205.167 106.479 210.748 108.205 216.614 108.81C240.879 111.281 262.633 93.5648 265.105 69.2998C265.773 62.7818 265.007 56.3298 262.904 50.3098ZM262.243 69.0118C259.931 91.6958 239.586 108.261 216.911 105.949C205.941 104.825 196.053 99.4888 189.063 90.9158C182.081 82.3418 178.849 71.5788 179.973 60.6088C181.089 49.6398 186.433 39.7508 195.006 32.7618C203.58 25.7798 214.344 22.5558 225.313 23.6718C236.283 24.7958 246.171 30.1318 253.152 38.7058C260.135 47.2778 263.367 58.0408 262.243 69.0118ZM262.904 50.3098C261.229 45.5018 258.701 40.9628 255.388 36.8878C247.911 27.7138 237.335 22.0108 225.603 20.8088C213.872 19.6148 202.359 23.0658 193.192 30.5338C184.017 38.0028 178.306 48.5798 177.112 60.3108C175.91 72.0508 179.37 83.5638 186.838 92.7298C190.572 97.3128 195.079 101.029 200.123 103.758C205.167 106.479 210.748 108.205 216.614 108.81C240.879 111.281 262.633 93.5648 265.105 69.2998C265.773 62.7818 265.007 56.3298 262.904 50.3098ZM262.243 69.0118C259.931 91.6958 239.586 108.261 216.911 105.949C205.941 104.825 196.053 99.4888 189.063 90.9158C182.081 82.3418 178.849 71.5788 179.973 60.6088C181.089 49.6398 186.433 39.7508 195.006 32.7618C203.58 25.7798 214.344 22.5558 225.313 23.6718C236.283 24.7958 246.171 30.1318 253.152 38.7058C260.135 47.2778 263.367 58.0408 262.243 69.0118ZM268.139 48.4968C266.258 43.0778 263.412 37.9728 259.678 33.3888C251.274 23.0748 239.371 16.6498 226.166 15.2948C198.863 12.5098 174.391 32.4518 171.597 59.7468C170.251 72.9588 174.134 85.9068 182.539 96.2298C190.951 106.544 202.846 112.969 216.05 114.316C229.255 115.671 242.21 111.779 252.525 103.375C262.848 94.9708 269.272 83.0668 270.619 69.8628C271.369 62.5248 270.502 55.2708 268.139 48.4968ZM267.757 69.5748C266.487 82.0088 260.43 93.2228 250.709 101.149C240.988 109.067 228.781 112.732 216.346 111.454C203.904 110.185 192.69 104.136 184.772 94.4058C181.254 90.0928 178.576 85.2778 176.799 80.1728C174.572 73.7918 173.752 66.9558 174.459 60.0438C177.085 34.3218 200.156 15.5298 225.877 18.1558C244.57 20.0688 259.603 32.7658 265.409 49.4468C267.593 55.7158 268.478 62.5458 267.757 69.5748ZM255.388 36.8878C247.911 27.7138 237.335 22.0108 225.603 20.8088C213.872 19.6148 202.359 23.0658 193.192 30.5338C184.017 38.0028 178.306 48.5798 177.112 60.3108C175.91 72.0508 179.37 83.5638 186.838 92.7298C190.572 97.3128 195.079 101.029 200.123 103.758C205.167 106.479 210.748 108.205 216.614 108.81C240.879 111.281 262.633 93.5648 265.105 69.2998C265.774 62.7818 265.007 56.3298 262.904 50.3098C261.229 45.5018 258.701 40.9638 255.388 36.8878ZM262.243 69.0118C259.931 91.6958 239.586 108.261 216.911 105.949C205.941 104.825 196.053 99.4888 189.063 90.9158C182.081 82.3418 178.849 71.5788 179.973 60.6088C181.089 49.6398 186.433 39.7508 195.006 32.7618C203.58 25.7798 214.344 22.5558 225.313 23.6718C236.283 24.7958 246.171 30.1318 253.152 38.7058C260.135 47.2778 263.367 58.0408 262.243 69.0118Z" fill="#37474F"/>
<g opacity="0.2">
<path d="M253.169 38.6926C267.574 56.3676 264.902 82.4666 247.232 96.8656C238.68 103.828 227.915 107.047 216.911 105.927C205.912 104.801 196.015 99.4756 189.053 90.9236C182.086 82.3776 178.872 71.6066 179.992 60.6026C181.118 49.6036 186.449 39.7126 194.995 32.7446C203.547 25.7826 214.312 22.5646 225.311 23.6896C236.31 24.8156 246.207 30.1406 253.169 38.6926Z" fill="white"/>
</g>
<path d="M193.493 84.9584C190.786 81.5314 188.965 77.4024 187.865 73.0804C187.298 70.9164 187.009 68.6714 186.879 66.4114C186.778 64.1474 186.927 61.8624 187.259 59.6004C188.007 55.0834 189.715 50.7034 192.223 46.8924C194.729 43.0804 197.912 39.7764 201.547 37.1914C198.703 40.6354 196.141 44.1894 194.12 47.9834C193.168 49.9054 192.221 51.8234 191.594 53.8514C190.913 55.8544 190.345 57.8974 190.055 59.9834C189.361 64.1374 189.412 68.3934 190.025 72.5904C190.677 76.7824 191.816 80.9344 193.493 84.9584Z" fill="white"/>
<path d="M156.441 237.968C137.312 216.45 102.867 226.444 83.7383 204.928C88.8343 200.728 94.0943 196.192 99.4833 191.39C117.366 204.137 143.296 200.326 160.766 213.921C159.418 221.744 157.982 229.748 156.441 237.968Z" fill="#EBEBEB"/>
<path d="M101.127 192.504C95.8063 197.511 90.5933 202.295 85.5173 206.797C84.9103 206.201 84.3173 205.578 83.7383 204.927C88.8343 200.728 94.0933 196.193 99.4813 191.391C100.022 191.777 100.571 192.148 101.127 192.504Z" fill="#DBDBDB"/>
<path d="M160.767 213.92C160.683 214.412 160.598 214.906 160.512 215.4C142.901 201.38 116.477 205.496 98.4688 192.293C98.8067 191.993 99.1447 191.691 99.4837 191.389C117.367 204.137 143.297 200.325 160.767 213.92Z" fill="#DBDBDB"/>
<path d="M97.918 195.512C98.652 194.828 99.388 194.139 100.126 193.446C101.363 194.261 102.636 195.003 103.939 195.684C102.756 196.925 99.999 196.979 97.918 195.512Z" fill="#DBDBDB"/>
<path d="M422.64 74.9368L323.027 60.2764L300.235 215.141L399.848 229.802L422.64 74.9368Z" fill="#263238"/>
<path d="M415.421 73.8743L315.809 59.2139L293.016 214.079L392.629 228.739L415.421 73.8743Z" fill="#37474F"/>
<path d="M336.818 102.673L317.664 99.8545L314.845 119.008L333.999 121.827L336.818 102.673Z" fill="#DBDBDB"/>
<path d="M358.525 105.868L339.371 103.049L336.552 122.203L355.706 125.022L358.525 105.868Z" fill="#DBDBDB"/>
<path d="M380.228 109.062L361.074 106.243L358.255 125.397L377.409 128.216L380.228 109.062Z" fill="#0097B2"/>
<path d="M401.931 112.262L382.777 109.443L379.958 128.597L399.112 131.416L401.931 112.262Z" fill="#0097B2"/>
<path d="M333.587 124.641L314.434 121.822L311.615 140.976L330.768 143.795L333.587 124.641Z" fill="#A6A6A6"/>
<path d="M355.294 127.836L336.141 125.017L333.322 144.17L352.475 146.989L355.294 127.836Z" fill="#A6A6A6"/>
<path d="M376.998 131.032L357.844 128.213L355.025 147.367L374.179 150.186L376.998 131.032Z" fill="#A6A6A6"/>
<path d="M398.681 134.364L379.527 131.545L376.708 150.699L395.862 153.518L398.681 134.364Z" fill="#DBDBDB"/>
<path d="M330.349 146.616L311.195 143.797L308.376 162.951L327.53 165.77L330.349 146.616Z" fill="#A6A6A6"/>
<path d="M352.056 149.806L332.902 146.987L330.083 166.141L349.237 168.96L352.056 149.806Z" fill="#A6A6A6"/>
<path d="M373.763 153.002L354.609 150.183L351.79 169.336L370.944 172.155L373.763 153.002Z" fill="#A6A6A6"/>
<path d="M395.47 156.195L376.316 153.376L373.497 172.53L392.651 175.349L395.47 156.195Z" fill="#DBDBDB"/>
<path d="M327.115 168.587L307.961 165.768L305.142 184.921L324.296 187.74L327.115 168.587Z" fill="#A6A6A6"/>
<path d="M348.826 171.776L329.672 168.957L326.853 188.111L346.007 190.93L348.826 171.776Z" fill="#A6A6A6"/>
<path d="M370.529 174.97L351.375 172.151L348.556 191.305L367.71 194.124L370.529 174.97Z" fill="#A6A6A6"/>
<path d="M392.236 178.164L373.082 175.345L370.263 194.499L389.417 197.318L392.236 178.164Z" fill="#DBDBDB"/>
<path d="M323.888 190.55L304.734 187.731L301.915 206.885L321.069 209.704L323.888 190.55Z" fill="#A6A6A6"/>
<path d="M345.591 193.745L326.438 190.926L323.619 210.08L342.772 212.899L345.591 193.745Z" fill="#A6A6A6"/>
<path d="M367.298 196.939L348.145 194.12L345.326 213.274L364.479 216.093L367.298 196.939Z" fill="#DBDBDB"/>
<path d="M389.005 200.131L369.852 197.312L367.033 216.466L386.186 219.285L389.005 200.131Z" fill="#DBDBDB"/>
<path d="M323.276 108.572L323.278 108.556C323.393 107.774 324.022 107.207 324.812 107.323C325.601 107.439 326.025 108.161 325.912 108.927L325.91 108.943C325.796 109.717 325.174 110.293 324.376 110.176C323.594 110.061 323.163 109.337 323.276 108.572ZM325.198 108.855L325.2 108.839C325.266 108.393 325.064 107.988 324.706 107.935C324.331 107.88 324.054 108.214 323.99 108.645L323.988 108.661C323.921 109.115 324.123 109.512 324.482 109.565C324.857 109.619 325.134 109.285 325.198 108.855ZM323.645 112.431L328.041 107.969C328.111 107.882 328.222 107.849 328.333 107.865C328.509 107.891 328.632 108.048 328.606 108.223C328.594 108.303 328.552 108.37 328.504 108.42L324.107 112.881C324.029 112.968 323.919 113 323.807 112.984C323.632 112.958 323.516 112.802 323.542 112.627C323.554 112.548 323.597 112.481 323.645 112.431ZM326.229 111.923L326.231 111.907C326.346 111.125 326.975 110.558 327.765 110.674C328.547 110.789 328.978 111.512 328.865 112.278L328.862 112.294C328.748 113.067 328.118 113.643 327.328 113.527C326.547 113.412 326.116 112.689 326.229 111.923ZM328.151 112.206L328.153 112.19C328.219 111.743 328.018 111.339 327.659 111.286C327.284 111.231 327.007 111.565 326.943 111.996L326.941 112.012C326.874 112.466 327.076 112.863 327.435 112.916C327.81 112.971 328.087 112.637 328.151 112.206Z" fill="#37474F"/>
<path d="M364.482 115.997C364.723 114.419 366.235 113.33 367.832 113.557C368.534 113.66 369.137 113.986 369.583 114.45C369.751 114.638 369.741 114.921 369.569 115.1C369.38 115.276 369.08 115.264 368.918 115.094C368.61 114.755 368.193 114.539 367.699 114.466C367.149 114.385 366.605 114.533 366.179 114.829C365.766 115.143 365.472 115.589 365.393 116.131C365.313 116.673 365.464 117.201 365.771 117.604C366.094 118.01 366.572 118.308 367.122 118.389C367.616 118.462 368.069 118.373 368.47 118.139C368.673 118.031 368.964 118.106 369.095 118.32C369.209 118.54 369.135 118.823 368.922 118.946C368.362 119.262 367.69 119.4 366.988 119.297C365.391 119.064 364.256 117.585 364.482 115.997Z" fill="#37474F"/>
<path d="M370.516 119.37L371.209 114.665C371.245 114.418 371.465 114.255 371.712 114.291L371.72 114.292C371.72 114.292 371.72 114.292 371.736 114.294L374.32 114.674C374.551 114.708 374.73 114.93 374.694 115.177C374.658 115.424 374.421 115.593 374.19 115.559L372.029 115.241L371.814 116.7L373.672 116.973C373.911 117.008 374.08 117.245 374.046 117.476C374.01 117.723 373.781 117.893 373.542 117.858L371.684 117.584L371.468 119.051L373.629 119.369C373.86 119.403 374.038 119.633 374.002 119.88C373.967 120.119 373.73 120.288 373.499 120.254L370.915 119.874C370.899 119.872 370.9 119.864 370.9 119.864L370.891 119.871C370.643 119.837 370.481 119.61 370.516 119.37Z" fill="#37474F"/>
<path d="M388.552 119.539C388.792 117.961 390.305 116.872 391.901 117.099C392.602 117.202 393.206 117.527 393.651 117.992C393.819 118.179 393.81 118.463 393.637 118.642C393.448 118.818 393.148 118.806 392.986 118.636C392.678 118.298 392.261 118.081 391.767 118.009C391.217 117.928 390.673 118.076 390.247 118.372C389.834 118.686 389.54 119.131 389.46 119.674C389.38 120.216 389.531 120.743 389.838 121.147C390.161 121.553 390.639 121.851 391.189 121.932C391.683 122.005 392.136 121.917 392.537 121.682C392.74 121.573 393.031 121.649 393.162 121.863C393.276 122.083 393.202 122.366 392.989 122.489C392.429 122.806 391.757 122.943 391.055 122.84C389.462 122.606 388.327 121.127 388.552 119.539Z" fill="#37474F"/>
<path d="M324.689 130.881L322.003 135.301C321.915 135.458 321.741 135.531 321.557 135.504C321.51 135.497 321.447 135.48 321.394 135.448C321.186 135.312 321.12 135.041 321.239 134.838L323.563 131.001L321.507 130.698C321.268 130.663 321.098 130.426 321.133 130.186C321.169 129.939 321.397 129.777 321.636 129.812L324.373 130.215C324.397 130.219 324.421 130.222 324.451 130.235C324.506 130.251 324.557 130.292 324.609 130.324C324.616 130.333 324.621 130.342 324.628 130.351C324.643 130.362 324.651 130.371 324.656 130.387C324.662 130.405 324.677 130.415 324.683 130.424C324.688 130.441 324.694 130.45 324.701 130.459C324.708 130.469 324.713 130.493 324.712 130.502C324.717 130.519 324.724 130.528 324.738 130.547C324.737 130.555 324.741 130.58 324.74 130.588C324.746 130.606 324.743 130.613 324.749 130.63C324.749 130.687 324.739 130.751 324.723 130.806C324.712 130.836 324.7 130.859 324.689 130.881Z" fill="white"/>
<path d="M345.93 137.152C345.776 138.197 344.797 138.924 343.753 138.77C342.7 138.615 341.965 137.635 342.118 136.59C342.215 135.929 342.636 135.395 343.205 135.129C343.069 134.889 343.015 134.596 343.058 134.301C343.164 133.583 343.841 133.08 344.574 133.188C345.291 133.294 345.795 133.971 345.689 134.689C345.646 134.984 345.509 135.249 345.31 135.44C345.77 135.858 346.027 136.49 345.93 137.152ZM345.061 137.024C345.144 136.458 344.751 135.919 344.185 135.836C343.611 135.752 343.079 136.154 342.988 136.719C342.913 137.287 343.307 137.817 343.881 137.902C344.447 137.985 344.977 137.59 345.061 137.024ZM343.927 134.43C343.891 134.677 344.06 134.914 344.315 134.951C344.554 134.986 344.784 134.808 344.82 134.561C344.855 134.322 344.685 134.093 344.446 134.058C344.191 134.02 343.962 134.19 343.927 134.43Z" fill="white"/>
<path d="M364.123 138.038C364.28 136.969 365.276 136.236 366.345 136.393C367.349 136.541 368.059 137.42 368.012 138.407C368.011 138.415 368.011 138.415 368.018 138.424C368.004 138.576 367.989 138.729 367.967 138.881C367.888 139.415 367.724 139.977 367.447 140.475C367.17 140.972 366.769 141.426 366.218 141.687C365.85 141.861 365.423 141.937 364.966 141.886C364.718 141.857 364.546 141.645 364.566 141.395C364.593 141.155 364.813 140.984 365.065 140.996C365.369 141.033 365.62 140.98 365.847 140.883C366.066 140.777 366.262 140.618 366.432 140.399C366.481 140.342 366.524 140.274 366.566 140.207C366.319 140.277 366.048 140.294 365.777 140.254C364.708 140.096 363.966 139.107 364.123 138.038ZM365.008 138.169C364.924 138.743 365.324 139.291 365.906 139.376C366.488 139.462 367.021 139.051 367.105 138.477C367.191 137.895 366.797 137.364 366.215 137.278C365.632 137.193 365.094 137.587 365.008 138.169Z" fill="white"/>
<path d="M385.997 142.297C386.036 142.034 386.283 141.85 386.538 141.888L389.023 142.254C389.278 142.292 389.462 142.539 389.423 142.802C389.385 143.057 389.139 143.241 388.883 143.203L386.398 142.837C386.144 142.799 385.96 142.552 385.997 142.297Z" fill="#37474F"/>
<path d="M321.35 156.264C321.313 156.511 321.086 156.673 320.839 156.637L320.759 156.625L320.67 157.23C320.634 157.477 320.414 157.64 320.167 157.604C319.92 157.568 319.757 157.348 319.793 157.101L319.882 156.495L317.386 156.128L317.378 156.127L317.37 156.126C317.274 156.112 317.182 156.074 317.113 155.99C316.936 155.809 316.952 155.534 317.132 155.365L320.623 152.131C320.631 152.132 320.632 152.124 320.641 152.118C320.65 152.111 320.659 152.104 320.67 152.089C320.695 152.085 320.704 152.078 320.713 152.071C320.722 152.064 320.739 152.059 320.749 152.052C320.766 152.046 320.775 152.039 320.799 152.043C320.809 152.028 320.819 152.021 320.834 152.024C320.843 152.017 320.859 152.02 320.884 152.015C320.892 152.016 320.908 152.019 320.917 152.012C320.933 152.014 320.957 152.018 320.973 152.02C320.973 152.02 320.981 152.021 320.989 152.022C320.997 152.023 320.997 152.023 321.005 152.024C321.021 152.026 321.045 152.03 321.053 152.031C321.068 152.041 321.076 152.043 321.092 152.045C321.099 152.055 321.123 152.058 321.138 152.068C321.146 152.069 321.161 152.08 321.169 152.081C321.183 152.099 321.198 152.109 321.204 152.119C321.219 152.13 321.226 152.139 321.24 152.149C321.24 152.149 321.248 152.15 321.247 152.158C321.255 152.159 321.27 152.17 321.269 152.177C321.282 152.195 321.289 152.205 321.296 152.214C321.303 152.223 321.308 152.24 321.315 152.249C321.322 152.258 321.329 152.267 321.341 152.294C321.34 152.302 321.346 152.319 321.352 152.328C321.358 152.345 321.356 152.353 321.361 152.378C321.36 152.386 321.365 152.403 321.364 152.411C321.369 152.428 321.369 152.436 321.365 152.46C321.363 152.476 321.369 152.485 321.367 152.501C321.366 152.509 321.365 152.517 321.364 152.524L320.89 155.746L320.97 155.758C321.215 155.796 321.385 156.024 321.35 156.264ZM320.301 153.648L318.424 155.384L320.011 155.618L320.301 153.648Z" fill="white"/>
<path d="M342.245 157.399C342.579 157.839 342.696 158.378 342.621 158.888C342.547 159.39 342.273 159.871 341.833 160.197C341.393 160.532 340.854 160.648 340.352 160.574C340.336 160.572 340.336 160.572 340.336 160.572C339.842 160.499 339.351 160.232 339.034 159.786C338.875 159.592 338.917 159.304 339.128 159.148C339.322 158.997 339.617 159.041 339.766 159.242C339.942 159.488 340.198 159.632 340.484 159.674C340.756 159.714 341.05 159.651 341.289 159.466C341.527 159.29 341.68 159.027 341.72 158.756C341.762 158.469 341.699 158.182 341.514 157.944C341.338 157.698 341.082 157.562 340.802 157.521C340.531 157.481 340.23 157.535 339.991 157.719C339.79 157.869 339.503 157.826 339.353 157.625C339.326 157.588 339.308 157.545 339.281 157.508C339.283 157.492 339.284 157.484 339.276 157.483C339.278 157.467 339.273 157.449 339.266 157.441C339.269 157.417 339.264 157.4 339.266 157.384C339.267 157.376 339.259 157.375 339.26 157.367C339.259 157.318 339.266 157.27 339.28 157.231L339.823 155.201C339.867 155.069 339.955 154.968 340.069 154.911C340.086 154.906 340.094 154.907 340.103 154.9C340.112 154.893 340.12 154.894 340.129 154.887C340.198 154.865 340.264 154.858 340.344 154.869L342.696 155.215C342.951 155.253 343.121 155.482 343.084 155.737C343.049 155.976 342.819 156.154 342.564 156.116L340.603 155.827L340.391 156.603C340.573 156.581 340.76 156.584 340.936 156.61C341.438 156.685 341.92 156.952 342.245 157.399Z" fill="white"/>
<path d="M364.523 162.161C364.366 163.229 363.369 163.962 362.301 163.804C361.296 163.656 360.586 162.778 360.634 161.791C360.635 161.783 360.635 161.783 360.629 161.774C360.643 161.621 360.658 161.469 360.68 161.317C360.759 160.783 360.923 160.22 361.199 159.723C361.476 159.226 361.877 158.772 362.429 158.511C362.797 158.337 363.223 158.261 363.68 158.312C363.929 158.34 364.101 158.552 364.08 158.802C364.053 159.043 363.832 159.213 363.582 159.201C363.277 159.164 363.025 159.217 362.799 159.314C362.58 159.421 362.385 159.58 362.214 159.799C362.164 159.857 362.122 159.923 362.08 159.99C362.326 159.921 362.598 159.903 362.869 159.943C363.938 160.103 364.681 161.093 364.523 162.161ZM363.638 162.03C363.722 161.456 363.322 160.908 362.74 160.823C362.158 160.737 361.625 161.148 361.54 161.722C361.454 162.304 361.849 162.835 362.431 162.921C363.014 163.005 363.552 162.612 363.638 162.03Z" fill="white"/>
<path d="M382.916 164.395C382.685 164.361 382.53 164.143 382.563 163.92C382.596 163.697 382.808 163.532 383.038 163.566L386.26 164.04C386.491 164.074 386.647 164.292 386.614 164.516C386.581 164.739 386.369 164.904 386.138 164.869L382.916 164.395ZM385.386 162.617L385.38 162.657C385.337 162.952 385.054 163.155 384.752 163.11C384.449 163.065 384.237 162.79 384.28 162.495L384.286 162.455C384.328 162.168 384.611 161.965 384.914 162.009C385.216 162.054 385.428 162.329 385.386 162.617ZM384.896 165.942L384.89 165.982C384.847 166.277 384.566 166.472 384.263 166.427C383.96 166.382 383.747 166.115 383.79 165.82L383.796 165.78C383.839 165.485 384.121 165.282 384.425 165.327C384.728 165.371 384.94 165.647 384.896 165.942Z" fill="#37474F"/>
<path d="M317.356 174.382L316.664 179.087C316.627 179.335 316.392 179.495 316.153 179.46C315.906 179.424 315.743 179.205 315.779 178.957L316.356 175.034L316.01 175.17C315.931 175.208 315.849 175.212 315.777 175.201C315.625 175.179 315.494 175.078 315.435 174.922C315.329 174.703 315.441 174.434 315.666 174.345L316.733 173.907C316.742 173.9 316.758 173.902 316.767 173.896C316.783 173.898 316.793 173.884 316.81 173.878C316.826 173.88 316.843 173.875 316.859 173.877C316.868 173.87 316.884 173.872 316.892 173.873C316.909 173.867 316.933 173.871 316.949 173.873C316.957 173.874 316.965 173.875 316.973 173.877L316.981 173.878C317.005 173.882 317.021 173.884 317.037 173.886C317.044 173.895 317.06 173.898 317.068 173.899C317.092 173.903 317.098 173.912 317.113 173.922C317.121 173.923 317.137 173.925 317.144 173.935C317.165 173.954 317.172 173.963 317.188 173.966C317.195 173.975 317.201 173.985 317.216 173.995C317.223 174.004 317.238 174.015 317.244 174.024C317.259 174.034 317.265 174.051 317.271 174.06C317.278 174.069 317.284 174.078 317.29 174.095C317.297 174.104 317.31 174.123 317.317 174.132L317.322 174.149C317.321 174.157 317.328 174.166 317.326 174.174C317.332 174.191 317.339 174.201 317.336 174.216C317.342 174.233 317.339 174.249 317.346 174.259C317.344 174.275 317.349 174.292 317.348 174.3C317.344 174.324 317.342 174.34 317.356 174.358C317.358 174.366 317.357 174.375 317.356 174.382Z" fill="white"/>
<path d="M339.3 182.419C339.264 182.666 339.044 182.829 338.797 182.793L335.974 182.378C335.974 182.378 335.974 182.378 335.966 182.377L335.958 182.376C335.838 182.359 335.718 182.292 335.652 182.185C335.512 181.977 335.567 181.708 335.767 181.566L338.442 179.776C338.703 179.603 338.847 179.347 338.889 179.06C338.927 178.805 338.874 178.553 338.728 178.328C338.555 178.066 338.291 177.921 338.012 177.88C337.765 177.844 337.505 177.895 337.279 178.041L336.999 178.228C336.791 178.369 336.522 178.313 336.382 178.105C336.249 177.898 336.297 177.628 336.506 177.488L336.786 177.301C337.194 177.019 337.689 176.929 338.143 176.996C338.661 177.072 339.156 177.365 339.47 177.835C339.752 178.243 339.842 178.737 339.776 179.191C339.7 179.709 339.407 180.204 338.937 180.518L337.229 181.659L338.927 181.909C339.174 181.944 339.336 182.172 339.3 182.419Z" fill="white"/>
<path d="M360.78 182.565C361.115 183.005 361.231 183.544 361.157 184.047C361.083 184.549 360.816 185.031 360.368 185.365C359.929 185.691 359.389 185.816 358.879 185.741C358.377 185.667 357.896 185.392 357.57 184.953C357.421 184.751 357.463 184.464 357.664 184.315C357.865 184.165 358.153 184.207 358.302 184.409C358.479 184.647 358.735 184.791 359.013 184.832C359.292 184.873 359.579 184.809 359.824 184.634C360.072 184.45 360.215 184.194 360.256 183.915C360.297 183.636 360.234 183.349 360.048 183.11C359.873 182.864 359.616 182.729 359.338 182.68C359.209 182.669 359.098 182.596 359.032 182.489C359.024 182.488 359.024 182.488 359.025 182.48C358.868 182.278 358.909 181.999 359.103 181.84L360.039 181.13L358.747 180.94C358.5 180.904 358.33 180.675 358.367 180.42C358.403 180.173 358.632 180.003 358.88 180.039L361.232 180.385C361.487 180.423 361.657 180.651 361.621 180.898C361.609 180.978 361.574 181.046 361.533 181.105C361.503 181.141 361.473 181.177 361.437 181.205L360.279 182.094C360.473 182.218 360.645 182.374 360.78 182.565Z" fill="white"/>
<path d="M382.71 185.898L381.567 187.067L382.322 188.523C382.432 188.718 382.343 188.99 382.158 189.085C382.07 189.129 381.978 189.148 381.891 189.135C381.763 189.116 381.654 189.027 381.566 188.908L380.929 187.698L379.969 188.673C379.866 188.764 379.745 188.819 379.617 188.8C379.529 188.787 379.437 188.741 379.374 188.675C379.208 188.529 379.21 188.244 379.372 188.088L380.523 186.913L379.758 185.464C379.647 185.277 379.727 185.012 379.929 184.911C380.141 184.804 380.382 184.88 380.498 185.084L381.14 186.27L382.093 185.319C382.271 185.158 382.533 185.156 382.713 185.321C382.862 185.473 382.87 185.751 382.71 185.898Z" fill="#37474F"/>
<path d="M332.329 201.435C332.445 200.703 332.726 200.068 333.152 199.609C333.562 199.148 334.136 198.849 334.766 198.942C335.38 199.032 335.851 199.485 336.111 200.044C336.379 200.605 336.473 201.295 336.365 202.028C336.258 202.754 335.968 203.396 335.55 203.855C335.141 204.308 334.558 204.613 333.944 204.523C333.314 204.431 332.852 203.971 332.591 203.42C332.315 202.859 332.23 202.162 332.329 201.435ZM335.479 201.899C335.563 201.325 335.478 200.799 335.305 200.423C335.123 200.054 334.883 199.856 334.635 199.828C334.389 199.784 334.094 199.903 333.806 200.203C333.532 200.513 333.299 200.992 333.214 201.566C333.131 202.132 333.215 202.666 333.389 203.034C333.578 203.412 333.826 203.604 334.074 203.64C334.321 203.676 334.607 203.564 334.889 203.255C335.162 202.952 335.396 202.465 335.479 201.899Z" fill="white"/>
<path d="M350.694 111.745C350.666 111.932 350.493 112.064 350.302 112.036L349.296 111.888C348.706 112.987 347.205 115.863 346.841 116.688C346.778 116.8 346.71 116.883 346.628 116.931C346.546 116.979 346.464 117 346.383 116.988C346.26 116.97 346.162 116.909 346.085 116.8C346.085 116.8 345.173 115.605 344.895 115.188C344.494 114.594 344.741 114.375 344.815 114.344C344.889 114.313 344.956 114.3 345.016 114.308C345.107 114.321 345.201 114.377 345.3 114.466C345.412 114.622 345.508 114.757 345.593 114.876C345.678 114.995 345.759 115.105 345.837 115.209C345.918 115.319 345.996 115.423 346.07 115.522C346.148 115.626 346.233 115.741 346.33 115.872C346.699 115.103 348.29 112.092 348.707 111.344L348.708 111.34C348.742 111.298 348.779 111.266 348.821 111.24C348.891 111.176 348.993 111.144 349.093 111.159L350.404 111.352C350.594 111.382 350.722 111.559 350.694 111.745Z" fill="#37474F"/>
<path d="M406.543 80.9414L322.273 68.5391L319.306 88.705L403.575 101.107L406.543 80.9414Z" fill="white"/>
<path d="M287.685 205.923C260.2 193.562 232.715 228.255 205.23 215.895C207.367 209.379 209.505 202.578 211.642 195.537C234.008 200.087 256.374 178.324 278.739 180.96C281.721 188.808 284.703 197.089 287.685 205.923Z" fill="#EBEBEB"/>
<path d="M256.324 196.102C256.964 200.069 252.452 205.086 246.25 207.652C240.048 210.225 235.158 208.532 235.324 204.247C235.489 200.006 239.995 195.001 245.391 192.769C250.787 190.535 255.683 192.093 256.324 196.102Z" fill="#DBDBDB"/>
<path d="M268.799 192.25C269.058 193.181 267.992 194.109 266.419 194.432C264.847 194.753 263.402 194.355 263.194 193.444C262.985 192.536 264.05 191.452 265.573 191.111C267.098 190.767 268.541 191.321 268.799 192.25Z" fill="#DBDBDB"/>
<path d="M213.671 195.881C211.689 203.09 209.707 210.105 207.725 216.89C206.892 216.599 206.06 216.268 205.227 215.894C207.364 209.379 209.501 202.579 211.639 195.538C212.317 195.676 212.994 195.79 213.671 195.881Z" fill="#DBDBDB"/>
<path d="M287.684 205.922C286.851 205.547 286.017 205.216 285.184 204.925C282.357 196.445 279.53 188.432 276.703 180.785C277.381 180.821 278.059 180.879 278.738 180.959C281.72 188.807 284.702 197.088 287.684 205.922Z" fill="#DBDBDB"/>
<path d="M287.12 204.26C287.308 204.811 287.495 205.365 287.682 205.921C260.197 193.562 232.712 228.255 205.227 215.894C205.362 215.484 205.497 215.073 205.632 214.661C232.794 226.422 259.957 192.677 287.12 204.26Z" fill="#DBDBDB"/>
<path d="M278.737 180.959C278.925 181.453 279.113 181.948 279.301 182.446C256.613 179.353 233.925 201.803 211.238 196.863C211.372 196.422 211.506 195.979 211.641 195.536C234.006 200.087 256.372 178.325 278.737 180.959Z" fill="#DBDBDB"/>
<path d="M283.475 199.844C283.868 200.998 284.261 202.161 284.653 203.332C282.833 202.734 281.014 202.328 279.194 202.085C278.623 200.312 280.537 199.027 283.475 199.844Z" fill="#DBDBDB"/>
<path d="M272.672 182.219C274.194 182.126 275.716 182.126 277.238 182.233C277.631 183.302 278.025 184.379 278.418 185.463C275.817 185.167 273.245 183.906 272.672 182.219Z" fill="#DBDBDB"/>
<path d="M212.473 200.227C212.748 199.235 213.024 198.239 213.299 197.239C214.816 197.462 216.334 197.569 217.851 197.577C217.475 199.3 215.069 200.693 212.473 200.227Z" fill="#DBDBDB"/>
</g>
</svg>
