<svg width="27" height="27" viewBox="0 0 27 27" fill="none" xmlns="http://www.w3.org/2000/svg">
<path d="M1.2925 13.2925C1.10532 13.1051 1.00012 12.8511 1 12.5863V1H12.5863C12.8511 1.00012 13.1051 1.10532 13.2925 1.2925L25.7075 13.7075C25.8949 13.895 26.0002 14.1493 26.0002 14.4144C26.0002 14.6795 25.8949 14.9337 25.7075 15.1213L15.125 25.7075C14.9375 25.8949 14.6832 26.0002 14.4181 26.0002C14.153 26.0002 13.8988 25.8949 13.7113 25.7075L1.2925 13.2925Z" stroke="#0097B2" stroke-width="2" stroke-linecap="round" stroke-linejoin="round"/>
<path d="M6.5 8C7.32843 8 8 7.32843 8 6.5C8 5.67157 7.32843 5 6.5 5C5.67157 5 5 5.67157 5 6.5C5 7.32843 5.67157 8 6.5 8Z" fill="#7FD2B6"/>
</svg>
