<svg width="1920" height="943" viewBox="0 0 1920 943" fill="none" xmlns="http://www.w3.org/2000/svg">
<rect x="32" y="1" width="1" height="942" fill="white" fill-opacity="0.1"/>
<rect y="1" width="1" height="942" fill="white" fill-opacity="0.1"/>
<rect x="96" y="1" width="1" height="942" fill="white" fill-opacity="0.1"/>
<rect x="64" y="1" width="1" height="942" fill="white" fill-opacity="0.1"/>
<rect x="160" y="1" width="1" height="942" fill="white" fill-opacity="0.1"/>
<rect x="128" y="1" width="1" height="942" fill="white" fill-opacity="0.1"/>
<rect x="224" y="1" width="1" height="942" fill="white" fill-opacity="0.1"/>
<rect x="192" y="1" width="1" height="942" fill="white" fill-opacity="0.1"/>
<rect x="288" y="1" width="1" height="942" fill="white" fill-opacity="0.1"/>
<rect x="256" y="1" width="1" height="942" fill="white" fill-opacity="0.1"/>
<rect x="352" y="1" width="1" height="942" fill="white" fill-opacity="0.1"/>
<rect x="320" y="1" width="1" height="942" fill="white" fill-opacity="0.1"/>
<rect x="416" y="1" width="1" height="942" fill="white" fill-opacity="0.1"/>
<rect x="384" y="1" width="1" height="942" fill="white" fill-opacity="0.1"/>
<rect x="480" y="1" width="1" height="942" fill="white" fill-opacity="0.1"/>
<rect x="448" y="1" width="1" height="942" fill="white" fill-opacity="0.1"/>
<rect x="544" y="1" width="1" height="942" fill="white" fill-opacity="0.1"/>
<rect x="512" y="1" width="1" height="942" fill="white" fill-opacity="0.1"/>
<rect x="608" y="1" width="1" height="942" fill="white" fill-opacity="0.1"/>
<rect x="576" y="1" width="1" height="942" fill="white" fill-opacity="0.1"/>
<rect x="672" y="1" width="1" height="942" fill="white" fill-opacity="0.1"/>
<rect x="640" y="1" width="1" height="942" fill="white" fill-opacity="0.1"/>
<rect x="736" y="1" width="1" height="942" fill="white" fill-opacity="0.1"/>
<rect x="704" y="1" width="1" height="942" fill="white" fill-opacity="0.1"/>
<rect x="800" y="1" width="1" height="942" fill="white" fill-opacity="0.1"/>
<rect x="768" y="1" width="1" height="942" fill="white" fill-opacity="0.1"/>
<rect x="864" y="1" width="1" height="942" fill="white" fill-opacity="0.1"/>
<rect x="832" y="1" width="1" height="942" fill="white" fill-opacity="0.1"/>
<rect x="928" y="1" width="1" height="942" fill="white" fill-opacity="0.1"/>
<rect x="896" y="1" width="1" height="942" fill="white" fill-opacity="0.1"/>
<rect x="992" y="1" width="1" height="942" fill="white" fill-opacity="0.1"/>
<rect x="960" y="1" width="1" height="942" fill="white" fill-opacity="0.1"/>
<rect x="1056" y="1" width="1" height="942" fill="white" fill-opacity="0.1"/>
<rect x="1024" y="1" width="1" height="942" fill="white" fill-opacity="0.1"/>
<rect x="1120" y="1" width="1" height="942" fill="white" fill-opacity="0.1"/>
<rect x="1088" y="1" width="1" height="942" fill="white" fill-opacity="0.1"/>
<rect x="1184" y="1" width="1" height="942" fill="white" fill-opacity="0.1"/>
<rect x="1152" y="1" width="1" height="942" fill="white" fill-opacity="0.1"/>
<rect x="1248" y="1" width="1" height="942" fill="white" fill-opacity="0.1"/>
<rect x="1216" y="1" width="1" height="942" fill="white" fill-opacity="0.1"/>
<rect x="1312" y="1" width="1" height="942" fill="white" fill-opacity="0.1"/>
<rect x="1280" y="1" width="1" height="942" fill="white" fill-opacity="0.1"/>
<rect x="1376" y="1" width="1" height="942" fill="white" fill-opacity="0.1"/>
<rect x="1344" y="1" width="1" height="942" fill="white" fill-opacity="0.1"/>
<rect x="1440" y="1" width="1" height="942" fill="white" fill-opacity="0.1"/>
<rect x="1408" y="1" width="1" height="942" fill="white" fill-opacity="0.1"/>
<rect x="1504" y="1" width="1" height="942" fill="white" fill-opacity="0.1"/>
<rect x="1472" y="1" width="1" height="942" fill="white" fill-opacity="0.1"/>
<rect x="1568" y="1" width="1" height="942" fill="white" fill-opacity="0.1"/>
<rect x="1536" y="1" width="1" height="942" fill="white" fill-opacity="0.1"/>
<rect x="1632" y="1" width="1" height="942" fill="white" fill-opacity="0.1"/>
<rect x="1600" y="1" width="1" height="942" fill="white" fill-opacity="0.1"/>
<rect x="1696" y="1" width="1" height="942" fill="white" fill-opacity="0.1"/>
<rect x="1664" y="1" width="1" height="942" fill="white" fill-opacity="0.1"/>
<rect x="1760" y="1" width="1" height="942" fill="white" fill-opacity="0.1"/>
<rect x="1728" y="1" width="1" height="942" fill="white" fill-opacity="0.1"/>
<rect x="1824" y="1" width="1" height="942" fill="white" fill-opacity="0.1"/>
<rect x="1792" y="1" width="1" height="942" fill="white" fill-opacity="0.1"/>
<rect x="1888" y="1" width="1" height="942" fill="white" fill-opacity="0.1"/>
<rect x="1856" y="1" width="1" height="942" fill="white" fill-opacity="0.1"/>
<rect width="1920" height="1" fill="white" fill-opacity="0.1"/>
<rect y="32" width="1920" height="1" fill="white" fill-opacity="0.1"/>
<rect y="64" width="1920" height="1" fill="white" fill-opacity="0.1"/>
<rect y="96" width="1920" height="1" fill="white" fill-opacity="0.1"/>
<rect y="128" width="1920" height="1" fill="white" fill-opacity="0.1"/>
<rect y="160" width="1920" height="1" fill="white" fill-opacity="0.1"/>
<rect y="192" width="1920" height="1" fill="white" fill-opacity="0.1"/>
<rect y="224" width="1920" height="1" fill="white" fill-opacity="0.1"/>
<rect y="256" width="1920" height="1" fill="white" fill-opacity="0.1"/>
<rect y="288" width="1920" height="1" fill="white" fill-opacity="0.1"/>
<rect y="320" width="1920" height="1" fill="white" fill-opacity="0.1"/>
<rect y="352" width="1920" height="1" fill="white" fill-opacity="0.1"/>
<rect y="384" width="1920" height="1" fill="white" fill-opacity="0.1"/>
<rect y="416" width="1920" height="1" fill="white" fill-opacity="0.1"/>
<rect y="448" width="1920" height="1" fill="white" fill-opacity="0.1"/>
<rect y="480" width="1920" height="1" fill="white" fill-opacity="0.1"/>
<rect y="512" width="1920" height="1" fill="white" fill-opacity="0.1"/>
<rect y="544" width="1920" height="1" fill="white" fill-opacity="0.1"/>
<rect y="576" width="1920" height="1" fill="white" fill-opacity="0.1"/>
<rect y="608" width="1920" height="1" fill="white" fill-opacity="0.1"/>
<rect y="640" width="1920" height="1" fill="white" fill-opacity="0.1"/>
<rect y="672" width="1920" height="1" fill="white" fill-opacity="0.1"/>
<rect y="704" width="1920" height="1" fill="white" fill-opacity="0.1"/>
<rect y="736" width="1920" height="1" fill="white" fill-opacity="0.1"/>
<rect y="768" width="1920" height="1" fill="white" fill-opacity="0.1"/>
<rect y="800" width="1920" height="1" fill="white" fill-opacity="0.1"/>
<rect y="832" width="1920" height="1" fill="white" fill-opacity="0.1"/>
<rect y="864" width="1920" height="1" fill="white" fill-opacity="0.1"/>
<rect y="896" width="1920" height="1" fill="white" fill-opacity="0.1"/>
<rect y="928" width="1920" height="1" fill="white" fill-opacity="0.1"/>
</svg>
