<svg width="511" height="200" viewBox="0 0 511 200" fill="none" xmlns="http://www.w3.org/2000/svg">
<mask id="mask0_4_2094" style="mask-type:alpha" maskUnits="userSpaceOnUse" x="0" y="0" width="511" height="200">
<path d="M0 11C0 4.92487 4.92487 0 11 0H500C506.075 0 511 4.92487 511 11V200H0V11Z" fill="white"/>
</mask>
<g mask="url(#mask0_4_2094)">
<g filter="url(#filter0_f_4_2094)">
<rect x="143" y="-2" width="244" height="244" rx="122" fill="#0097B2" fill-opacity="0.3"/>
</g>
<path d="M511 -110H0V309.985H511V-110Z" fill="white"/>
<path d="M318.167 44.3727C317.448 41.2277 320.85 36.8727 324.858 35.0495C329.9 32.7564 334.584 35.067 335.185 35.376C335.37 34.0858 336.012 30.8688 338.674 28.135C339.402 27.3871 343.399 23.283 348.73 24.4589C352.498 25.2901 355.503 28.4441 356.459 32.4972C356.702 31.8158 357.354 30.2995 358.928 29.2532C359.354 28.9702 360.023 28.5033 360.912 28.4554C362.943 28.3463 364.522 30.342 365.019 31.0174C365.281 20.0147 373.976 11.2244 384.231 10.8048C393.413 10.429 402.019 16.8374 404.486 26.2971C405.353 25.9288 406.631 25.4663 408.226 25.1772C410.4 24.7829 415.874 23.7902 419.563 27.1385C422.774 30.0532 422.741 34.5413 422.708 35.5779C423.763 34.8803 426.136 33.5364 429.176 33.7368C433.818 34.0426 436.672 37.7268 437.92 39.3384C438.511 40.101 441.635 44.133 441.276 46.7629C439.536 59.5355 353.824 52.7397 341.56 51.7673C332.955 51.085 319.415 49.8324 318.167 44.3727Z" fill="#DAF4F9"/>
<path d="M45.5183 45.9254C44.975 43.5496 47.545 40.26 50.5728 38.8828C54.381 37.1505 57.9197 38.8959 58.3735 39.1293C58.5131 38.1547 58.998 35.7247 61.0091 33.6595C61.5591 33.0946 64.5783 29.9944 68.6051 30.8826C71.4515 31.5105 73.7212 33.8931 74.444 36.9546C74.6275 36.4399 75.1196 35.2945 76.3091 34.5041C76.6309 34.2903 77.1359 33.9376 77.8077 33.9015C79.3418 33.8191 80.5348 35.3267 80.91 35.8368C81.1076 27.5256 87.6757 20.8855 95.4223 20.5685C102.358 20.2846 108.859 25.1255 110.722 32.2711C111.378 31.993 112.343 31.6436 113.548 31.4252C115.19 31.1274 119.325 30.3774 122.111 32.9067C124.537 35.1084 124.512 38.4987 124.487 39.2817C125.284 38.7547 127.077 37.7397 129.373 37.8909C132.879 38.1219 135.035 40.9048 135.978 42.1224C136.425 42.6985 138.784 45.7441 138.513 47.7307C137.198 57.379 72.4531 52.2454 63.1887 51.5109C56.6893 50.9957 46.4614 50.0494 45.5183 45.9254Z" fill="#DAF4F9"/>
<path d="M443.335 100.007C440.259 100.965 439.482 101.741 438.525 104.817C437.567 101.741 436.791 100.965 433.715 100.007C436.791 99.0494 437.567 98.2729 438.525 95.1973C439.482 98.2731 440.259 99.0494 443.335 100.007Z" fill="url(#paint0_linear_4_2094)"/>
<path d="M55.0182 122.013C51.9425 122.971 51.1661 123.747 50.2083 126.823C49.2506 123.747 48.4741 122.971 45.3984 122.013C48.4741 121.055 49.2506 120.279 50.2083 117.203C51.1661 120.279 51.9425 121.055 55.0182 122.013Z" fill="url(#paint1_linear_4_2094)"/>
<path d="M152.245 267.033H343.018C348.37 267.033 352.709 262.694 352.709 257.342V-11.7462C352.709 -17.0981 348.37 -21.4365 343.018 -21.4365H152.245C146.893 -21.4365 142.555 -17.098 142.555 -11.7462V257.342C142.555 262.694 146.893 267.033 152.245 267.033Z" fill="url(#paint2_linear_4_2094)"/>
<path d="M154.596 262.154H341.67C344.584 262.154 346.946 259.792 346.946 256.878V-11.2806C346.946 -14.1945 344.584 -16.5566 341.67 -16.5566H154.596C151.683 -16.5566 149.32 -14.1945 149.32 -11.2806V256.878C149.32 259.792 151.683 262.154 154.596 262.154Z" fill="white"/>
<path d="M329.131 92.4273H202.109C200.506 92.4273 199.207 90.9391 199.207 89.1033C199.207 87.2674 200.506 85.7792 202.109 85.7792H329.131C330.734 85.7792 332.033 87.2674 332.033 89.1033C332.033 90.9391 330.734 92.4273 329.131 92.4273Z" fill="#DAF4F9"/>
<path d="M329.132 100.518H202.11C201.881 100.518 201.695 100.332 201.695 100.103C201.695 99.8739 201.881 99.6884 202.11 99.6884H329.132C329.361 99.6884 329.547 99.8739 329.547 100.103C329.547 100.332 329.361 100.518 329.132 100.518Z" fill="#DAF4F9"/>
<path d="M289.437 113.679H202.11C200.591 113.679 199.359 112.268 199.359 110.528C199.359 108.788 200.591 107.377 202.11 107.377H289.437C290.956 107.377 292.187 108.788 292.187 110.528C292.187 112.268 290.956 113.679 289.437 113.679Z" fill="#DAF4F9"/>
<path d="M329.131 40.0095H202.109C200.506 40.0095 199.207 38.5213 199.207 36.6854C199.207 34.8495 200.506 33.3613 202.109 33.3613H329.131C330.734 33.3613 332.033 34.8495 332.033 36.6854C332.033 38.5213 330.734 40.0095 329.131 40.0095Z" fill="#DAF4F9"/>
<path d="M329.132 48.0996H202.11C201.881 48.0996 201.695 47.914 201.695 47.685C201.695 47.456 201.881 47.2704 202.11 47.2704H329.132C329.361 47.2704 329.547 47.456 329.547 47.685C329.547 47.914 329.361 48.0996 329.132 48.0996Z" fill="#DAF4F9"/>
<path d="M289.437 61.2608H202.11C200.591 61.2608 199.359 59.8501 199.359 58.1099C199.359 56.3697 200.591 54.959 202.11 54.959H289.437C290.956 54.959 292.187 56.3697 292.187 58.1099C292.187 59.8501 290.956 61.2608 289.437 61.2608Z" fill="#DAF4F9"/>
<path d="M329.131 144.507H202.109C200.506 144.507 199.207 143.019 199.207 141.183C199.207 139.347 200.506 137.859 202.109 137.859H329.131C330.734 137.859 332.033 139.347 332.033 141.183C332.033 143.019 330.734 144.507 329.131 144.507Z" fill="#DAF4F9"/>
<path d="M329.132 152.598H202.11C201.881 152.598 201.695 152.412 201.695 152.183C201.695 151.954 201.881 151.769 202.11 151.769H329.132C329.361 151.769 329.547 151.954 329.547 152.183C329.547 152.412 329.361 152.598 329.132 152.598Z" fill="#DAF4F9"/>
<path d="M289.437 165.759H202.11C200.591 165.759 199.359 164.348 199.359 162.608C199.359 160.868 200.591 159.457 202.11 159.457H289.437C290.956 159.457 292.187 160.868 292.187 162.608C292.187 164.348 290.956 165.759 289.437 165.759Z" fill="#DAF4F9"/>
<path d="M328.447 192.829H171.446C169.465 192.829 167.859 191.341 167.859 189.505C167.859 187.669 169.465 186.181 171.446 186.181H328.447C330.427 186.181 332.033 187.669 332.033 189.505C332.033 191.341 330.427 192.829 328.447 192.829Z" fill="#DAF4F9"/>
<path d="M177.856 114.501C186.136 114.501 192.848 107.789 192.848 99.509C192.848 91.2289 186.136 84.5166 177.856 84.5166C169.576 84.5166 162.863 91.2289 162.863 99.509C162.863 107.789 169.576 114.501 177.856 114.501Z" fill="#DAF4F9"/>
<path d="M188.456 61.238C194.311 55.3831 194.311 45.8906 188.456 40.0357C182.601 34.1809 173.108 34.1809 167.253 40.0357C161.399 45.8906 161.399 55.3831 167.253 61.238C173.108 67.0928 182.601 67.0928 188.456 61.238Z" fill="#0097B2"/>
<path d="M176.431 60.5682C176.28 60.5682 176.14 60.4856 176.067 60.3524L170.523 50.1995C170.414 49.9984 170.488 49.7466 170.689 49.6368C170.89 49.5271 171.142 49.6011 171.251 49.802L176.415 59.2592L184.645 42.8142C184.748 42.6094 184.997 42.5263 185.202 42.6289C185.407 42.7314 185.49 42.9805 185.387 43.1853L176.802 60.3393C176.733 60.4773 176.593 60.5656 176.439 60.5684C176.436 60.5682 176.434 60.5682 176.431 60.5682Z" fill="#252525"/>
<path d="M177.856 65.0745C186.136 65.0745 192.848 58.3622 192.848 50.0821C192.848 41.802 186.136 35.0897 177.856 35.0897C169.576 35.0897 162.863 41.802 162.863 50.0821C162.863 58.3622 169.576 65.0745 177.856 65.0745Z" fill="#DAF4F9"/>
<path d="M177.856 165.221C186.136 165.221 192.848 158.509 192.848 150.229C192.848 141.949 186.136 135.236 177.856 135.236C169.576 135.236 162.863 141.949 162.863 150.229C162.863 158.509 169.576 165.221 177.856 165.221Z" fill="#DAF4F9"/>
<path d="M320.428 20.801H174.468C172.529 20.801 170.957 19.229 170.957 17.29V7.78558C170.957 5.84643 172.529 4.27441 174.468 4.27441H320.428C322.367 4.27441 323.939 5.84643 323.939 7.78558V17.29C323.939 19.229 322.367 20.801 320.428 20.801Z" fill="#DAF4F9"/>
<path d="M177.341 158.214L169.492 150.444L172.051 147.859L177.172 152.927L185.669 143.363L188.389 145.779L177.341 158.214Z" fill="#0097B2"/>
<path d="M177.341 107.651L169.492 99.8817L172.051 97.2963L177.172 102.365L185.669 92.8008L188.389 95.217L177.341 107.651Z" fill="#0097B2"/>
<path d="M177.341 58.8634L169.492 51.0936L172.051 48.5084L177.172 53.5769L185.669 44.0127L188.389 46.4289L177.341 58.8634Z" fill="#0097B2"/>
<path d="M326.734 183.704H422.259V100.381H326.734V183.704Z" fill="url(#paint3_linear_4_2094)"/>
<path d="M283.746 183.704H379.27V100.381H283.746V183.704Z" fill="url(#paint4_linear_4_2094)"/>
<path d="M335.283 100.382H323.824V112.979H335.283V100.382Z" fill="white"/>
<path d="M408.365 100.382H396.906V112.979H408.365V100.382Z" fill="white"/>
<path d="M422.259 160.198C422.096 160.198 421.964 160.066 421.964 159.903V100.676H397.584C397.421 100.676 397.289 100.544 397.289 100.381C397.289 100.218 397.421 100.086 397.584 100.086H422.259C422.422 100.086 422.554 100.218 422.554 100.381V159.903C422.554 160.066 422.422 160.198 422.259 160.198Z" fill="#1A292F"/>
<path d="M379.271 143.933C379.109 143.933 378.977 143.801 378.977 143.638V100.382C378.977 100.219 379.109 100.087 379.271 100.087C379.434 100.087 379.566 100.219 379.566 100.382V143.638C379.566 143.801 379.434 143.933 379.271 143.933Z" fill="#1A292F"/>
<path d="M344.461 267.03H439.985V183.707H344.461V267.03Z" fill="url(#paint5_linear_4_2094)"/>
<path d="M301.473 267.03H396.997V183.707H301.473V267.03Z" fill="url(#paint6_linear_4_2094)"/>
<path d="M426.092 183.707H414.633V196.304H426.092V183.707Z" fill="white"/>
<path d="M439.986 243.524C439.823 243.524 439.691 243.392 439.691 243.229V184.002H415.31C415.148 184.002 415.016 183.87 415.016 183.707C415.016 183.544 415.148 183.412 415.31 183.412H439.986C440.148 183.412 440.28 183.544 440.28 183.707V243.229C440.28 243.392 440.149 243.524 439.986 243.524Z" fill="#1A292F"/>
<path d="M396.996 227.258C396.834 227.258 396.702 227.126 396.702 226.963V184.002H355.6C355.437 184.002 355.305 183.87 355.305 183.707C355.305 183.544 355.437 183.412 355.6 183.412H396.996C397.159 183.412 397.291 183.544 397.291 183.707V226.963C397.291 227.126 397.159 227.258 396.996 227.258Z" fill="#1A292F"/>
<path d="M250.5 267.03H346.024V183.707H250.5V267.03Z" fill="url(#paint7_linear_4_2094)"/>
<path d="M207.512 267.03H303.036V183.707H207.512V267.03Z" fill="url(#paint8_linear_4_2094)"/>
<path d="M259.049 183.707H247.59V196.304H259.049V183.707Z" fill="#AA9477"/>
<path d="M332.131 183.707H320.672V196.304H332.131V183.707Z" fill="white"/>
<path d="M346.025 243.524C345.862 243.524 345.73 243.392 345.73 243.229V184.002H321.35C321.187 184.002 321.055 183.87 321.055 183.707C321.055 183.544 321.187 183.412 321.35 183.412H346.025C346.188 183.412 346.319 183.544 346.319 183.707V243.229C346.32 243.392 346.188 243.524 346.025 243.524Z" fill="#1A292F"/>
<path d="M303.033 227.258C302.87 227.258 302.738 227.126 302.738 226.963V183.707C302.738 183.544 302.87 183.412 303.033 183.412C303.196 183.412 303.328 183.544 303.328 183.707V226.963C303.328 227.126 303.196 227.258 303.033 227.258Z" fill="#1A292F"/>
<path d="M286.35 150.479C286.35 150.479 271.421 150.349 270.594 150.362C264.175 158.126 241.835 167.997 226.575 181.038C224.003 183.479 220.193 190.168 225.051 195.721C235.006 207.102 256.512 220.957 265.729 226.588C267.998 225.605 272.981 219.557 272.228 218.696C268.447 210.956 258.679 202.569 250.587 194.61C263.479 191.322 280.99 186.431 287.244 182.78C298.367 176.285 286.35 150.479 286.35 150.479Z" fill="#DEDEDE"/>
<path d="M301.208 149.117C301.208 149.117 278.114 153.601 277.288 153.632C271.771 163.61 252.363 170.169 237.167 182.136C235.673 183.164 234.004 186.142 232.591 189.134C226.136 202.807 213.386 232.696 210.316 243.051C211.85 244.991 219.549 248.085 220.546 247.513C233.4 236.361 246.3 204.618 249.236 198.862C249.386 198.893 290.261 188.543 300.459 182.276C311.433 175.532 301.208 149.117 301.208 149.117Z" fill="#E6E6E6"/>
<path d="M227.438 200.877C227.373 200.877 227.307 200.862 227.246 200.829C227.045 200.723 226.969 200.474 227.075 200.273L234.764 185.785C236.13 183.211 238.14 181.005 240.577 179.406L273.392 157.877C273.582 157.752 273.837 157.805 273.962 157.995C274.086 158.185 274.033 158.44 273.843 158.565L241.028 180.094C238.707 181.617 236.792 183.718 235.49 186.171L227.802 200.659C227.728 200.798 227.585 200.877 227.438 200.877Z" fill="#1A292F"/>
<path d="M258.867 156.437C258.975 156.185 240.916 137.916 245.839 127.091C248.59 126.925 257.183 129.029 256.47 132.401C253.479 146.568 264.757 154.423 262.89 157.047C261.795 157.15 259.116 156.53 258.867 156.437Z" fill="#E0997A"/>
<path d="M243.375 128.205C248.405 115.081 257.101 98.8863 260.785 95.7568C266.158 98.0907 279.982 102.243 279.809 102.908C275.697 109.705 274.233 118.69 266.838 126.293C264.114 129.093 261.533 133.272 257.703 137.478C254.824 140.64 245.009 129.441 243.375 128.205Z" fill="#5B494E"/>
<path d="M294.446 84.4651C295.889 91.3314 299.136 100.802 295.41 107.714C287.232 112.453 284.099 110.529 275.148 107.492C273.68 106.994 272.258 106.371 270.838 105.749C267.796 104.418 264.755 103.086 261.714 101.754C261.044 101.461 260.281 101.05 260.186 100.325C260.133 99.9286 260.304 99.5401 260.471 99.1762C262.08 95.6674 264.115 93.0816 265.451 89.0673C266.166 86.9189 266.964 84.4234 267.523 82.2291C268.057 80.1304 268.283 77.9678 268.542 75.8176C268.941 72.497 269.822 65.7005 271.677 61.6932C273.083 58.6584 273.756 59.9727 276.567 58.1601C279.378 56.3476 283.117 55.8055 286.123 57.2714C288.012 58.1925 289.476 59.768 291.127 61.0317C292.174 61.8334 293.098 62.3797 293.517 63.6893C294.83 67.796 293.943 72.8183 293.885 77.0476C293.851 79.5301 293.934 82.0285 294.446 84.4651Z" fill="#312A2A"/>
<path d="M256.805 101.419C259.958 94.5111 266.538 90.8295 272.611 90.4812C273.866 90.4092 277.467 91.9755 282.31 92.6029C287.131 91.8228 292.545 90.9493 292.571 90.9562C300.821 93.1972 303.159 93.3246 307.388 97.7138C308.09 98.4423 304.291 107.029 303.7 110.376C302.893 114.946 301.117 144.5 301.305 149.108C290.333 154.544 265.182 151.047 264.284 150.688C264.707 137.869 261.831 117.851 260.541 110.066C260.032 106.993 256.427 102.249 256.805 101.419Z" fill="#5B494E"/>
<path d="M287.09 87.6437L287.801 73.0635L277.88 77.0299L277.384 87.9766C277.381 88.0511 277.374 88.125 277.362 88.1978C277.226 89.0578 276.444 89.9586 275.576 90.025L271.371 90.6724C271.371 90.6724 278.886 102.141 292.968 91.0638C290.867 90.3565 289.517 90.0621 288.313 89.5762C287.535 89.2623 287.049 88.4813 287.09 87.6437Z" fill="#E0997A"/>
<path d="M287.631 76.5407L287.311 83.0985C283.805 85.6149 279.269 84.6486 277.551 84.2786L277.879 77.0302L286.11 73.7393C286.482 74.7302 287.203 75.5092 287.631 76.5407Z" fill="#C7795E"/>
<path d="M281.351 96.1121C279.033 96.1121 277.179 95.5094 275.803 94.8029C272.877 93.3014 271.458 91.0714 271.399 90.9773C271.278 90.7848 271.337 90.5311 271.529 90.4105C271.721 90.2902 271.975 90.3481 272.096 90.5403C272.109 90.5617 273.475 92.6957 276.213 94.0889C279.876 95.9529 284.144 95.6823 288.897 93.2849C289.099 93.1827 289.347 93.2641 289.449 93.4668C289.551 93.6696 289.47 93.9168 289.267 94.0192C286.212 95.5601 283.569 96.1121 281.351 96.1121Z" fill="#1A292F"/>
<path d="M303.277 114.4C303.056 114.4 302.873 114.224 302.867 114.001C302.856 113.633 302.622 104.972 304.48 101.756C304.594 101.559 304.845 101.492 305.042 101.605C305.239 101.719 305.306 101.97 305.192 102.167C303.45 105.183 303.686 113.889 303.689 113.976C303.696 114.203 303.517 114.393 303.29 114.4C303.286 114.4 303.282 114.4 303.277 114.4Z" fill="#1A292F"/>
<path d="M274.129 57.9332C275.025 56.9113 276.208 56.1453 277.487 55.688C278.464 55.3391 279.501 55.1935 280.533 55.0881C281.903 54.9482 285.006 54.4566 289.183 57.0718C292.227 58.978 293.314 62.1471 293.568 64.2081C293.992 67.6495 293.162 71.2396 291.231 74.1196C289.3 76.9996 286.277 79.1378 282.906 79.953C281.616 80.2651 273.117 74.4154 271.901 72.0917C271.334 71.0072 268.296 64.5858 274.129 57.9332Z" fill="#312A2A"/>
<path d="M290.737 70.3794C290.741 77.2756 287.29 82.2786 283.957 82.7468C277.272 83.6856 274.405 77.8383 273.83 70.5604C273.286 63.6857 277.814 59.4362 282.583 59.4334C287.352 59.4305 290.733 63.4833 290.737 70.3794Z" fill="#E0997A"/>
<path d="M286.414 70.848C286.421 71.3123 286.621 71.686 286.86 71.6825C287.099 71.6791 287.288 71.2999 287.281 70.8355C287.275 70.3711 287.075 69.9975 286.836 70.001C286.596 70.0045 286.408 70.3837 286.414 70.848Z" fill="#312A2A"/>
<path d="M278.922 70.1999C278.873 70.6616 278.64 71.0153 278.402 70.9899C278.164 70.9645 278.011 70.5695 278.06 70.1077C278.11 69.646 278.343 69.2922 278.581 69.3177C278.819 69.3432 278.972 69.7381 278.922 70.1999Z" fill="#312A2A"/>
<path d="M274.274 70.5587C274.274 70.5587 271.449 68.1409 270.082 70.3664C269.705 70.9807 269.589 71.7282 269.74 72.433C270.06 73.9284 271.315 76.1871 275.055 75.4573C275.058 75.628 274.274 70.5587 274.274 70.5587Z" fill="#E0997A"/>
<path d="M273.889 74.1109C273.746 74.1109 273.607 74.0365 273.531 73.9037C272.544 72.1747 270.843 72.0081 270.771 72.0019C270.546 71.9823 270.378 71.7839 270.396 71.5582C270.415 71.3325 270.61 71.1633 270.837 71.1821C270.927 71.1891 273.036 71.3784 274.246 73.4956C274.358 73.6928 274.29 73.944 274.092 74.0566C274.028 74.0935 273.958 74.1109 273.889 74.1109Z" fill="#1A292F"/>
<path d="M271.833 73.6346C271.731 73.6346 271.629 73.5968 271.549 73.5206C271.385 73.3638 271.379 73.1034 271.536 72.9394L272.32 72.1193C272.477 71.9552 272.737 71.9491 272.901 72.1062C273.066 72.2631 273.071 72.5235 272.914 72.6875L272.13 73.5075C272.05 73.592 271.942 73.6346 271.833 73.6346Z" fill="#1A292F"/>
<path d="M290.202 70.7991C290.202 70.7991 292.937 68.2795 294.384 70.4533C294.783 71.0534 294.927 71.7961 294.802 72.506C294.537 74.0121 293.365 76.3152 289.602 75.7231C289.605 75.8938 290.202 70.7991 290.202 70.7991Z" fill="#E0997A"/>
<path d="M290.7 74.3378C290.636 74.3378 290.571 74.3227 290.51 74.2907C290.309 74.1854 290.231 73.937 290.336 73.7357C291.467 71.5754 293.568 71.3089 293.657 71.2986C293.883 71.2728 294.087 71.434 294.113 71.6597C294.139 71.885 293.978 72.0886 293.753 72.1154C293.676 72.1251 291.987 72.3563 291.065 74.117C290.991 74.2575 290.848 74.3378 290.7 74.3378Z" fill="#1A292F"/>
<path d="M292.74 73.7862C292.637 73.7862 292.534 73.7476 292.454 73.6698L291.64 72.8791C291.478 72.7208 291.474 72.4604 291.632 72.2975C291.791 72.1347 292.051 72.1311 292.214 72.2893L293.027 73.0801C293.19 73.2384 293.194 73.4987 293.035 73.6615C292.955 73.7445 292.848 73.7862 292.74 73.7862Z" fill="#1A292F"/>
<path d="M273.808 70.2147C276.122 63.3381 283.917 62.06 283.742 59.5044C281.951 59.3461 280.838 57.4102 279.047 57.2519C278.448 57.199 277.839 57.1466 277.249 57.2647C276.447 57.4253 275.739 57.8901 275.113 58.4155C273.941 59.3985 272.98 60.6302 272.31 62.0051C271.974 62.6949 271.707 63.4361 271.689 64.2032C271.653 65.6757 272.52 67.018 272.745 68.4737C272.922 69.622 273.234 69.8996 273.808 70.2147Z" fill="#312A2A"/>
<path d="M282.823 75.0096C282.476 75.0096 282.132 74.9566 281.799 74.8519C281.656 74.8068 281.22 74.6695 281.021 74.2722C280.789 73.8088 281.025 73.3113 281.125 73.0989C281.217 72.9062 281.313 72.7152 281.408 72.5244C281.61 72.1213 281.801 71.7407 281.954 71.3409C282.204 70.686 282.289 70.1209 282.215 69.6135C282.182 69.3889 282.337 69.18 282.562 69.1469C282.786 69.1142 282.995 69.2692 283.028 69.494C283.124 70.1442 283.024 70.8443 282.722 71.6343C282.555 72.0724 282.346 72.4895 282.143 72.8929C282.05 73.0784 281.957 73.2638 281.869 73.4513C281.759 73.682 281.721 73.8343 281.756 73.9039C281.769 73.9297 281.823 73.9975 282.046 74.0676C282.327 74.1562 282.62 74.1958 282.914 74.1856C283.14 74.1778 283.332 74.3553 283.34 74.5823C283.347 74.8092 283.17 74.9996 282.943 75.0075C282.903 75.0089 282.863 75.0096 282.823 75.0096Z" fill="#1A292F"/>
<path d="M283.18 59.5615C283.18 59.5615 289.786 63.6184 291.095 70.1476C291.096 70.1468 295.851 57.8783 282.645 57.5684L283.18 59.5615Z" fill="#312A2A"/>
<path d="M268.117 79.1582C266.735 85.2715 264.264 90.7251 262.096 97.3443C260.499 102.219 263.708 109.634 264.03 115.155C266.471 116.382 272.977 115.772 275.305 114.344C275.73 103.869 278.06 98.2878 277.171 83.8585C276.412 84.0467 275.36 82.2127 274.721 81.7627C273.117 80.6327 270.015 79.656 268.117 79.1582Z" fill="#312A2A"/>
<path d="M264.545 112.646C264.406 112.646 264.27 112.575 264.193 112.448C263.894 111.954 263.572 111.458 263.233 110.933C261.068 107.592 258.374 103.433 260.248 96.9845C260.911 94.7023 262.364 92.2972 263.769 89.9713C265.478 87.143 267.246 84.2183 267.642 81.4753C267.674 81.2505 267.883 81.0948 268.107 81.127C268.332 81.1595 268.488 81.3679 268.456 81.5928C268.036 84.5009 266.225 87.4981 264.473 90.3966C263.032 92.7822 261.67 95.0353 261.037 97.2139C259.269 103.301 261.741 107.118 263.923 110.486C264.266 111.016 264.591 111.517 264.896 112.022C265.014 112.216 264.952 112.469 264.757 112.587C264.691 112.627 264.617 112.646 264.545 112.646Z" fill="#1A292F"/>
<path d="M284.769 77.0199C284.769 77.0199 281.381 76.8105 279.914 76.5938C279.914 76.5938 281.485 82.1223 284.769 77.0199Z" fill="white"/>
<path d="M289.116 69.1982C289.022 69.1982 288.928 69.1663 288.851 69.1012C288.791 69.0508 287.375 67.8931 285.33 68.4192C285.111 68.4757 284.886 68.3436 284.83 68.1234C284.773 67.9035 284.906 67.6793 285.125 67.6228C287.595 66.9873 289.31 68.4126 289.382 68.4736C289.555 68.6205 289.576 68.88 289.429 69.0531C289.348 69.1489 289.232 69.1982 289.116 69.1982Z" fill="#1A292F"/>
<path d="M276.533 68.2848C276.408 68.2848 276.285 68.2282 276.204 68.1207C276.067 67.9392 276.104 67.6815 276.285 67.545C278.004 66.2524 280.036 67.0223 280.122 67.0556C280.333 67.138 280.438 67.3765 280.355 67.588C280.273 67.7993 280.035 67.9038 279.824 67.8222C279.807 67.8158 278.126 67.1896 276.78 68.2021C276.706 68.2578 276.619 68.2848 276.533 68.2848Z" fill="#1A292F"/>
<path d="M263.129 127.346C262.933 127.346 262.759 127.205 262.724 127.004C261.462 119.637 259.168 108.195 258.022 106.872C257.874 106.7 257.892 106.44 258.064 106.292C258.236 106.143 258.496 106.162 258.644 106.333C260.307 108.255 263.209 124.966 263.535 126.865C263.573 127.089 263.423 127.302 263.199 127.34C263.176 127.344 263.152 127.346 263.129 127.346Z" fill="#1A292F"/>
<path d="M279.842 152.582C275.211 152.582 269.907 152.196 264.208 151.091C263.985 151.048 263.84 150.832 263.883 150.609C263.926 150.386 264.142 150.24 264.365 150.284C275.247 152.393 284.673 151.856 290.663 151.034C297.159 150.143 301.13 148.735 301.169 148.72C301.383 148.644 301.618 148.755 301.695 148.968C301.772 149.182 301.661 149.418 301.447 149.494C301.407 149.509 297.374 150.941 290.802 151.845C287.881 152.247 284.153 152.582 279.842 152.582Z" fill="#1A292F"/>
<path d="M318.151 127.144C317.245 126.254 316.564 125.47 314.349 126.238C308.314 128.331 288.596 134.812 282.888 137.293C282.377 137.457 282.733 137.519 282.352 137.654C283.715 139.522 284.098 143.943 284.239 144.442C287.81 144.028 314.339 143.143 320.181 137.511C323.936 133.89 320.326 129.281 318.151 127.144Z" fill="#E0997A"/>
<path d="M267.69 140.883C268.454 140.581 270.908 139.599 272.904 138.66C273.642 138.313 274.397 138.009 275.166 137.738C277.189 137.027 281.297 135.702 282.66 137.633C282.77 137.789 281.471 142.776 274.828 142.445C274.81 142.461 275.274 141.055 271.357 141.857C270.664 142.098 267.626 142.595 267.415 141.417C267.372 141.18 267.494 140.96 267.69 140.883Z" fill="#E0997A"/>
<path d="M321.785 133.112C321.825 133.098 321.864 133.083 321.902 133.067C322.364 132.873 322.738 132.366 322.604 131.882C322.559 131.719 322.461 131.571 322.436 131.403C322.398 131.161 322.515 130.925 322.552 130.683C322.655 130.017 322.163 129.428 321.865 128.823C321.35 127.778 321.406 126.582 321.096 125.48C320.759 124.281 320.375 123.062 319.983 121.875C318.829 118.382 317.38 114.986 315.766 111.682C313.289 106.615 310.872 101.284 306.917 97.1813C306.203 96.4411 305.111 95.4945 304.099 95.3153C297.835 94.2056 291.348 97.9609 291.791 104.227C292.052 107.904 294.21 111.557 295.979 114.689C298.244 118.699 300.58 122.798 303.957 125.949C304.225 126.198 304.517 126.549 304.375 126.886C304.282 127.109 304.032 127.219 303.883 127.409C303.478 127.926 304.009 128.691 304.618 128.938C307.508 130.11 310.639 130.86 313.636 131.695C315.039 132.085 316.442 132.469 317.869 132.764C318.982 132.993 320.64 133.512 321.785 133.112Z" fill="#5B494E"/>
<path d="M302.469 124.844C302.277 124.844 302.106 124.71 302.066 124.515C301.953 123.966 299.334 110.991 302.17 104.36C302.259 104.151 302.501 104.054 302.71 104.143C302.919 104.233 303.015 104.474 302.926 104.683C300.192 111.078 302.845 124.218 302.872 124.35C302.917 124.572 302.774 124.789 302.552 124.835C302.524 124.841 302.496 124.844 302.469 124.844Z" fill="#1A292F"/>
<path d="M311.236 128.32C311.211 128.32 311.186 128.318 311.16 128.313L304.492 127.069C304.269 127.027 304.122 126.813 304.164 126.589C304.205 126.366 304.42 126.219 304.643 126.261L311.311 127.505C311.534 127.546 311.681 127.761 311.64 127.984C311.603 128.182 311.43 128.32 311.236 128.32Z" fill="#1A292F"/>
<path d="M246 139.516L234.735 188.449L241.874 180.295L245.044 190.867L256.31 141.934L246 139.516Z" fill="#0E6F81"/>
<path d="M245.524 142.73L259.81 190.867L262.011 180.255L269.974 187.895L255.688 139.758L245.524 142.73Z" fill="#0E6F81"/>
<path d="M271.133 127.454C272.735 129.317 272.305 132.374 273.042 134.263C273.739 136.046 277.725 136.791 277.725 140.664C277.725 142.638 275.18 144.939 275.012 146.894C274.811 149.227 277.317 151.677 276.458 153.906C275.527 156.323 272.434 156.045 270.712 158.164C269.165 160.065 269.915 163.597 267.996 164.923C265.869 166.393 262.721 165.187 260.308 165.933C258.362 166.535 257.013 169.394 254.987 169.515C252.727 169.65 250.586 167.095 248.351 166.618C246.656 166.256 242.969 167.592 241.354 166.872C239.371 165.987 239.292 162.312 237.526 160.876C235.265 159.037 232.401 159.988 230.955 157.639C229.493 155.265 231.672 152.132 231.066 149.466C230.552 147.206 227.446 144.921 227.587 142.606C227.789 139.289 230.667 138.055 231.364 135.922C232.298 133.061 230.771 130.721 232.784 128.247C234.431 126.221 237.409 126.694 239.476 125.321C241.358 124.071 242.035 121.3 244.17 120.709C247.114 119.894 249.147 121.654 251.485 121.555C253.434 121.473 255.961 119.896 258.346 120.159C261.593 120.517 262.559 124.082 264.428 124.947C266.297 125.812 269.676 125.76 271.133 127.454Z" fill="#0097B2"/>
<path d="M263.723 155.696C270.002 149.416 270.002 139.235 263.723 132.956C257.444 126.677 247.263 126.677 240.983 132.956C234.704 139.235 234.704 149.416 240.983 155.696C247.263 161.975 257.444 161.975 263.723 155.696Z" fill="#0E6F81"/>
<path d="M252.353 158.859C260.379 158.859 266.886 152.352 266.886 144.326C266.886 136.3 260.379 129.794 252.353 129.794C244.327 129.794 237.821 136.3 237.821 144.326C237.821 152.352 244.327 158.859 252.353 158.859Z" fill="white"/>
<path d="M251.08 152.101L243.641 143.938L246.33 141.487L251.182 146.813L260.161 137.698L262.752 140.25L251.08 152.101Z" fill="#0097B2"/>
<path d="M281.774 137.243C281.774 137.243 275.792 138.117 273.133 139.884C273.944 142.337 274.953 147.435 277.644 149.237C280.2 148.642 281.97 147.676 284.822 144.121C286.113 144.694 287.667 137.377 284.215 137.254C282.708 137.201 281.774 137.243 281.774 137.243Z" fill="#E0997A"/>
<path d="M273.919 139.527C273.925 139.497 273.929 139.48 273.929 139.48C273.929 139.48 273.918 139.485 273.899 139.495L273.87 139.449C273.87 139.449 273.764 139.523 273.59 139.65C271.887 140.512 264.368 144.401 264.87 145.606C265.066 145.923 265.771 145.932 267.114 145.518C265.581 146.314 264.391 147.121 264.522 147.66C264.657 147.982 265.06 148.182 266.146 148.02C265.511 148.397 265.126 148.757 265.182 149.064C265.317 149.447 265.823 149.686 267.376 149.441C267.167 149.607 267.054 149.774 267.065 149.94C267.211 150.573 267.932 151.216 272.895 150.271C276.574 149.792 279.57 148.581 279.57 148.581L273.919 139.527Z" fill="#E0997A"/>
<path d="M266.146 148.431C265.98 148.431 265.824 148.33 265.762 148.166C265.681 147.954 265.787 147.716 266 147.636L273.518 144.77C273.731 144.689 273.968 144.795 274.049 145.008C274.13 145.22 274.023 145.457 273.811 145.538L266.292 148.404C266.244 148.422 266.195 148.431 266.146 148.431Z" fill="#1A292F"/>
<path d="M267.376 149.852C267.193 149.852 267.026 149.729 266.978 149.543C266.922 149.323 267.054 149.099 267.274 149.043C267.329 149.029 272.792 147.623 274.227 147.035C274.437 146.949 274.677 147.05 274.763 147.26C274.849 147.47 274.748 147.71 274.538 147.796C273.051 148.405 267.705 149.781 267.479 149.839C267.444 149.848 267.41 149.852 267.376 149.852Z" fill="#1A292F"/>
<path d="M266.888 146.104C266.732 146.104 266.583 146.014 266.514 145.863C266.42 145.656 266.511 145.412 266.718 145.318L272.121 142.859C272.328 142.765 272.572 142.856 272.666 143.063C272.76 143.27 272.669 143.513 272.462 143.607L267.058 146.067C267.003 146.092 266.945 146.104 266.888 146.104Z" fill="#1A292F"/>
<path d="M243.325 212.015C243.267 212.015 243.208 212.003 243.152 211.977C242.946 211.882 242.857 211.637 242.952 211.431L248.862 198.689C248.914 198.576 249.014 198.493 249.134 198.463L253.69 197.312C253.911 197.257 254.134 197.39 254.19 197.61C254.245 197.83 254.112 198.054 253.892 198.11L249.526 199.212L243.698 211.777C243.629 211.927 243.48 212.015 243.325 212.015Z" fill="#1A292F"/>
<path d="M275.122 191.316C274.946 191.316 274.783 191.202 274.729 191.025C274.663 190.807 274.785 190.578 275.003 190.512L294.682 184.528C297.258 183.745 300.464 182.77 302.453 180.517C305.199 177.406 305.098 172.814 304.76 168.377C304.742 168.151 304.912 167.953 305.138 167.936C305.364 167.916 305.562 168.088 305.58 168.315C305.916 172.725 306.028 177.71 303.069 181.061C300.926 183.489 297.596 184.501 294.921 185.315L275.242 191.298C275.202 191.311 275.162 191.316 275.122 191.316Z" fill="#1A292F"/>
<path d="M64.8841 198.549C62.8736 214.354 61.8988 247.216 60.8776 250.224C60.6362 250.935 60.154 255.459 55.6133 257.375L72.149 252.525L72.0595 251.155C74.8773 237.643 80.5422 192.01 80.5422 192.01C80.5422 192.01 67.4568 178.326 64.8841 198.549Z" fill="#E0997A"/>
<path d="M111.367 193.506C110.489 211.783 109.295 229.654 108.93 245.964C109.034 248.319 109.31 251.003 109.976 252.791C110.238 253.495 110.646 255.983 115.388 257.327L98.3819 254.543L98.3136 252.504C97.5356 240.717 93.793 194.3 93.793 194.3C93.793 194.3 112.221 175.74 111.367 193.506Z" fill="#E0997A"/>
<path d="M111.219 128.125C111.219 128.125 115.869 205.017 112.277 248.134C106.637 250.723 99.0807 249.299 96.0418 248.963C93.6993 238.083 89.872 162.513 89.872 162.513C89.872 162.513 83.6956 220.229 74.8509 247.924C69.9047 249.392 64.2558 249.497 60.1641 246.98C60.1641 237.958 64.5231 146.966 69.4247 128.559C72.5282 128.147 111.219 128.125 111.219 128.125Z" fill="#5B494E"/>
<path d="M89.8724 162.775C89.861 162.775 89.8494 162.774 89.8378 162.773C89.694 162.754 89.5927 162.622 89.6116 162.478L92.1127 143.462C92.1217 143.394 92.1569 143.332 92.2108 143.29L96.2741 140.095C96.3881 140.006 96.5532 140.025 96.6429 140.139C96.7324 140.253 96.7127 140.419 96.5987 140.508L92.6196 143.636L90.1324 162.546C90.115 162.679 90.0022 162.775 89.8724 162.775Z" fill="#1A292F"/>
<path d="M62.9777 248.087C62.9747 248.087 62.9716 248.087 62.9685 248.087C62.8236 248.082 62.71 247.96 62.715 247.815C64.0523 208.819 66.6582 178.72 68.6089 160.338C70.7228 140.417 72.5443 129.578 72.5624 129.471C72.5865 129.328 72.7224 129.232 72.8651 129.256C73.0082 129.28 73.1044 129.415 73.0802 129.558C73.0621 129.666 71.2426 140.494 69.1303 160.4C67.1808 178.773 64.5765 208.856 63.2398 247.833C63.2351 247.975 63.1186 248.087 62.9777 248.087Z" fill="#1A292F"/>
<path d="M71.2511 140.566C71.139 140.566 71.0354 140.494 71.0003 140.381C70.9572 140.242 71.0346 140.095 71.1731 140.052C74.5902 138.989 76.8785 136.898 77.9741 133.836C78.7923 131.549 78.6025 129.561 78.6005 129.541C78.5859 129.397 78.691 129.268 78.8353 129.253C78.9794 129.239 79.1085 129.344 79.1231 129.488C79.1319 129.574 79.3266 131.615 78.4688 134.013C77.6751 136.231 75.7924 139.166 71.3291 140.554C71.303 140.562 71.2768 140.566 71.2511 140.566Z" fill="#1A292F"/>
<path d="M111.535 137.651C111.531 137.651 111.528 137.651 111.525 137.651C109.329 137.569 107.63 136.125 106.611 133.475C105.857 131.514 105.739 129.61 105.735 129.53C105.726 129.385 105.837 129.261 105.982 129.252C106.125 129.246 106.251 129.355 106.259 129.499C106.264 129.574 106.75 136.947 111.544 137.126C111.689 137.131 111.802 137.253 111.797 137.398C111.792 137.54 111.675 137.651 111.535 137.651Z" fill="#1A292F"/>
<path d="M120.336 94.844L126.937 101.132L125.58 114.268C125.58 114.268 115.283 113.982 105.662 98.7762C105.485 98.3715 120.336 94.844 120.336 94.844Z" fill="#E0997A"/>
<path d="M112.989 74.3145C112.989 74.3145 119.061 79.9903 125.308 99.7025C125.308 101.206 122.745 106.174 113.806 109.884C112.586 108.36 88.0276 90.4881 112.989 74.3145Z" fill="#0097B2"/>
<path d="M62.2417 96.9146C62.2417 96.9146 54.6884 105.044 48.1604 109.8C48.5885 109.479 38.1797 102.032 38.1797 102.032C38.1797 102.032 40.4922 96.6223 53.6465 82.4872C53.9761 82.2947 62.2417 96.9146 62.2417 96.9146Z" fill="#E0997A"/>
<path d="M69.0805 70.9873C69.0805 70.9873 61.4497 72.4258 42.7876 92.8093C41.9978 94.0888 48.9802 103.209 57.6113 108.749C63.8712 105.273 82.3179 95.2728 69.0805 70.9873Z" fill="#0097B2"/>
<path d="M124.998 75.0762C124.93 75.3771 124.679 75.3106 124.607 75.6707C123.335 85.154 116.643 108.444 121.633 112.258C124.166 114.193 126.362 115.435 129.245 112.711C136.314 106.033 133.096 79.9579 133.084 76.3411C132.101 75.5371 125.3 75.1514 124.998 75.0762Z" fill="#E0997A"/>
<path d="M120.148 106.442C119.98 106.442 119.841 106.309 119.836 106.14C119.832 106.04 119.519 96.0309 121.564 89.957C121.619 89.7934 121.796 89.7056 121.96 89.7605C122.124 89.8156 122.212 89.993 122.157 90.1565C120.148 96.1223 120.457 106.019 120.46 106.119C120.466 106.291 120.331 106.436 120.159 106.442C120.155 106.442 120.151 106.442 120.148 106.442Z" fill="#1A292F"/>
<path d="M95.8398 47.2244C95.8398 47.2244 97.7433 43.8273 99.8906 45.5212C100.483 45.9887 100.867 46.6816 100.974 47.4291C101.199 49.0145 100.781 51.6882 96.8422 52.3217C96.9009 52.4906 95.8398 47.2244 95.8398 47.2244Z" fill="#C7795E"/>
<path d="M82.3651 64.7716L81.6546 48.459L92.7285 52.9535L93.219 65.2005C93.2524 66.0356 93.7514 66.7813 94.5106 67.1308L99.9215 69.622C99.9215 69.622 90.7416 81.5581 75.0547 69.0853C76.9566 68.4399 79.3921 67.5307 80.9334 66.9465C81.8303 66.6067 82.4068 65.7299 82.3651 64.7716Z" fill="#E0997A"/>
<path d="M81.9865 56.0709L81.7539 50.7335C82.3837 50.2621 83.2107 50.092 83.5411 49.2246L92.7289 52.9536L93.0822 61.7764C90.0512 61.7349 84.3828 60.2861 81.9865 56.0709Z" fill="#C7795E"/>
<path d="M80.8142 45.7711C80.5861 52.9896 84.4811 58.5315 89.4398 59.127C96.8969 60.0225 98.6633 53.5608 98.8914 46.3424C99.1195 39.1239 95.2577 33.1443 90.2658 32.9866C85.2739 32.8288 81.0423 38.5526 80.8142 45.7711Z" fill="#E0997A"/>
<path d="M88.0568 46.8766C88.0721 47.3627 87.8815 47.7632 87.6309 47.7711C87.3803 47.7791 87.1646 47.3914 87.1493 46.9053C87.1339 46.4193 87.3246 46.0188 87.5752 46.0109C87.8258 46.003 88.0414 46.3905 88.0568 46.8766Z" fill="#312A2A"/>
<path d="M96.5099 47.1442C96.5253 47.6303 96.3346 48.0307 96.084 48.0387C95.8334 48.0466 95.6179 47.659 95.6024 47.1729C95.5871 46.6868 95.7777 46.2864 96.0283 46.2784C96.2789 46.2705 96.4945 46.6581 96.5099 47.1442Z" fill="#312A2A"/>
<path d="M98.8832 44.8676C98.5306 43.0916 97.602 36.8202 91.8857 36.7756C88.4891 36.7492 86.5369 37.5993 85.5453 38.0724C84.8837 38.388 84.3103 33.6439 83.9961 32.4207C86.8082 29.8696 92.7784 29.4621 96.3464 31.76C101.093 34.8164 100.328 42.4846 98.8832 44.8676Z" fill="#312A2A"/>
<path d="M80.6668 47.261C83.9245 45.832 81.7709 39.8652 85.5438 38.072C85.4585 37.0036 85.3379 34.8715 84.9201 33.8845C85.0325 33.2877 84.5984 32.3553 83.9947 32.4202C73.6289 33.5354 77.2301 43.4965 78.1545 44.9126C78.833 45.9523 79.3993 47.8296 80.6668 47.261Z" fill="#312A2A"/>
<path d="M82.1819 46.3432C82.1819 46.3432 78.9487 43.4329 77.3631 45.6613C76.9254 46.2765 76.7515 47.0493 76.8591 47.7964C77.0875 49.3815 78.2391 51.8304 82.1978 51.3326C82.1889 51.5114 82.1819 46.3432 82.1819 46.3432Z" fill="#E0997A"/>
<path d="M81.1163 49.667C81.1489 49.6652 81.1817 49.6571 81.213 49.642C81.3386 49.5811 81.3911 49.4299 81.3302 49.3042C80.2569 47.0899 78.1558 46.7569 78.067 46.7439C77.929 46.7237 77.8004 46.8191 77.7801 46.9571C77.7598 47.0951 77.855 47.2234 77.9927 47.2439C78.0711 47.2558 79.9221 47.5582 80.8752 49.5247C80.921 49.6191 81.0177 49.6723 81.1163 49.667Z" fill="#312A2A"/>
<path d="M81.102 49.7563C80.9713 49.7563 80.8519 49.682 80.7944 49.5633C79.8611 47.6378 78.0553 47.3435 77.9789 47.332C77.7929 47.3041 77.6638 47.13 77.6911 46.9437C77.7186 46.7572 77.8925 46.6273 78.0794 46.6551C78.1702 46.6685 80.3159 47.0076 81.41 49.2649C81.4923 49.4347 81.4211 49.6396 81.2513 49.7219C81.21 49.7419 81.166 49.7533 81.1205 49.7557C81.1144 49.7561 81.1083 49.7563 81.102 49.7563ZM78.0297 46.8301C77.9499 46.8301 77.8798 46.8886 77.868 46.9697C77.8548 47.0587 77.9166 47.1419 78.0055 47.1553C78.0858 47.1674 79.9813 47.4762 80.9551 49.4854C80.9839 49.5449 81.0459 49.5816 81.111 49.5774C81.1327 49.5762 81.1538 49.5708 81.1735 49.5612C81.2546 49.5219 81.2886 49.424 81.2493 49.3428C80.196 47.1697 78.1405 46.8446 78.0534 46.8318C78.0455 46.8307 78.0375 46.8301 78.0297 46.8301Z" fill="#312A2A"/>
<path d="M79.001 49.0241C79.0573 49.0211 79.113 48.9993 79.1579 48.9583L80.0349 48.157C80.138 48.0628 80.1452 47.9029 80.0511 47.7999C79.9569 47.6968 79.797 47.6894 79.6939 47.7837L78.8168 48.5851C78.7137 48.6792 78.7065 48.8391 78.8006 48.9422C78.8538 49.0004 78.9279 49.028 79.001 49.0241Z" fill="#312A2A"/>
<path d="M78.9867 49.1132C78.8906 49.1132 78.7994 49.0732 78.7342 49.0019C78.6726 48.9344 78.6409 48.8471 78.645 48.7558C78.6492 48.6645 78.6886 48.5802 78.756 48.5185L79.633 47.7172C79.7004 47.6555 79.7871 47.6242 79.8792 47.628C79.9705 47.6321 80.0546 47.6716 80.1163 47.739C80.178 47.8064 80.2097 47.8939 80.2055 47.9852C80.2014 48.0765 80.1619 48.1608 80.0945 48.2224L79.2174 49.0238C79.1593 49.0769 79.0838 49.1086 79.0051 49.1129C78.999 49.1131 78.9928 49.1132 78.9867 49.1132ZM79.8636 47.8062C79.8228 47.8062 79.784 47.8213 79.7535 47.8491L78.8765 48.6504C78.8442 48.6799 78.8254 48.7202 78.8235 48.7637C78.8215 48.8073 78.8366 48.8491 78.8661 48.8813C78.8993 48.9176 78.9456 48.9373 78.9957 48.9343C79.0338 48.9322 79.0689 48.9175 79.097 48.8918L79.9741 48.0904C80.0063 48.0611 80.0251 48.0208 80.0271 47.9771C80.029 47.9334 80.0139 47.8917 79.9844 47.8594C79.9549 47.8272 79.9147 47.8084 79.8711 47.8064C79.8687 47.8063 79.8662 47.8062 79.8636 47.8062Z" fill="#312A2A"/>
<path d="M89.1331 44.8112C89.2042 44.8074 89.2732 44.7738 89.3199 44.7132C89.4048 44.603 89.3852 44.4454 89.2754 44.3599C89.2229 44.319 87.9635 43.3663 85.9576 44.23C85.8294 44.2852 85.7701 44.4339 85.8254 44.5622C85.8806 44.6904 86.0293 44.7496 86.1576 44.6944C87.8765 43.9543 88.9221 44.7265 88.9659 44.7598C89.0157 44.7976 89.0751 44.8143 89.1331 44.8112Z" fill="#312A2A"/>
<path d="M89.1191 44.901C89.0443 44.901 88.9711 44.8764 88.9113 44.8309C88.8693 44.7991 87.8613 44.0579 86.1923 44.7766C86.1084 44.8127 86.0155 44.8142 85.9306 44.7802C85.8456 44.7464 85.779 44.6816 85.7429 44.5977C85.7068 44.5138 85.7055 44.4208 85.7392 44.3359C85.773 44.251 85.8379 44.1844 85.9217 44.1483C87.9768 43.2631 89.2755 44.2473 89.3298 44.2897C89.4775 44.4046 89.5046 44.619 89.3901 44.7679C89.3292 44.8468 89.2371 44.8951 89.1372 44.9005C89.1312 44.9009 89.1251 44.901 89.1191 44.901ZM87.593 44.2866C88.4744 44.2866 88.9885 44.6653 89.0194 44.6887C89.0505 44.7124 89.088 44.7244 89.1277 44.7222C89.1756 44.7197 89.2196 44.6966 89.2487 44.6589C89.3033 44.5878 89.2905 44.4854 89.2201 44.4307C89.1691 44.3909 87.9512 43.469 85.9924 44.3123C85.9522 44.3296 85.9212 44.3614 85.9051 44.402C85.889 44.4426 85.8895 44.4869 85.9068 44.5271C85.9241 44.5672 85.9559 44.5981 85.9965 44.6142C86.0372 44.6305 86.0816 44.6298 86.1217 44.6125C86.6849 44.3699 87.1794 44.2866 87.593 44.2866Z" fill="#312A2A"/>
<path d="M97.1983 45.0423C97.2862 45.0375 97.3691 44.987 97.4113 44.9025C97.4735 44.7776 97.4228 44.6258 97.2978 44.5634C97.2295 44.5293 95.61 43.7354 94.3488 44.2995C94.2213 44.3564 94.1643 44.506 94.2214 44.6335C94.2783 44.7609 94.4277 44.8183 94.5554 44.761C95.6006 44.2934 97.0576 45.0086 97.0723 45.0159C97.1127 45.0361 97.1561 45.0446 97.1983 45.0423Z" fill="#312A2A"/>
<path d="M97.1844 45.1324C97.1316 45.1324 97.0791 45.1201 97.0316 45.0963C97.0175 45.0893 95.5941 44.3944 94.5912 44.8431C94.5079 44.8806 94.4149 44.8832 94.3295 44.8506C94.2441 44.818 94.1765 44.7541 94.1391 44.6706C94.0622 44.4982 94.1396 44.2956 94.3118 44.2186C95.6105 43.6378 97.2671 44.4492 97.3371 44.4842C97.506 44.5684 97.5748 44.7743 97.4905 44.9429C97.4358 45.0529 97.3252 45.1254 97.2023 45.132C97.1964 45.1322 97.1904 45.1324 97.1844 45.1324ZM95.3707 44.5148C96.2514 44.5148 97.1001 44.9309 97.1114 44.9366C97.1368 44.9492 97.1655 44.9557 97.1929 44.9535C97.2518 44.9504 97.3046 44.9157 97.3308 44.8632C97.371 44.7825 97.338 44.6842 97.2573 44.6439C97.1906 44.6106 95.607 43.8349 94.3847 44.3817C94.3024 44.4185 94.2654 44.5154 94.3023 44.5977C94.3202 44.6376 94.3525 44.6681 94.3933 44.6838C94.434 44.6993 94.4783 44.698 94.5182 44.6802C94.7866 44.5601 95.0804 44.5148 95.3707 44.5148Z" fill="#312A2A"/>
<path d="M92.3941 51.5913C92.7942 51.57 93.1119 51.4592 93.3444 51.2593C93.7579 50.9039 93.7377 50.403 93.7313 50.321C93.5933 47.4373 93.2455 45.5415 93.242 45.5227C93.2165 45.3854 93.0844 45.2951 92.9472 45.3204C92.81 45.3459 92.7193 45.4779 92.7448 45.6152C92.7483 45.6337 93.0903 47.5008 93.2264 50.3495C93.2266 50.3546 93.2271 50.3597 93.2276 50.3646C93.2285 50.3749 93.2518 50.6764 93.0098 50.8802C92.7915 51.0641 92.2982 51.2217 91.1886 50.9284C91.0537 50.8926 90.9153 50.9732 90.8796 51.1082C90.8438 51.2432 90.9244 51.3815 91.0594 51.4173C91.5746 51.5533 92.0204 51.6113 92.3941 51.5913Z" fill="#312A2A"/>
<path d="M92.2482 51.6842C91.8979 51.6842 91.4911 51.6236 91.036 51.5033C90.9476 51.4799 90.8737 51.4236 90.8278 51.3445C90.7819 51.2656 90.7694 51.1735 90.7927 51.0851C90.8161 50.9967 90.8725 50.9227 90.9515 50.8767C91.0305 50.8307 91.1226 50.8183 91.2109 50.8417C92.3402 51.1403 92.7863 50.9509 92.9518 50.8116C93.1577 50.6382 93.139 50.3825 93.1382 50.3717C93.1376 50.3671 93.137 50.36 93.1367 50.353C93.0011 47.5137 92.6599 45.6495 92.6565 45.631C92.6221 45.4455 92.745 45.2666 92.9304 45.2321C93.116 45.1976 93.2947 45.3208 93.3292 45.5059C93.3326 45.5242 93.6821 47.4372 93.8199 50.3161C93.8276 50.4159 93.8448 50.946 93.402 51.3266C93.1552 51.5387 92.8175 51.6576 92.3982 51.68C92.3494 51.6829 92.2994 51.6842 92.2482 51.6842ZM91.1231 51.0089C91.0946 51.0089 91.0666 51.0164 91.0413 51.031C91.0035 51.0529 90.9766 51.0884 90.9654 51.1306C90.9542 51.1729 90.9602 51.2169 90.9822 51.2546C91.0041 51.2923 91.0395 51.3193 91.0817 51.3305C91.5852 51.4635 92.0248 51.5212 92.3887 51.5018C92.7677 51.4815 93.0695 51.377 93.2856 51.1913C93.663 50.8669 93.6485 50.4148 93.6417 50.3275C93.5047 47.4682 93.1571 45.5574 93.1536 45.539C93.1371 45.4502 93.0514 45.3916 92.9629 45.4079C92.8743 45.4243 92.8157 45.5098 92.832 45.5985C92.8355 45.6171 93.1789 47.4932 93.315 50.3448L93.316 50.3569C93.3173 50.3714 93.3424 50.7161 93.0667 50.9482C92.8321 51.1457 92.3118 51.3175 91.1651 51.0144C91.1513 51.0107 91.1371 51.0089 91.1231 51.0089Z" fill="#312A2A"/>
<path d="M92.0522 54.8174C92.3996 54.7988 92.774 54.7376 93.1762 54.6207C93.3102 54.5817 93.3874 54.4414 93.3483 54.3073C93.3092 54.1733 93.1691 54.0964 93.0349 54.1352C90.4745 54.8801 89.2033 53.1068 89.1907 53.0888C89.1109 52.9743 88.9534 52.946 88.8388 53.0259C88.7242 53.1057 88.6961 53.2632 88.7758 53.3778C88.7885 53.3959 89.8898 54.9329 92.0522 54.8174Z" fill="#312A2A"/>
<path d="M91.8211 54.9134C89.7622 54.9135 88.7129 53.4449 88.7022 53.4294C88.6498 53.3544 88.63 53.2636 88.646 53.1736C88.6622 53.0837 88.7123 53.0054 88.7872 52.9531C88.8622 52.9008 88.9529 52.881 89.043 52.897C89.1329 52.9131 89.2112 52.9633 89.2635 53.0383C89.2756 53.0554 90.5259 54.7724 93.0095 54.05C93.1905 53.9976 93.3809 54.102 93.4336 54.283C93.4862 54.4641 93.3817 54.6543 93.2006 54.7071C92.812 54.82 92.427 54.8873 92.0565 54.9072C91.9767 54.9113 91.898 54.9134 91.8211 54.9134ZM88.9825 53.0701C88.9494 53.0701 88.9171 53.0802 88.8894 53.0995C88.8535 53.1244 88.8295 53.1619 88.8218 53.2049C88.8141 53.2479 88.8237 53.2913 88.8486 53.3272C88.8592 53.3422 89.9438 54.843 92.0468 54.7286C92.4038 54.7095 92.7752 54.6446 93.1506 54.5354C93.237 54.5102 93.287 54.4193 93.2619 54.3328C93.2368 54.2463 93.1456 54.1964 93.0592 54.2215C90.4446 54.9823 89.13 53.1591 89.117 53.1407C89.0919 53.1046 89.0544 53.0806 89.0114 53.0729C89.0019 53.0711 88.9921 53.0701 88.9825 53.0701Z" fill="#312A2A"/>
<path d="M80.6819 67.1788C80.6819 67.1788 88.4859 74.9211 96.4195 67.9212C96.5724 67.9682 108.535 70.4467 112.988 74.3145C112.618 75.8921 108.184 111.891 111.533 130.082C108.292 131.799 91.037 140.637 67.8976 132.258C68.6995 112.326 67.9106 86.9187 62.2383 74.7365C63.4934 73.8535 70.2508 68.5127 80.6819 67.1788Z" fill="#0097B2"/>
<path d="M89.769 71.0408C88.5302 71.0408 87.2325 70.8182 85.8891 70.3702C82.7877 69.3358 80.5717 67.4961 80.4789 67.4183C80.3467 67.3074 80.3293 67.1104 80.4402 66.9781C80.551 66.8457 80.7481 66.8283 80.8805 66.9391C80.9025 66.9576 83.1111 68.7886 86.1038 69.7828C90.0647 71.0985 93.4598 70.3999 96.1951 67.7065C96.3181 67.5853 96.516 67.5868 96.6371 67.7099C96.7583 67.8329 96.7568 68.0308 96.6337 68.152C94.6863 70.0692 92.3567 71.0408 89.769 71.0408Z" fill="#1A292F"/>
<path d="M66.7887 100.015C66.6272 100.015 66.4903 99.8904 66.4774 99.7267C65.9688 93.2656 65.1626 88.8432 64.0814 86.5823C64.007 86.4266 64.0728 86.24 64.2286 86.1654C64.3842 86.091 64.571 86.1568 64.6456 86.3126C65.7601 88.643 66.5861 93.1396 67.1008 99.6775C67.1144 99.8496 66.9857 100 66.8136 100.014C66.8052 100.014 66.7969 100.015 66.7887 100.015Z" fill="#1A292F"/>
<path d="M133.084 76.3421C134.62 74.1417 135.679 70.1455 135.981 68.0181C135.675 67.6882 135.341 67.5334 134.93 67.2743C132.268 65.598 127.726 65.2924 125.433 64.9208C124.834 68.1579 124.363 74.0789 124.363 74.0789C124.363 74.0789 124.478 75.0791 124.792 76.6626C127.644 75.663 130.132 77.0033 133.084 76.3421Z" fill="#E0997A"/>
<path d="M136.243 63.9722C136.213 63.5595 133.678 64.9028 133.705 64.4879C133.73 64.1155 133.756 63.8211 133.776 63.8219C132.98 64.0954 132.322 64.0191 131.722 63.5824C130.168 62.4498 129.503 63.1695 128.949 63.3758C128.808 63.4284 128.745 63.5931 128.621 63.5063C128.62 63.5055 128.619 63.5046 128.617 63.5038C128.55 63.4559 128.344 63.8164 128.339 63.7338C128.028 57.9391 128.249 54.3003 127.001 54.3973C125.487 54.4648 125.328 65.6164 125.328 65.6164L135.677 69.6473C135.677 69.6473 136.442 66.7402 136.243 63.9722Z" fill="#E0997A"/>
<path d="M122.18 60.6703C122.23 61.5184 122.375 64.2406 122.364 66.5259C122.359 67.368 122.398 68.2071 122.478 69.0456C122.689 71.2474 123.227 75.7473 125.655 76.1906C125.826 76.2218 129.684 74.3579 128.448 69.7643C128.174 68.7469 127.576 67.8543 126.797 67.1445C126.229 66.6268 125.444 65.626 124.699 63.6992C124.624 62.9408 123.766 59.8625 122.564 60.1777C122.322 60.2412 122.168 60.4521 122.18 60.6703Z" fill="#E0997A"/>
<path d="M131.37 62.5016C131.169 63.75 130.711 64.9371 130.343 65.8284C130.255 66.0566 129.868 67.3971 129.229 67.2506C128.645 67.112 128.28 66.1677 128.934 62.3109C129.013 61.8419 129.298 61.416 129.729 61.2144C130.814 60.7066 131.48 61.8225 131.37 62.5016Z" fill="#E0997A"/>
<path d="M129.709 67.4517C129.668 67.4517 129.63 67.4484 129.597 67.4431C129.589 67.4418 129.581 67.4403 129.573 67.4384C128.706 67.2328 127.909 66.4995 128.566 62.6197C128.595 62.4495 128.757 62.3353 128.927 62.3637C129.097 62.3925 129.212 62.5539 129.183 62.7241C128.545 66.4888 129.367 66.7459 129.701 66.8263C129.753 66.8301 129.826 66.7984 129.904 66.738C130.232 66.4844 130.608 65.7716 130.709 64.7509C130.726 64.579 130.878 64.4536 131.05 64.4706C131.222 64.4875 131.348 64.6406 131.331 64.8124C131.224 65.8892 130.824 66.8164 130.287 67.2324C130.063 67.4048 129.862 67.4517 129.709 67.4517Z" fill="#1A292F"/>
<path d="M128.311 73.2546C128.291 73.2546 128.27 73.2527 128.25 73.2485C128.08 73.2146 127.971 73.0499 128.004 72.8807C128.929 68.2604 125.158 65.3468 125.12 65.3179C124.982 65.2137 124.955 65.0177 125.059 64.88C125.164 64.7421 125.36 64.715 125.497 64.8192C125.539 64.8505 129.618 68.0028 128.618 73.0033C128.588 73.1519 128.457 73.2546 128.311 73.2546Z" fill="#1A292F"/>
<path d="M133.76 62.9995C133.631 64.2574 133.243 65.4689 132.927 66.3799C132.853 66.6128 132.543 67.9735 131.897 67.8639C131.306 67.7592 130.887 66.8374 131.317 62.9493C131.37 62.4766 131.63 62.035 132.048 61.8089C133.102 61.2395 133.831 62.3151 133.76 62.9995Z" fill="#E0997A"/>
<path d="M136.062 63.8344C135.749 65.0595 135.186 66.2005 134.739 67.055C134.631 67.2744 134.124 68.5746 133.502 68.371C132.932 68.1803 132.654 67.2069 133.653 63.4247C133.774 62.9649 134.097 62.5664 134.544 62.4044C135.67 61.9964 136.232 63.1679 136.062 63.8344Z" fill="#E0997A"/>
<path d="M131.963 68.1834C131.924 68.1834 131.884 68.1801 131.843 68.1732C131.639 68.1371 131.347 68.0178 131.101 67.652C130.545 66.829 130.515 65.2254 131.01 62.8856C131.046 62.7166 131.212 62.609 131.381 62.6445C131.549 62.6802 131.657 62.8462 131.622 63.0151C131.02 65.8574 131.362 66.9212 131.619 67.3023C131.717 67.448 131.832 67.5361 131.95 67.5571C131.952 67.5567 132.3 67.5771 132.755 66.1058L132.771 66.0543C132.823 65.8898 132.999 65.7985 133.164 65.8513C133.328 65.9037 133.419 66.0794 133.367 66.244L133.352 66.2904C133.204 66.7699 132.767 68.1834 131.963 68.1834Z" fill="#1A292F"/>
<path d="M133.688 68.4318C133.633 68.4318 133.579 68.4263 133.523 68.4149C133.511 68.4124 133.498 68.409 133.486 68.405C132.651 68.1251 132.337 67.1811 133.35 63.3451C133.394 63.1781 133.565 63.0785 133.732 63.1226C133.899 63.1667 133.998 63.3377 133.954 63.5046C132.923 67.4108 133.45 67.7285 133.664 67.805C134.271 67.8894 135.249 65.7518 135.758 63.7572C135.801 63.5899 135.972 63.4892 136.139 63.5317C136.306 63.5745 136.407 63.7447 136.364 63.912C136.242 64.389 135.165 68.4318 133.688 68.4318Z" fill="#1A292F"/>
<path d="M110.59 107.658C110.418 107.658 110.278 107.518 110.277 107.346C110.277 107.186 110.249 91.2862 111.843 84.1025C111.88 83.934 112.047 83.8272 112.216 83.865C112.384 83.9024 112.49 84.0693 112.453 84.2379C110.874 91.3547 110.902 107.185 110.903 107.344C110.903 107.517 110.764 107.657 110.591 107.658C110.591 107.658 110.59 107.658 110.59 107.658Z" fill="#1A292F"/>
<path d="M75.6473 107.71C75.9199 106.924 73.5372 102.987 73.1685 102.936C65.0107 100.956 42.3854 95.8134 38.6615 101.004C36.7714 103.639 36.5387 106.215 39.5338 108.946C46.5186 115.316 68.703 112.566 74.2661 112.045C74.6492 110.555 75.1434 109.161 75.6473 107.71Z" fill="#E0997A"/>
<path d="M112.614 73.8701H79.7656V117.876H112.614V73.8701Z" fill="#F6F6F6"/>
<path d="M79.7681 105.583C79.9205 105.583 80.0441 105.46 80.0441 105.307V73.8717C80.0441 73.7192 79.9205 73.5957 79.7681 73.5957C79.6156 73.5957 79.4922 73.7193 79.4922 73.8717V105.307C79.4922 105.46 79.6158 105.583 79.7681 105.583Z" fill="#312A2A"/>
<path d="M93.145 109.37C93.0312 109.37 92.9216 109.308 92.8663 109.2C92.7878 109.046 92.8488 108.858 93.0025 108.779L105.949 102.168C106.103 102.089 106.291 102.151 106.369 102.304C106.448 102.458 106.387 102.646 106.233 102.725L93.2868 109.336C93.2414 109.359 93.1928 109.37 93.145 109.37Z" fill="#1A292F"/>
<path d="M97.5433 110.135C97.4265 110.135 97.3143 110.07 97.2608 109.957C97.1867 109.801 97.253 109.614 97.4089 109.54L103.753 106.524C103.909 106.449 104.095 106.516 104.169 106.672C104.244 106.828 104.177 107.014 104.021 107.088L97.6774 110.105C97.6339 110.126 97.5883 110.135 97.5433 110.135Z" fill="#1A292F"/>
<path d="M70.8398 105.122C70.8398 105.122 77.4363 99.0537 80.4513 97.5154C80.4162 97.591 82.3876 106.784 81.8114 110.194C80.0761 111.156 79.1143 112.445 74.2648 112.049C73.9284 110.977 70.8398 105.122 70.8398 105.122Z" fill="#E0997A"/>
<path d="M91.6137 108.064C91.4707 107.12 87.7865 106.889 84.6304 106.866C84.6245 106.864 84.6188 106.861 84.6131 106.859C84.1934 106.677 84.2157 106.07 84.6423 105.905C85.0252 105.757 85.3308 105.646 85.3394 105.666C92.9964 103.551 94.2089 102.418 93.9905 101.614C93.8439 101.29 93.2469 101.196 92.4018 101.247C93.5322 100.705 93.7832 100.259 93.7011 99.8689C93.2108 98.5941 86.1249 100.066 83.4917 100.661C83.3299 100.698 83.1784 100.56 83.2061 100.396C83.2063 100.394 83.2066 100.393 83.2069 100.391C83.2223 100.302 83.2872 100.227 83.3744 100.201C89.73 98.2872 92.0711 96.9439 91.9004 96.134C91.2973 94.5659 80.4531 97.5157 80.4531 97.5157L81.8132 110.194L84.0909 109.612L84.091 109.612C90.3683 109.527 91.6066 108.826 91.6137 108.064Z" fill="#E0997A"/>
<path d="M83.6131 103.295C83.4669 103.295 83.3362 103.192 83.3068 103.043C83.2733 102.873 83.3835 102.709 83.5529 102.675L92.3404 100.941C92.5093 100.907 92.6742 101.017 92.7076 101.187C92.7411 101.356 92.6309 101.521 92.4615 101.554L83.674 103.289C83.6536 103.293 83.6332 103.295 83.6131 103.295Z" fill="#1A292F"/>
<path d="M44.7854 101.336C44.6624 101.336 44.5458 101.263 44.4962 101.142C44.4306 100.983 44.5068 100.8 44.6666 100.734L50.1466 98.4825C50.3064 98.417 50.4889 98.4931 50.5545 98.6528C50.6201 98.8125 50.5439 98.9952 50.3843 99.0608L44.9042 101.313C44.8653 101.328 44.8249 101.336 44.7854 101.336Z" fill="#1A292F"/>
<path d="M72.5355 105.322C72.5051 105.322 72.4744 105.317 72.4438 105.308C72.2788 105.257 72.1859 105.083 72.2365 104.918L72.8703 102.847C72.9209 102.682 73.0955 102.589 73.2607 102.64C73.4258 102.69 73.5187 102.865 73.4681 103.03L72.8342 105.101C72.7931 105.235 72.6693 105.322 72.5355 105.322Z" fill="#1A292F"/>
</g>
<defs>
<filter id="filter0_f_4_2094" x="82.2" y="-62.8" width="365.6" height="365.6" filterUnits="userSpaceOnUse" color-interpolation-filters="sRGB">
<feFlood flood-opacity="0" result="BackgroundImageFix"/>
<feBlend mode="normal" in="SourceGraphic" in2="BackgroundImageFix" result="shape"/>
<feGaussianBlur stdDeviation="30.4" result="effect1_foregroundBlur_4_2094"/>
</filter>
<linearGradient id="paint0_linear_4_2094" x1="433.715" y1="100.007" x2="443.335" y2="100.007" gradientUnits="userSpaceOnUse">
<stop stop-color="#E8C46D"/>
<stop offset="1" stop-color="#E4B26B"/>
</linearGradient>
<linearGradient id="paint1_linear_4_2094" x1="45.3985" y1="122.013" x2="55.0182" y2="122.013" gradientUnits="userSpaceOnUse">
<stop stop-color="#E8C46D"/>
<stop offset="1" stop-color="#E4B26B"/>
</linearGradient>
<linearGradient id="paint2_linear_4_2094" x1="145.502" y1="-19" x2="319.002" y2="198.5" gradientUnits="userSpaceOnUse">
<stop stop-color="#0097B2"/>
<stop offset="1" stop-color="#B2EDF8"/>
</linearGradient>
<linearGradient id="paint3_linear_4_2094" x1="326.734" y1="142.042" x2="422.259" y2="142.042" gradientUnits="userSpaceOnUse">
<stop stop-color="#E8C46D"/>
<stop offset="1" stop-color="#E4B26B"/>
</linearGradient>
<linearGradient id="paint4_linear_4_2094" x1="283.746" y1="142.042" x2="379.27" y2="142.042" gradientUnits="userSpaceOnUse">
<stop stop-color="#F2D09B"/>
<stop offset="1" stop-color="#F1CE79"/>
</linearGradient>
<linearGradient id="paint5_linear_4_2094" x1="344.461" y1="225.369" x2="439.985" y2="225.369" gradientUnits="userSpaceOnUse">
<stop stop-color="#E8C46D"/>
<stop offset="1" stop-color="#E4B26B"/>
</linearGradient>
<linearGradient id="paint6_linear_4_2094" x1="301.473" y1="225.369" x2="396.997" y2="225.369" gradientUnits="userSpaceOnUse">
<stop stop-color="#F2D09B"/>
<stop offset="1" stop-color="#F1CE79"/>
</linearGradient>
<linearGradient id="paint7_linear_4_2094" x1="250.5" y1="225.369" x2="346.024" y2="225.369" gradientUnits="userSpaceOnUse">
<stop stop-color="#E8C46D"/>
<stop offset="1" stop-color="#E4B26B"/>
</linearGradient>
<linearGradient id="paint8_linear_4_2094" x1="207.512" y1="225.369" x2="303.036" y2="225.369" gradientUnits="userSpaceOnUse">
<stop stop-color="#F2D09B"/>
<stop offset="1" stop-color="#F1CE79"/>
</linearGradient>
</defs>
</svg>
