<svg width="511" height="200" viewBox="0 0 511 200" fill="none" xmlns="http://www.w3.org/2000/svg">
<mask id="mask0_4_1788" style="mask-type:alpha" maskUnits="userSpaceOnUse" x="0" y="0" width="511" height="200">
<path d="M0 11C0 4.92487 4.92487 0 11 0H500C506.075 0 511 4.92487 511 11V200H0V11Z" fill="white"/>
</mask>
<g mask="url(#mask0_4_1788)">
<path d="M158.577 -97.1913C158.577 -97.1913 99.5183 -55.9094 74.7772 -1.5489C50.0362 52.8115 61.5115 116.628 106.715 158.935C151.918 201.242 224.7 184.667 290.589 206.246C356.478 227.826 423.664 212.105 443.884 144.05C464.105 75.9942 416.799 58.2382 398.896 -14.7427C380.993 -87.7226 299.109 -186.815 158.577 -97.1913Z" fill="#EFFDFF"/>
<path opacity="0.7" d="M158.577 -97.1913C158.577 -97.1913 99.5183 -55.9094 74.7772 -1.5489C50.0362 52.8115 61.5115 116.628 106.715 158.935C151.918 201.242 224.7 184.667 290.589 206.246C356.478 227.826 423.664 212.105 443.884 144.05C464.105 75.9942 416.799 58.2382 398.896 -14.7427C380.993 -87.7226 299.109 -186.815 158.577 -97.1913Z" fill="#EFFDFF"/>
<path d="M255.756 -66.8564H189.66V20.424H255.756V-66.8564Z" stroke="#263238" stroke-miterlimit="10" stroke-linecap="round" stroke-linejoin="round"/>
<path d="M248.054 -56.6875H197.359V10.2557H248.054V-56.6875Z" stroke="#263238" stroke-miterlimit="10" stroke-linecap="round" stroke-linejoin="round"/>
<path d="M156.611 -21.9453H90.5156V65.3351H156.611V-21.9453Z" stroke="#263238" stroke-miterlimit="10" stroke-linecap="round" stroke-linejoin="round"/>
<path d="M148.91 -11.7764H98.2148V55.1669H148.91V-11.7764Z" stroke="#263238" stroke-miterlimit="10" stroke-linecap="round" stroke-linejoin="round"/>
<path d="M354.428 0.621889C375.403 -1.47978 390.703 -20.1868 388.601 -41.1613C386.499 -62.1359 367.792 -77.4354 346.818 -75.3337C325.843 -73.2321 310.544 -54.5251 312.645 -33.5505C314.747 -12.5759 333.454 2.72356 354.428 0.621889Z" stroke="#263238" stroke-miterlimit="10" stroke-linecap="round" stroke-linejoin="round"/>
<path d="M324.987 144.406L338.374 165.975C340.081 168.724 338.104 172.278 334.868 172.278H308.649H273.57H307.52C310.746 172.278 312.724 168.741 311.037 165.992L298.077 144.887L324.987 144.406Z" fill="white" stroke="#263238" stroke-miterlimit="10" stroke-linecap="round" stroke-linejoin="round"/>
<path d="M324.988 144.406L298.078 144.888L303.061 153.003H330.323L324.988 144.406Z" fill="#263238" stroke="#263238" stroke-miterlimit="10" stroke-linecap="round" stroke-linejoin="round"/>
<path d="M253.452 149.211H362.884C364.246 149.211 365.351 148.107 365.351 146.744V55.0926C365.351 53.73 364.247 52.625 362.884 52.625H253.452C252.089 52.625 250.984 53.73 250.984 55.0926V146.745C250.984 148.107 252.089 149.211 253.452 149.211Z" fill="white" stroke="#263238" stroke-miterlimit="10" stroke-linecap="round" stroke-linejoin="round"/>
<path d="M249.128 149.211H358.56C359.922 149.211 361.027 148.107 361.027 146.744V55.0926C361.027 53.73 359.922 52.625 358.56 52.625H249.128C247.765 52.625 246.66 53.73 246.66 55.0926V146.745C246.661 148.107 247.765 149.211 249.128 149.211Z" fill="white" stroke="#263238" stroke-miterlimit="10" stroke-linecap="round" stroke-linejoin="round"/>
<path d="M250.504 52.625H357.182C359.304 52.625 361.026 54.346 361.026 56.4696V131.913H246.66V56.4696C246.66 54.346 248.381 52.625 250.504 52.625Z" fill="#263238" stroke="#263238" stroke-miterlimit="10" stroke-linecap="round" stroke-linejoin="round"/>
<path d="M251.467 126.626L356.222 126.626V56.4689L251.467 56.4689V126.626Z" fill="white" stroke="#263238" stroke-miterlimit="10" stroke-linecap="round" stroke-linejoin="round"/>
<path d="M287.109 64.168H288.363V72.1418H287.109V64.168Z" fill="#263238"/>
<path d="M290.393 66.3669V72.1418H289.266V64.168H290.838L292.125 68.9413V64.168H293.241V72.1418H291.954L290.393 66.3669Z" fill="#263238"/>
<path d="M296.033 70.6725L296.991 64.168H298.141L296.911 72.1418H295.042L293.812 64.168H295.077L296.033 70.6725Z" fill="#263238"/>
<path d="M298.609 66.0811C298.609 64.8058 299.281 64.0762 300.512 64.0762C301.741 64.0762 302.414 64.8049 302.414 66.0811V70.2273C302.414 71.5035 301.741 72.2322 300.512 72.2322C299.281 72.2322 298.609 71.5035 298.609 70.2273V66.0811ZM299.863 70.3078C299.863 70.8773 300.113 71.0934 300.512 71.0934C300.911 71.0934 301.161 70.8773 301.161 70.3078V66.0014C301.161 65.432 300.91 65.215 300.512 65.215C300.113 65.215 299.863 65.432 299.863 66.0014V70.3078Z" fill="#263238"/>
<path d="M303.223 64.168H304.476V72.1418H303.223V64.168Z" fill="#263238"/>
<path d="M309.024 69.1691V70.2283C309.024 71.5045 308.386 72.2332 307.157 72.2332C305.925 72.2332 305.289 71.5045 305.289 70.2283V66.0821C305.289 64.8067 305.926 64.0771 307.157 64.0771C308.386 64.0771 309.024 64.8059 309.024 66.0821V66.8566H307.84V66.0024C307.84 65.433 307.589 65.216 307.191 65.216C306.791 65.216 306.542 65.433 306.542 66.0024V70.3088C306.542 70.8782 306.792 71.0833 307.191 71.0833C307.59 71.0833 307.84 70.8782 307.84 70.3088V69.1699L309.024 69.1691Z" fill="#263238"/>
<path d="M311.042 67.5277H312.763V68.6666H311.042V71.002H313.207V72.1409H309.789V64.167H313.207V65.3067H311.042V67.5277Z" fill="#263238"/>
<path d="M352.513 75.291H255.824V81.2752H352.513V75.291Z" fill="#0097B2"/>
<path d="M256.141 120.014V85.3691H351.885V121.274" stroke="#263238" stroke-miterlimit="10"/>
<path d="M256.453 97.0225H351.568" stroke="#263238" stroke-miterlimit="10"/>
<path d="M325.426 85.1172V121.273" stroke="#263238" stroke-miterlimit="10"/>
<path d="M204.577 167.446H201.25V168.556H204.577V167.446Z" fill="white" stroke="#263238" stroke-miterlimit="10" stroke-linecap="round" stroke-linejoin="round"/>
<path d="M209.01 167.446H205.684V168.556H209.01V167.446Z" fill="white" stroke="#263238" stroke-miterlimit="10" stroke-linecap="round" stroke-linejoin="round"/>
<path d="M213.448 167.446H210.121V168.556H213.448V167.446Z" fill="white" stroke="#263238" stroke-miterlimit="10" stroke-linecap="round" stroke-linejoin="round"/>
<path d="M217.882 167.446H214.555V168.556H217.882V167.446Z" fill="white" stroke="#263238" stroke-miterlimit="10" stroke-linecap="round" stroke-linejoin="round"/>
<path d="M222.319 167.446H218.992V168.556H222.319V167.446Z" fill="white" stroke="#263238" stroke-miterlimit="10" stroke-linecap="round" stroke-linejoin="round"/>
<path d="M226.757 167.446H223.43V168.556H226.757V167.446Z" fill="white" stroke="#263238" stroke-miterlimit="10" stroke-linecap="round" stroke-linejoin="round"/>
<path d="M231.19 167.446H227.863V168.556H231.19V167.446Z" fill="white" stroke="#263238" stroke-miterlimit="10" stroke-linecap="round" stroke-linejoin="round"/>
<path d="M235.628 167.446H232.301V168.556H235.628V167.446Z" fill="white" stroke="#263238" stroke-miterlimit="10" stroke-linecap="round" stroke-linejoin="round"/>
<path d="M240.065 167.446H236.738V168.556H240.065V167.446Z" fill="white" stroke="#263238" stroke-miterlimit="10" stroke-linecap="round" stroke-linejoin="round"/>
<path d="M244.499 167.446H241.172V168.556H244.499V167.446Z" fill="white" stroke="#263238" stroke-miterlimit="10" stroke-linecap="round" stroke-linejoin="round"/>
<path d="M248.936 167.446H245.609V168.556H248.936V167.446Z" fill="white" stroke="#263238" stroke-miterlimit="10" stroke-linecap="round" stroke-linejoin="round"/>
<path d="M253.37 167.446H250.043V168.556H253.37V167.446Z" fill="white" stroke="#263238" stroke-miterlimit="10" stroke-linecap="round" stroke-linejoin="round"/>
<path d="M257.807 167.446H254.48V168.556H257.807V167.446Z" fill="white" stroke="#263238" stroke-miterlimit="10" stroke-linecap="round" stroke-linejoin="round"/>
<path d="M262.241 167.446H258.914V168.556H262.241V167.446Z" fill="white" stroke="#263238" stroke-miterlimit="10" stroke-linecap="round" stroke-linejoin="round"/>
<path d="M266.678 167.446H263.352V168.556H266.678V167.446Z" fill="white" stroke="#263238" stroke-miterlimit="10" stroke-linecap="round" stroke-linejoin="round"/>
<path d="M271.116 167.446H267.789V168.556H271.116V167.446Z" fill="white" stroke="#263238" stroke-miterlimit="10" stroke-linecap="round" stroke-linejoin="round"/>
<path d="M275.553 167.446H272.227V168.556H275.553V167.446Z" fill="white" stroke="#263238" stroke-miterlimit="10" stroke-linecap="round" stroke-linejoin="round"/>
<path d="M279.987 167.446H276.66V168.556H279.987V167.446Z" fill="white" stroke="#263238" stroke-miterlimit="10" stroke-linecap="round" stroke-linejoin="round"/>
<path d="M284.425 167.446H281.098V168.556H284.425V167.446Z" fill="white" stroke="#263238" stroke-miterlimit="10" stroke-linecap="round" stroke-linejoin="round"/>
<path d="M288.858 167.446H285.531V168.556H288.858V167.446Z" fill="white" stroke="#263238" stroke-miterlimit="10" stroke-linecap="round" stroke-linejoin="round"/>
<path d="M293.296 167.446H289.969V168.556H293.296V167.446Z" fill="white" stroke="#263238" stroke-miterlimit="10" stroke-linecap="round" stroke-linejoin="round"/>
<path d="M295.718 168.717H199.531V172.302H295.718V168.717Z" fill="white" stroke="#263238" stroke-miterlimit="10" stroke-linecap="round" stroke-linejoin="round"/>
<path d="M295.717 168.717H272.254V172.302H295.717V168.717Z" fill="#263238" stroke="#263238" stroke-miterlimit="10" stroke-linecap="round" stroke-linejoin="round"/>
<path d="M388.691 91.2933V78.8936H379.793V91.2933H373.871L384.242 109.256L394.613 91.2933H388.691Z" fill="#263238"/>
<path d="M320.16 47.1168V45.8457" stroke="#263238" stroke-miterlimit="10"/>
<path d="M320.16 43.3479V34.4063C320.16 31.1303 322.816 28.4746 326.092 28.4746H378.63C381.906 28.4746 384.561 31.1303 384.561 34.4063V72.9842" stroke="#263238" stroke-miterlimit="10" stroke-dasharray="2.95 2.95"/>
<path d="M384.562 74.2334V75.5045" stroke="#263238" stroke-miterlimit="10"/>
<path d="M407.648 116.603H353.839C350.914 116.603 348.543 118.974 348.543 121.899V164.697H412.944V121.899C412.944 118.974 410.573 116.603 407.648 116.603Z" fill="#263238" stroke="#263238" stroke-miterlimit="10"/>
<path d="M409.556 110.671H351.934V164.697H409.556V110.671Z" fill="white" stroke="#263238" stroke-miterlimit="10"/>
<path d="M420.208 136.589H319.191V171.9H423.443V139.825C423.444 138.038 421.995 136.589 420.208 136.589Z" fill="#263238" stroke="#263238" stroke-miterlimit="10"/>
<path d="M406.004 136.589H305.803C304.685 136.589 303.777 137.496 303.777 138.615V171.9H408.029V138.615C408.03 137.496 407.123 136.589 406.004 136.589Z" fill="#636363" stroke="#263238" stroke-miterlimit="10"/>
<path d="M399.062 136.589H312.746V159.71C312.746 163.657 315.946 166.856 319.892 166.856H391.915C395.862 166.856 399.061 163.656 399.061 159.71V136.589H399.062Z" fill="#636363" stroke="#263238" stroke-miterlimit="10"/>
<path d="M383.087 136.589H328.719V171.9H383.087V136.589Z" fill="#263238" stroke="#263238" stroke-miterlimit="10"/>
<path d="M333.48 154.962C333.48 154.962 335.332 163.754 331.166 166.994C327.001 170.233 306.176 169.539 306.176 169.539H374.205C374.205 169.539 382.536 171.622 382.072 156.581L333.48 154.962Z" fill="white" stroke="#263238" stroke-miterlimit="10"/>
<path d="M375.2 168.225H331.648L334.022 166.895H376.911L375.2 168.225Z" fill="#0097B2"/>
<path d="M337.315 158.055C337.315 163.425 336.043 165.402 336.043 165.402H378.01C378.01 165.402 379.848 164.272 380.271 158.196" stroke="#A3A3A3" stroke-miterlimit="10"/>
<path d="M336.75 162.859H379.284" stroke="#A3A3A3" stroke-miterlimit="10"/>
<path d="M337.176 160.175H379.85" stroke="#A3A3A3" stroke-miterlimit="10"/>
<path d="M364.586 165.262C364.586 165.262 366.705 163.283 366.565 158.055" stroke="#A3A3A3" stroke-miterlimit="10"/>
<path d="M383.087 136.589H328.719V156.852H383.087V136.589Z" fill="#636363" stroke="#263238" stroke-miterlimit="10"/>
<path d="M383.088 169.58H323.793V171.901H383.088V169.58Z" fill="#263238" stroke="#263238" stroke-miterlimit="10"/>
<path d="M385.049 136.589H326.758V139.391C326.758 142.487 329.267 144.996 332.362 144.996H379.444C382.539 144.996 385.049 142.487 385.049 139.391V136.589Z" fill="#263238" stroke="#263238" stroke-miterlimit="10"/>
<path d="M404.667 142.895C404.667 143.901 403.852 144.717 402.845 144.717C401.839 144.717 401.023 143.902 401.023 142.895C401.023 141.889 401.839 141.073 402.845 141.073C403.852 141.073 404.667 141.889 404.667 142.895Z" fill="white" stroke="#263238" stroke-miterlimit="10"/>
<path d="M404.667 151.022C404.667 152.028 403.852 152.844 402.845 152.844C401.839 152.844 401.023 152.029 401.023 151.022C401.023 150.016 401.839 149.2 402.845 149.2C403.852 149.2 404.667 150.015 404.667 151.022Z" fill="white" stroke="#263238" stroke-miterlimit="10"/>
<path d="M403.274 169.012H402.175C401.34 169.012 400.664 168.336 400.664 167.501C400.664 166.666 401.34 165.99 402.175 165.99H403.274C404.109 165.99 404.785 166.666 404.785 167.501C404.785 168.336 404.109 169.012 403.274 169.012Z" fill="#263238" stroke="#263238" stroke-miterlimit="10"/>
<path d="M354.919 218.519V181.647H338.672V218.642" fill="white"/>
<path d="M354.919 218.519V181.647H338.672V218.642" stroke="#263238" stroke-miterlimit="10" stroke-linecap="round" stroke-linejoin="round"/>
<path d="M354.921 181.647H346.797V218.971H354.921V181.647Z" fill="#263238" stroke="#263238" stroke-miterlimit="10" stroke-linecap="round" stroke-linejoin="round"/>
<path d="M427.677 218.519V181.647H411.43V218.642" fill="white"/>
<path d="M427.677 218.519V181.647H411.43V218.642" stroke="#263238" stroke-miterlimit="10" stroke-linecap="round" stroke-linejoin="round"/>
<path d="M427.679 181.647H419.555V218.971H427.679V181.647Z" fill="#263238" stroke="#263238" stroke-miterlimit="10" stroke-linecap="round" stroke-linejoin="round"/>
<path d="M432.009 175.337H100.684V188.199H432.009V175.337Z" fill="white" stroke="#263238" stroke-miterlimit="10"/>
<path d="M432.01 175.337H352.285V188.199H432.01V175.337Z" fill="#263238" stroke="#263238" stroke-miterlimit="10"/>
<path d="M432.009 171.824H100.684V176.343H432.009V171.824Z" fill="white" stroke="#263238" stroke-miterlimit="10"/>
<path d="M432.011 171.824H359.52V176.343H432.011V171.824Z" fill="#263238" stroke="#263238" stroke-miterlimit="10"/>
<path d="M206.242 -4.09203C206.242 -4.09203 206.845 1.13632 206.443 3.14716C206.04 5.158 203.828 6.36468 204.029 7.77218C204.23 9.17968 209.258 16.4189 206.844 18.8314C204.431 21.2447 202.42 21.8472 202.42 21.8472L200.812 25.4664C200.812 25.4664 191.16 31.6997 187.339 33.3089C183.518 34.9172 186.937 42.5589 186.937 42.5589L177.083 40.3473L174.67 51.809C174.67 51.809 167.23 44.5698 157.176 41.3523C147.122 38.1348 143.301 38.5373 143.301 38.5373C143.301 38.5373 145.512 33.5106 146.92 26.0706C148.327 18.6305 149.132 2.14218 149.132 0.935503C149.132 -0.27117 155.567 -18.7704 161.197 -22.3904C166.827 -26.0096 189.75 -21.9879 201.815 -18.9721C213.88 -15.9562 208.652 -7.30954 208.652 -7.30954L206.242 -4.09203Z" fill="white" stroke="#263238" stroke-miterlimit="10"/>
<path d="M205.838 2.34233C205.838 2.34233 205.235 0.13067 202.621 0.934836C200.007 1.739 199.403 3.14649 200.409 3.14649C201.415 3.14649 203.828 1.93982 204.431 3.14649C205.034 4.35316 205.638 3.74984 205.838 2.34233Z" fill="#263238" stroke="#263238" stroke-miterlimit="10"/>
<path d="M202.22 9.58203L201.013 10.1854C201.013 10.1854 202.823 11.392 202.018 14.207C201.214 17.022 200.41 19.4354 200.41 19.4354" stroke="#263238" stroke-miterlimit="10"/>
<path d="M194.981 -9.52105C194.981 -9.52105 196.791 -1.8802 195.986 -0.271019C195.182 1.33731 189.149 3.54983 188.546 5.7615C187.943 7.97317 186.736 19.8374 187.138 22.049C187.541 24.2607 188.546 28.0816 189.552 28.0816C190.558 28.0816 197.998 22.4516 200.813 22.2499C203.628 22.049 202.421 27.0757 201.014 28.6849C199.606 30.2932 196.791 30.6957 196.992 32.5058C197.193 34.3158 200.813 40.5491 196.791 45.9783C192.769 51.4075 188.144 50.2008 183.318 46.3808C178.493 42.5599 177.688 36.1258 179.096 32.5058C180.503 28.8866 182.715 19.4357 182.917 15.2124C183.118 10.9899 182.113 5.56068 179.096 6.7665C176.079 7.97318 178.493 19.8365 176.281 22.4507C174.069 25.0649 165.222 32.5049 162.808 32.5049C160.395 32.5049 147.325 26.6732 146.923 26.0699C146.52 25.4665 148.129 -1.47854 146.52 -12.1361C144.912 -22.7936 148.732 -30.4344 160.998 -34.0545C173.264 -37.6736 195.584 -31.0386 195.584 -31.0386C195.584 -31.0386 193.373 -34.6578 198.198 -36.267C203.024 -37.8753 214.486 -33.452 215.29 -26.2128C216.094 -18.9736 211.872 -18.7728 212.475 -16.3594C213.079 -13.9461 220.719 -9.32191 216.698 -5.50106C212.676 -1.68021 206.242 -4.09356 206.242 -4.09356L205.438 -10.3269C205.438 -10.3252 201.214 -15.5536 194.981 -9.52105Z" fill="#263238" stroke="#263238" stroke-miterlimit="10"/>
<path d="M195.984 5.56037L176.881 4.95703C176.881 4.95703 172.859 5.96204 172.457 8.17455C172.054 10.3862 171.653 15.6146 172.859 15.8154C174.066 16.0162 174.066 14.6087 174.066 12.7996C174.066 10.9904 174.066 8.17455 175.674 7.16955C177.283 6.16456 180.099 5.96288 180.099 5.96288L196.386 7.57121L211.669 8.77788V6.16371L195.984 5.56037Z" fill="#5E5E5E" stroke="#263238" stroke-miterlimit="10"/>
<path d="M182.308 13.4033C182.308 13.4033 182.912 6.96823 179.694 5.15907C176.477 3.34906 174.265 8.37658 174.064 12.7999C173.863 17.2241 176.879 22.6533 180.7 21.6474" fill="white"/>
<path d="M182.308 13.4033C182.308 13.4033 182.912 6.96823 179.694 5.15907C176.477 3.34906 174.265 8.37658 174.064 12.7999C173.863 17.2241 176.879 22.6533 180.7 21.6474" stroke="#263238" stroke-miterlimit="10"/>
<path d="M211.669 8.77832C211.669 8.77832 212.071 13.4033 210.261 15.615C209.234 16.87 207.848 17.6259 207.848 17.6259" stroke="#263238" stroke-miterlimit="10"/>
<path d="M267.739 46.221L259.656 74.5118L253.594 90.6781L247.026 108.107C247.026 108.107 228.84 107.855 220.757 106.339C212.674 104.823 198.137 99.6544 198.137 99.6544C198.137 99.6544 208.614 83.9279 214.661 62.7933C218.093 50.7978 220.757 41.1689 220.757 41.1689L267.739 46.221Z" fill="white" stroke="#263238" stroke-miterlimit="10"/>
<path d="M227.249 59.1819C227.249 59.1819 221.201 80.8995 218.727 85.2974L248.141 89.6961C248.141 89.6961 253.639 80.0749 257.763 63.3052L227.249 59.1819Z" stroke="#A3A3A3" stroke-miterlimit="10"/>
<path d="M225.598 64.1292L256.112 68.2525" stroke="#A3A3A3" stroke-miterlimit="10"/>
<path d="M224.227 71.2776L253.544 75.1679" stroke="#A3A3A3" stroke-miterlimit="10"/>
<path d="M221.816 78.5403L251.231 82.6636" stroke="#A3A3A3" stroke-miterlimit="10"/>
<path d="M240.994 81.2991L235.223 97.118L244.569 99.0416L247.868 88.0459" stroke="#A3A3A3" stroke-miterlimit="10"/>
<path d="M207.457 86.9465L219.553 89.1463" stroke="#A3A3A3" stroke-miterlimit="10"/>
<path d="M206.633 88.5959L218.728 90.7949" stroke="#A3A3A3" stroke-miterlimit="10"/>
<path d="M205.809 90.2451L217.904 92.4441" stroke="#A3A3A3" stroke-miterlimit="10"/>
<path d="M222.037 43.1396L218.391 55.7784L260.925 60.8821L265.057 48.2434L222.037 43.1396Z" fill="#0097B2"/>
<path d="M223.585 45.6348L224.509 45.7297L222.83 51.6224L221.906 51.5275L223.585 45.6348Z" fill="#263238"/>
<path d="M225.539 47.508L224.323 51.7763L223.492 51.6915L225.171 45.7988L226.329 45.9183L226.273 49.5426L227.278 46.0158L228.102 46.1005L226.423 51.9932L225.474 51.8958L225.539 47.508Z" fill="#263238"/>
<path d="M228.794 51.1167L230.87 46.3832L231.717 46.4705L229.131 52.27L227.754 52.1285L228.525 46.1426L229.459 46.2383L228.794 51.1167Z" fill="#263238"/>
<path d="M231.661 47.9196C231.93 46.9765 232.579 46.4884 233.486 46.5816C234.393 46.6748 234.736 47.2646 234.466 48.2077L233.593 51.2719C233.325 52.2141 232.676 52.7022 231.769 52.609C230.862 52.5158 230.519 51.926 230.789 50.9837L231.661 47.9196ZM231.695 51.138C231.575 51.5591 231.714 51.7379 232.008 51.7684C232.302 51.7989 232.533 51.6583 232.653 51.2371L233.56 48.0552C233.68 47.634 233.54 47.4552 233.246 47.4247C232.952 47.3942 232.722 47.5357 232.602 47.956L231.695 51.138Z" fill="#263238"/>
<path d="M235.468 46.8564L236.391 46.9514L234.713 52.844L233.789 52.7491L235.468 46.8564Z" fill="#263238"/>
<path d="M238.687 50.9912L238.464 51.7741C238.196 52.7164 237.572 53.2071 236.665 53.1138C235.759 53.0206 235.441 52.4334 235.709 51.4911L236.582 48.427C236.851 47.4838 237.475 46.9932 238.382 47.0864C239.289 47.1796 239.606 47.7669 239.337 48.7109L239.174 49.2837L238.302 49.1939L238.481 48.5617C238.602 48.1414 238.462 47.9618 238.168 47.9321C237.873 47.9016 237.644 48.0431 237.524 48.4634L236.617 51.6453C236.498 52.0665 236.638 52.236 236.933 52.2665C237.226 52.2961 237.455 52.1648 237.575 51.7436L237.815 50.9013L238.687 50.9912Z" fill="#263238"/>
<path d="M240.525 49.9322L241.792 50.0627L241.552 50.9042L240.285 50.7737L239.793 52.4998L241.389 52.6642L241.149 53.5065L238.629 53.2472L240.308 47.3545L242.828 47.6138L242.588 48.4552L240.992 48.2908L240.525 49.9322Z" fill="#263238"/>
<path d="M259.953 52.0113C259.953 53.5553 258.538 54.8068 256.793 54.8068C255.048 54.8068 253.633 53.5553 253.633 52.0113C253.633 50.4674 255.047 49.2158 256.793 49.2158C258.538 49.2158 259.953 50.4674 259.953 52.0113Z" fill="white"/>
<path d="M229.854 133.619C229.854 133.619 237.432 115.685 238.189 108.612C238.947 101.539 239.452 94.9713 241.22 92.9503C242.989 90.9293 247.03 81.331 247.788 78.5525C248.545 75.7739 250.314 72.9953 252.335 75.0163C254.356 77.0373 253.597 81.8361 252.84 83.6046C252.082 85.3731 251.071 88.1516 251.071 88.1516L256.376 82.342L259.659 74.5113C259.659 74.5113 262.438 74.5113 262.943 77.0374C263.448 79.5634 266.479 83.3521 265.722 85.6256C264.964 87.8991 262.69 88.9092 262.69 88.9092C262.69 88.9092 263.953 95.2239 263.701 97.4974C263.448 99.7709 261.68 103.055 259.154 105.076C256.627 107.097 249.555 113.664 249.555 113.664C249.555 113.664 253.091 140.439 249.555 153.574C246.019 166.709 239.704 170.75 235.157 171.508C230.61 172.265 221.77 162.162 221.77 162.162C221.77 162.162 231.116 157.362 229.854 133.619Z" fill="white" stroke="#263238" stroke-miterlimit="10"/>
<path d="M262.69 88.9092L258.648 92.9503" stroke="#263238" stroke-miterlimit="10"/>
<path d="M256.375 82.3421L260.417 79.0576" stroke="#263238" stroke-miterlimit="10"/>
<path d="M140.521 33.4168C140.521 33.4168 147.582 31.722 158.316 36.2411C169.049 40.7602 174.981 46.9749 178.371 51.2118C181.76 55.4487 184.02 61.3804 184.02 61.3804C184.02 61.3804 143.063 45.5632 138.544 45.5632C134.024 45.5632 128.375 45.5632 128.375 45.5632C128.375 45.5632 133.741 33.982 140.521 33.4168Z" fill="white" stroke="#263238" stroke-miterlimit="10"/>
<path d="M281.185 218.993C248.419 190.182 197.294 190.182 197.294 190.182L189.667 182.838H98.9297V219.409" fill="white"/>
<path d="M281.185 218.993C248.419 190.182 197.294 190.182 197.294 190.182L189.667 182.838H98.9297V219.409" stroke="#263238" stroke-miterlimit="10"/>
<path d="M195.315 191.877C195.315 191.877 191.078 210.237 182.887 218.146" stroke="#263238" stroke-miterlimit="10"/>
<path d="M192.775 190.465C192.775 190.465 188.821 200.916 177.805 208.26" stroke="#263238" stroke-miterlimit="10"/>
<path d="M129.503 42.1726C129.503 42.1726 135.717 40.76 147.863 43.3022C160.009 45.8443 177.804 56.2951 185.712 59.6846C193.621 63.0742 199.836 63.3563 201.247 68.4406C202.66 73.5249 218.193 121.538 224.973 126.909C234.971 134.829 244.482 148.727 233.448 160.24C226.951 167.019 218.195 167.584 214.24 166.172C210.286 164.759 200.682 154.874 200.682 151.766C200.682 148.659 200.682 147.812 200.682 147.812L182.041 126.346C182.041 126.346 185.995 159.959 187.69 164.478C189.385 168.997 193.904 175.494 193.904 178.318C193.904 181.143 187.407 186.792 179.781 191.594C172.154 196.396 164.528 200.633 147.015 201.481C129.502 202.328 108.601 199.504 104.081 193.572C99.5607 187.64 93.912 180.579 93.3468 170.693C92.7816 160.806 90.8047 121.827 90.8047 121.827C90.8047 121.827 91.9342 90.1913 92.7816 79.7396C93.629 69.288 95.889 62.5098 101.255 60.2498C106.624 57.9899 125.831 42.1726 129.503 42.1726Z" fill="#C5E9F0" stroke="#263238" stroke-miterlimit="10"/>
<path d="M138.27 107.311C139.069 108.567 139.913 109.743 140.799 110.811" stroke="#263238" stroke-miterlimit="10"/>
<path d="M125.551 67.876C125.551 67.876 128.58 89.0817 136.176 103.658" stroke="#263238" stroke-miterlimit="10"/>
<path d="M127.527 94.4277C127.527 94.4277 133.741 114.483 143.345 124.934" stroke="#263238" stroke-miterlimit="10"/>
<path d="M167.918 109.398L182.041 126.346" stroke="#263238" stroke-miterlimit="10"/>
<path d="M163.68 104.313L165.879 106.953" stroke="#263238" stroke-miterlimit="10"/>
<path d="M164.246 111.94L177.522 121.544" stroke="#263238" stroke-miterlimit="10"/>
<path d="M183.169 74.6553C183.169 74.6553 169.893 87.366 170.176 102.054" stroke="#263238" stroke-miterlimit="10"/>
<path d="M224.976 126.911C224.977 126.914 229.777 136.233 222.716 143.011C215.654 149.79 200.684 147.814 200.684 147.814C200.684 147.814 200.684 148.661 200.684 151.768C200.684 154.876 210.287 164.761 214.242 166.174C218.196 167.586 226.952 167.021 233.449 160.242C244.482 148.728 234.972 134.831 224.976 126.911Z" fill="white" stroke="#263238" stroke-miterlimit="10"/>
<path d="M187.69 164.478L172.438 150.072" stroke="#263238" stroke-miterlimit="10"/>
<path d="M163.965 141.881L178.935 152.615" stroke="#263238" stroke-miterlimit="10"/>
<path d="M142.5 156.997C144.11 158.105 145.302 158.861 145.884 159.11" stroke="#263238" stroke-miterlimit="10"/>
<path d="M109.73 132.277C109.73 132.277 126.732 145.551 137.545 153.458" stroke="#263238" stroke-miterlimit="10"/>
<path d="M113.121 140.751C113.121 140.751 125.55 149.79 127.527 150.92" stroke="#263238" stroke-miterlimit="10"/>
<path d="M167.841 217.864H96.6612C93.5022 217.864 90.9414 215.303 90.9414 212.144V154.946C90.9414 150.616 94.4504 147.107 98.7797 147.107H165.723C170.052 147.107 173.561 150.616 173.561 154.946V212.144C173.561 215.303 171 217.864 167.841 217.864Z" fill="#263238" stroke="#263238" stroke-miterlimit="10"/>
<path d="M161.064 217.864H89.8839C86.7249 217.864 84.1641 215.303 84.1641 212.144V154.946C84.1641 150.616 87.6731 147.107 92.0024 147.107H158.946C163.275 147.107 166.784 150.616 166.784 154.946V212.144C166.784 215.303 164.223 217.864 161.064 217.864Z" fill="#636363" stroke="#263238" stroke-miterlimit="10"/>
<path d="M99.8382 222.79V167.868C99.8382 166.464 98.7002 165.326 97.2961 165.326C95.8919 165.326 94.7539 166.464 94.7539 167.868V222.79H99.8382Z" fill="#263238"/>
<path d="M146.022 222.79V167.868C146.022 166.464 144.884 165.326 143.48 165.326C142.076 165.326 140.938 166.464 140.938 167.868V222.79H146.022Z" fill="#263238"/>
</g>
</svg>
