<svg width="28" height="25" viewBox="0 0 28 25" fill="none" xmlns="http://www.w3.org/2000/svg">
<path d="M8 11V24" stroke="#7FD2B6" stroke-width="2" stroke-linecap="round" stroke-linejoin="round"/>
<path d="M8 11H2C1.73478 11 1.48043 11.1054 1.29289 11.2929C1.10536 11.4804 1 11.7348 1 12V23C1 23.2652 1.10536 23.5196 1.29289 23.7071C1.48043 23.8946 1.73478 24 2 24H8" stroke="#0097B2" stroke-width="2" stroke-linecap="round" stroke-linejoin="round"/>
<path d="M8 11L13 1C14.0609 1 15.0783 1.42143 15.8284 2.17157C16.5786 2.92172 17 3.93913 17 5V8H25C25.2837 8.00008 25.5641 8.06052 25.8227 8.1773C26.0813 8.29408 26.312 8.46453 26.4996 8.67734C26.6872 8.89014 26.8274 9.14043 26.9109 9.41157C26.9944 9.68272 27.0192 9.96852 26.9837 10.25L25.4837 22.25C25.4229 22.7332 25.1878 23.1776 24.8225 23.4998C24.4573 23.822 23.987 23.9999 23.5 24H8" stroke="#0097B2" stroke-width="2" stroke-linecap="round" stroke-linejoin="round"/>
</svg>
