<svg width="64" height="76" viewBox="0 0 64 76" fill="none" xmlns="http://www.w3.org/2000/svg">
<path d="M56.9212 12.4382V34.714C56.9212 37.4784 54.6801 39.7195 51.9156 39.7195H6.3532C3.58876 39.7195 1.34766 37.4784 1.34766 34.714V12.4382C1.34766 9.67372 3.58876 7.43262 6.3532 7.43262H51.9156C54.6801 7.43262 56.9212 9.67372 56.9212 12.4382Z" fill="#E0FFB8"/>
<path d="M56.7457 12.5938V34.8625C56.7457 37.0306 55.372 38.8722 53.4487 39.5701C53.6715 39.0057 53.7902 38.3896 53.7902 37.7509V15.4747C53.7902 12.7126 51.5552 10.4701 48.7856 10.4701H3.22348C2.62198 10.4701 2.04293 10.5741 1.51562 10.7745C2.24322 8.90331 4.05504 7.58154 6.17875 7.58154H51.7409C54.5032 7.5817 56.7457 9.82402 56.7457 12.5938Z" fill="#C9E7A3"/>
<path d="M48.5934 47.0173V53.4553C48.5934 55.345 48.0552 57.1956 47.042 58.7905L45.5182 61.1891C45.0769 61.8839 44.8424 62.69 44.8424 63.513V66.1994H22.9847V64.4603C22.9847 63.2052 22.4406 62.0117 21.4931 61.1885L17.0133 57.2971C15.9527 56.3759 15.3438 55.0401 15.3438 53.6355V47.3878C15.3438 44.2846 17.8593 41.769 20.9625 41.769H21.6211V48.9314" fill="#FEFEFF"/>
<path d="M48.5947 47.0185V53.4556C48.5947 55.3431 48.0515 57.1949 47.0454 58.7886L45.514 61.1926C45.0777 61.8871 44.8374 62.6882 44.8374 63.5161V66.196H42.4336V63.5161C42.4336 62.6882 42.6739 61.8871 43.1102 61.1926L44.6416 58.7886C45.6476 57.1949 46.1907 55.3431 46.1908 53.4556L46.2977 46.9585L48.5947 47.0185Z" fill="white"/>
<path d="M48.1319 67.6367V73.693C48.1319 74.4844 47.4903 75.1261 46.6989 75.1261H21.0698C20.2784 75.1261 19.6367 74.4844 19.6367 73.693V67.6367C19.6367 66.8453 20.2784 66.2036 21.0698 66.2036H46.6989C47.4904 66.2036 48.1319 66.8453 48.1319 67.6367Z" fill="#45C8DF"/>
<path d="M48.132 67.6376V73.6918C48.132 74.4841 47.4909 75.1252 46.6986 75.1252H45.5678V70.1393C45.5678 69.347 44.9268 68.706 44.1345 68.706H19.6328V67.6376C19.6328 66.8453 20.2738 66.2041 21.0663 66.2041H46.6988C47.4909 66.2041 48.132 66.8451 48.132 67.6376Z" fill="#0B8EA6"/>
<path d="M42.2422 48.0764V45.3236C42.2422 43.5702 43.6635 42.1489 45.417 42.1489C47.1703 42.1489 48.5916 43.5702 48.5916 45.3236V48.0764" fill="#FEFEFF"/>
<path d="M48.5981 45.3261V48.0772H46.3012V46.3677C46.3012 45.4862 45.945 44.6939 45.3664 44.124C44.7965 43.5453 44.0042 43.1892 43.1227 43.1892H43.0781C43.6569 42.5481 44.4938 42.1475 45.4197 42.1475C46.3012 42.1475 47.0935 42.5038 47.6632 43.0824C48.242 43.6523 48.5981 44.4536 48.5981 45.3261Z" fill="white"/>
<path d="M35.3672 48.0774V41.7486C35.3672 39.8504 36.906 38.3115 38.8043 38.3115C40.7025 38.3115 42.2413 39.8504 42.2413 41.7486V48.0774" fill="#FEFEFF"/>
<path d="M28.4961 48.0765V38.0894C28.4961 36.1912 30.0349 34.6523 31.9332 34.6523C33.8314 34.6523 35.3702 36.1912 35.3702 38.0894V48.0765" fill="#FEFEFF"/>
<path d="M21.625 51.2304V29.9337C21.625 28.0354 23.1639 26.4966 25.0621 26.4966C26.9603 26.4966 28.4992 28.0354 28.4992 29.9337V48.0763" fill="#FEFEFF"/>
<path d="M0.4375 12.5899V34.8657C0.4375 38.0353 3.01615 40.6143 6.18561 40.6143H20.8791V41.0304C17.4105 41.0762 14.6015 43.908 14.6015 47.3871V53.6348C14.6015 55.2548 15.3027 56.7935 16.5268 57.8572L21.0067 61.7483C21.792 62.4307 22.2424 63.4191 22.2424 64.4596V65.4617H21.0684C19.869 65.4617 18.8929 66.4377 18.8929 67.6372V73.6935C18.8929 74.8929 19.8689 75.869 21.0684 75.869H46.6974C47.8968 75.869 48.8729 74.893 48.8729 73.6935V67.6372C48.8729 66.4379 47.8969 65.4617 46.6974 65.4617H45.5851V63.5125C45.5851 61.9028 46.5251 61.1867 47.6692 59.1878C48.7598 57.4714 49.3362 55.4889 49.3362 53.455C49.3362 50.4518 49.3362 48.3914 49.3362 45.3241C49.3362 43.1639 47.5792 41.4069 45.419 41.4069C44.4957 41.4069 43.6573 41.7412 42.9869 42.2776V41.7477C42.9869 41.3544 42.9286 40.9753 42.8265 40.6143H51.748C54.9176 40.6143 57.4961 38.0353 57.4961 34.8657V12.5899C57.4961 9.42029 54.9175 6.8418 51.748 6.8418H6.18561C3.016 6.8418 0.4375 9.42029 0.4375 12.5899ZM46.6974 66.9467C47.0782 66.9467 47.3878 67.2563 47.3878 67.637V73.6934C47.3878 74.0741 47.0782 74.3837 46.6974 74.3837H21.0682C20.6875 74.3837 20.3779 74.0741 20.3779 73.6934V67.637C20.3779 67.2563 20.6875 66.9467 21.0682 66.9467H46.6974ZM42.9869 48.0765V45.3238C42.9869 43.983 44.0783 42.8917 45.419 42.8917C46.7597 42.8917 47.8511 43.9831 47.8511 45.3238C47.8511 45.4754 47.8511 53.7631 47.8511 53.4547C47.8511 55.2067 47.3551 56.9136 46.4161 58.3914C45.3801 60.2496 44.1 61.3174 44.1 63.5124V65.4564L23.7273 65.4556V64.4593C23.7273 62.9881 23.0907 61.5914 21.9798 60.627L17.5006 56.7359C16.6022 55.9549 16.0866 54.8244 16.0866 53.6345V47.3868C16.0866 44.7263 18.2287 42.5566 20.8791 42.5117V48.9307V51.2308C20.8791 51.6412 21.2111 51.9734 21.6216 51.9734C22.0321 51.9734 22.3642 51.6414 22.3642 51.2308V48.9307C22.3642 42.6221 22.3642 36.8441 22.3642 29.9339C22.3642 28.4482 23.573 27.2392 25.0588 27.2392C26.5447 27.2392 27.7535 28.448 27.7535 29.9339V48.0764C27.7535 48.4867 28.0856 48.8189 28.4961 48.8189C28.9066 48.8189 29.2386 48.4869 29.2386 48.0764V38.0891C29.2386 36.6033 30.4474 35.3944 31.9333 35.3944C33.419 35.3944 34.628 36.6032 34.628 38.0891V48.0764C34.628 48.4867 34.96 48.8189 35.3705 48.8189C35.7809 48.8189 36.1131 48.4869 36.1131 48.0764V41.7474C36.1131 40.2616 37.3219 39.0534 38.8078 39.0534C40.2937 39.0534 41.5024 40.2615 41.5024 41.7474C41.5024 41.9603 41.5024 48.4208 41.5024 48.0764C41.5024 48.4867 41.8345 48.8189 42.245 48.8189C42.6548 48.8191 42.9869 48.4869 42.9869 48.0765ZM26.4785 26.008V19.2024H27.1296C29.5827 19.2024 31.5782 21.1983 31.5782 23.6518C31.5782 25.5665 30.361 27.1989 28.6605 27.8241C28.1701 26.9899 27.4 26.3423 26.4785 26.008ZM56.011 12.5899V34.8657C56.011 37.2166 54.0989 39.1292 51.748 39.1292H42.0601C41.2933 38.1787 40.1208 37.5683 38.8073 37.5683C37.7809 37.5683 36.8411 37.9417 36.1126 38.5581V38.0894C36.1126 35.7846 34.2375 33.9097 31.933 33.9097C30.9066 33.9097 29.9668 34.2832 29.2383 34.8995V29.9341C29.2383 29.6889 29.213 29.4501 29.1722 29.2164C31.4397 28.3818 33.0635 26.2055 33.0635 23.6518C33.0635 20.3796 30.4015 17.7173 27.1297 17.7173H25.7361C25.3257 17.7173 24.9935 18.0498 24.9935 18.4598V25.7576C24.3513 25.7676 23.7455 25.9243 23.2043 26.1939C23.1876 25.1625 22.6962 24.2533 21.9445 23.6518C22.7093 23.0394 23.2096 22.1096 23.2096 21.0559C23.2096 19.2151 21.7123 17.7174 19.8712 17.7174H17.2751C16.8648 17.7174 16.5326 18.0499 16.5326 18.46V28.8436C16.5326 29.2536 16.8646 29.5861 17.2751 29.5861C17.6856 29.5861 18.0177 29.2536 18.0177 28.8436V24.3945H19.8712C20.893 24.3945 21.7247 25.2259 21.7247 26.2475V27.4241C21.1964 28.1241 20.8792 28.9917 20.8792 29.9341V39.129H6.18561C3.83473 39.129 1.92262 37.2164 1.92262 34.8656V12.5899C1.92262 10.2393 3.83473 8.32691 6.18561 8.32691H51.748C54.0989 8.32676 56.011 10.2393 56.011 12.5899ZM21.7245 21.0557C21.7245 22.0778 20.8928 22.9092 19.871 22.9092H18.0175V19.2024H19.871C20.8928 19.2024 21.7245 20.0338 21.7245 21.0557Z" fill="#2E2E6D"/>
<path d="M53.9023 0.872929V3.91735C53.9023 4.32741 54.2344 4.65991 54.6449 4.65991C55.0553 4.65991 55.3875 4.32741 55.3875 3.91735V0.872929C55.3875 0.462873 55.0554 0.130371 54.6449 0.130371C54.2345 0.130371 53.9023 0.462873 53.9023 0.872929Z" fill="#2E2E6D"/>
<path d="M60.5671 3.32588L58.2133 5.25662C57.8958 5.5166 57.85 5.98421 58.1097 6.3016C58.3703 6.61869 58.8388 6.66479 59.1546 6.4045L61.5084 4.47376C61.826 4.21377 61.8718 3.74616 61.6121 3.42877C61.3509 3.11199 60.8833 3.06421 60.5671 3.32588Z" fill="#2E2E6D"/>
<path d="M59.0458 10.0248C58.9654 10.4269 59.2264 10.818 59.6288 10.8982L62.6142 11.4939C62.6627 11.5036 62.712 11.5084 62.76 11.5084C63.1065 11.5084 63.4169 11.2644 63.4873 10.9111C63.5677 10.509 63.3067 10.1179 62.9042 10.0378L59.9189 9.44206C59.5194 9.35901 59.1255 9.62266 59.0458 10.0248Z" fill="#2E2E6D"/>
<path d="M11.4088 29.5868C13.2499 29.5868 14.7472 28.089 14.7472 26.2484V21.0567C14.7472 19.2159 13.2499 17.7183 11.4088 17.7183C9.56764 17.7183 8.07031 19.216 8.07031 21.0567V26.2484C8.07016 28.089 9.56764 29.5868 11.4088 29.5868ZM9.55528 21.0566C9.55528 20.0345 10.387 19.2031 11.4088 19.2031C12.4306 19.2031 13.2623 20.0345 13.2623 21.0566V26.2482C13.2623 27.2703 12.4306 28.1017 11.4088 28.1017C10.387 28.1017 9.55528 27.2703 9.55528 26.2482V21.0566Z" fill="#2E2E6D"/>
<path d="M44.094 29.5868C44.5043 29.5868 44.8365 29.2543 44.8365 28.8443V24.3952H46.69C47.7118 24.3952 48.5435 25.2266 48.5435 26.2482V28.8443C48.5435 29.2543 48.8756 29.5868 49.2861 29.5868C49.6964 29.5868 50.0286 29.2543 50.0286 28.8443V26.2482C50.0286 25.1945 49.5283 24.2648 48.7635 23.6526C49.5283 23.0403 50.0286 22.1104 50.0286 21.0567C50.0286 19.2159 48.5311 17.7183 46.6902 17.7183H44.0941C43.6838 17.7183 43.3516 18.0508 43.3516 18.4608V28.8444C43.3516 29.2543 43.6836 29.5868 44.094 29.5868ZM44.8365 19.2032H46.69C47.7118 19.2032 48.5435 20.0346 48.5435 21.0567C48.5435 22.0788 47.7118 22.9102 46.69 22.9102H44.8365V19.2032Z" fill="#2E2E6D"/>
<path d="M35.5941 29.587H40.7861C41.1964 29.587 41.5286 29.2545 41.5286 28.8444C41.5286 28.4344 41.1966 28.1019 40.7861 28.1019H36.3367V24.3953H40.7861C41.1964 24.3953 41.5286 24.0628 41.5286 23.6528C41.5286 23.2427 41.1966 22.9102 40.7861 22.9102H36.3367V19.2034H40.7861C41.1964 19.2034 41.5286 18.8709 41.5286 18.4608C41.5286 18.0508 41.1966 17.7183 40.7861 17.7183H35.5941C35.1838 17.7183 34.8516 18.0508 34.8516 18.4608V28.8444C34.8516 29.2545 35.1836 29.587 35.5941 29.587Z" fill="#2E2E6D"/>
</svg>
