<svg width="298" height="268" viewBox="0 0 298 268" fill="none" xmlns="http://www.w3.org/2000/svg">
<path d="M232.36 161.252C238.749 161.252 245.139 161.252 251.723 161.252C253.902 166.7 253.902 166.7 254.812 169.374C255.015 169.97 255.219 170.566 255.428 171.18C255.643 171.813 255.857 172.446 256.072 173.08C256.297 173.742 256.522 174.405 256.747 175.067C257.215 176.445 257.682 177.823 258.148 179.201C258.746 180.967 259.347 182.733 259.949 184.498C260.413 185.86 260.875 187.224 261.337 188.588C261.557 189.239 261.779 189.891 262.001 190.542C262.31 191.448 262.616 192.355 262.922 193.263C263.184 194.036 263.184 194.036 263.452 194.824C263.825 196.106 263.825 196.106 263.825 197.558C264.144 197.558 264.464 197.558 264.793 197.558C264.848 197.147 264.903 196.736 264.96 196.312C265.297 194.55 265.831 193.02 266.48 191.348C266.602 191.031 266.724 190.714 266.849 190.388C267.251 189.348 267.655 188.31 268.06 187.271C268.341 186.546 268.621 185.821 268.901 185.096C269.339 183.964 269.776 182.832 270.215 181.701C271.277 178.959 272.327 176.214 273.37 173.465C273.66 172.704 273.949 171.942 274.239 171.181C274.658 170.077 275.078 168.972 275.496 167.868C275.883 166.846 276.271 165.826 276.66 164.805C276.881 164.223 277.103 163.64 277.33 163.041C277.863 161.736 277.863 161.736 278.347 161.252C279.743 161.209 281.128 161.196 282.524 161.205C283.152 161.206 283.152 161.206 283.792 161.207C285.134 161.209 286.475 161.215 287.817 161.222C288.724 161.224 289.632 161.226 290.539 161.228C292.768 161.234 294.997 161.242 297.226 161.252C296.331 163.984 295.395 166.694 294.384 169.385C294.252 169.739 294.119 170.094 293.983 170.459C293.542 171.636 293.1 172.813 292.658 173.989C292.502 174.405 292.346 174.821 292.185 175.249C289.444 182.548 286.656 189.829 283.854 197.104C283.552 197.888 283.552 197.888 283.244 198.687C282.414 200.841 281.585 202.995 280.755 205.149C280.114 206.814 279.472 208.479 278.831 210.144C278.504 210.995 278.504 210.995 278.169 211.862C276.611 215.907 275.057 219.953 273.506 224.001C273.291 224.562 273.076 225.123 272.854 225.702C270.257 232.484 267.739 239.283 265.368 246.147C259.192 263.987 259.192 263.987 253.194 267.332C251.448 268.07 249.745 268.012 247.874 267.988C247.446 267.99 247.019 267.992 246.579 267.994C245.146 268 243.713 267.991 242.28 267.982C241.243 267.983 240.205 267.985 239.168 267.987C236.317 267.992 233.465 267.984 230.614 267.974C227.54 267.966 224.465 267.969 221.391 267.97C216.064 267.971 210.737 267.965 205.41 267.954C199.823 267.943 194.237 267.935 188.65 267.933C188.302 267.933 187.955 267.933 187.597 267.933C185.833 267.932 184.069 267.932 182.304 267.931C169.809 267.927 157.313 267.914 144.818 267.896C132.679 267.878 120.54 267.864 108.401 267.856C108.027 267.856 107.652 267.855 107.267 267.855C103.509 267.853 99.7512 267.85 95.9934 267.848C88.3383 267.843 80.6832 267.837 73.0281 267.831C72.6762 267.831 72.3242 267.831 71.9616 267.831C48.4589 267.813 24.9562 267.782 1.45346 267.749C1.45346 261.36 1.45346 254.97 1.45346 248.386C4.42257 248.383 7.39169 248.381 10.4508 248.378C30.057 248.358 49.6632 248.338 69.2694 248.309C69.7712 248.309 69.7712 248.309 70.2832 248.308C77.5535 248.297 84.8237 248.287 92.094 248.275C95.6593 248.27 99.2246 248.265 102.79 248.259C103.322 248.258 103.322 248.258 103.865 248.258C115.366 248.24 126.867 248.228 138.368 248.218C150.186 248.207 162.005 248.192 173.823 248.171C175.492 248.168 177.161 248.165 178.83 248.162C179.158 248.161 179.487 248.161 179.825 248.16C185.114 248.151 190.403 248.147 195.692 248.145C201.009 248.143 206.325 248.135 211.642 248.122C214.522 248.115 217.403 248.111 220.284 248.113C222.921 248.114 225.558 248.109 228.194 248.099C229.149 248.097 230.103 248.096 231.058 248.099C232.355 248.102 233.651 248.096 234.948 248.088C235.319 248.091 235.69 248.095 236.073 248.098C238.977 248.065 241.594 247.481 243.993 245.733C246.79 242.482 248.554 238.724 250.271 234.832C250.601 234.086 250.601 234.086 250.938 233.325C251.654 231.677 252.342 230.02 253.024 228.357C253.366 227.564 253.366 227.564 253.714 226.754C254.019 225.985 254.019 225.985 254.33 225.2C254.609 224.521 254.609 224.521 254.893 223.828C255.219 221.466 254.465 219.615 253.659 217.405C253.457 216.849 253.457 216.849 253.251 216.282C252.825 215.148 252.383 214.021 251.935 212.895C251.768 212.472 251.602 212.049 251.43 211.613C251.071 210.701 250.711 209.789 250.351 208.878C249.374 206.409 248.404 203.937 247.432 201.466C247.23 200.952 247.027 200.437 246.819 199.907C244.53 194.09 242.271 188.26 240.014 182.43C239.451 180.975 238.887 179.52 238.323 178.065C237.969 177.15 237.615 176.235 237.262 175.32C236.426 173.159 235.585 171 234.73 168.847C234.57 168.444 234.411 168.041 234.247 167.626C233.949 166.873 233.649 166.12 233.347 165.369C232.777 163.924 232.36 162.821 232.36 161.252Z" fill="#0097B2"/>
<path d="M58.092 2.47378C58.6087 2.65474 59.1254 2.83571 59.6577 3.02215C65.2506 5.1656 69.8149 8.46077 74.0667 12.6395C74.3699 12.9365 74.6732 13.2335 74.9857 13.5395C83.7066 22.7735 85.9727 35.5989 85.8169 47.8203C85.5078 57.9273 82.1986 67.1327 76.003 75.0858C75.7303 75.4471 75.4576 75.8084 75.1766 76.1806C68.7808 84.1015 58.3169 88.4853 48.4104 89.6082C35.5892 90.3154 23.8164 87.6128 14.0464 78.8884C5.19295 70.6758 1.44806 59.0128 0.83445 47.2341C0.435424 34.5401 3.91895 22.1394 12.5583 12.6395C23.7726 0.829462 42.8473 -3.05334 58.092 2.47378ZM26.0387 26.9368C21.0837 33.7785 20.6124 42.7147 21.5118 50.8421C22.6321 57.5567 25.4874 63.9131 31.1348 67.9456C36.6875 71.4452 43.1701 71.885 49.4939 70.6061C54.5685 69.2352 58.7785 66.088 61.6319 61.6828C66.0507 53.7412 66.7013 43.3169 64.3047 34.6227C62.6492 29.2206 59.7779 24.6179 54.9361 21.5477C45.1112 16.3711 33.2229 18.353 26.0387 26.9368Z" fill="#0097B2"/>
<path d="M55.3402 138.926C61.2027 144.443 62.7627 151.011 63.4145 158.831C57.0246 158.831 50.6348 158.831 44.0513 158.831C43.572 157.234 43.0928 155.636 42.599 153.991C41.4156 151.897 39.8929 150.874 37.7034 149.987C33.4836 148.92 28.6385 149.081 24.6843 150.952C22.717 152.213 21.5614 153.689 20.8154 155.927C20.5067 158.493 20.606 160.976 21.9538 163.235C25.1431 166.918 31.8672 167.395 36.4573 168.271C45.6719 170.042 54.7678 172.006 60.9941 179.647C65.0176 185.977 65.2672 193.671 64.0668 200.916C62.1912 207.614 57.8674 213.116 52.0083 216.8C42.5332 222.023 30.0381 222.974 19.646 220.23C12.2589 218.045 6.40427 213.864 2.4204 207.239C0.311305 202.936 0 199.596 0 194.653C6.23011 194.653 12.4602 194.653 18.8791 194.653C19.598 197.05 19.598 197.05 20.3314 199.494C23.7222 203.011 26.9822 203.835 31.798 203.972C36.4609 203.926 40.5607 202.898 43.9605 199.615C45.138 197.384 45.1165 195.29 44.7471 192.868C43.9256 190.975 42.836 189.959 41.1468 188.844C39.6162 188.244 39.6162 188.244 37.9095 187.906C37.4261 187.794 37.4261 187.794 36.933 187.68C35.2535 187.296 33.5677 186.943 31.8817 186.589C11.1643 182.233 11.1643 182.233 5.32488 174.352C1.146 167.774 -0.0340767 160.306 1.543 152.69C3.34351 145.786 7.52332 140.402 13.5542 136.564C26.3324 129.591 43.6962 129.497 55.3402 138.926Z" fill="#0097B2"/>
<path d="M165.992 165.609C172.57 170.661 176.534 177.739 177.657 185.94C178.334 193.908 177.287 201.421 172.816 208.208C172.574 208.584 172.331 208.96 172.081 209.348C167.431 215.92 159.681 219.709 151.889 221.066C142.259 222.184 132.523 220.878 124.588 214.949C118.218 209.775 114.33 203.294 113.275 195.138C112.397 185.893 114.328 177.869 119.9 170.359C130.872 157.193 152.39 156.236 165.992 165.609ZM134.302 181.009C131.849 184.836 131.162 188.693 131.67 193.201C132.579 197.261 134.441 200.757 138.006 203.049C141.698 204.974 145.451 205.414 149.541 204.505C153.515 203.223 156.035 201.188 157.991 197.497C159.899 193.5 159.847 188.685 158.445 184.548C157.056 181.161 155.225 179.069 152.001 177.227C145.884 174.825 138.608 175.742 134.302 181.009Z" fill="#0097B2"/>
<path d="M95.3648 29.582C101.435 29.582 107.506 29.582 113.76 29.582C113.778 31.9664 113.796 34.3507 113.815 36.8073C113.829 38.3273 113.844 39.8473 113.861 41.3673C113.887 43.7743 113.912 46.1813 113.928 48.5884C113.94 50.5314 113.96 52.4742 113.984 54.4171C113.992 55.1544 113.998 55.8918 114.001 56.6292C113.94 63.9638 113.94 63.9638 116.846 70.517C119.19 72.694 121.764 73.1034 124.894 73.1492C127.677 72.8603 130.072 72.1824 132.155 70.2447C134.603 66.2198 134.376 61.7527 134.369 57.2181C134.375 56.4339 134.382 55.6497 134.39 54.8655C134.408 52.8165 134.416 50.7676 134.42 48.7185C134.43 45.424 134.457 42.1295 134.483 38.8351C134.49 37.6849 134.494 36.5348 134.496 35.3846C134.5 34.6858 134.503 33.987 134.507 33.2881C134.508 32.6761 134.51 32.064 134.512 31.4333C134.575 30.0661 134.575 30.0661 135.059 29.582C140.97 29.582 146.881 29.582 152.97 29.582C152.97 48.9113 152.97 68.2407 152.97 88.1557C147.219 88.1557 141.469 88.1557 135.543 88.1557C135.384 86.2387 135.224 84.3218 135.059 82.3467C134.74 82.3467 134.42 82.3467 134.091 82.3467C133.852 83.0656 133.852 83.0656 133.607 83.799C127.745 88.9979 120.942 89.9868 113.435 89.6947C108.699 89.3303 104.358 87.0508 101.081 83.6742C95.1907 76.7532 95.2177 68.6671 95.2702 60.0261C95.272 59.1445 95.2734 58.2628 95.2744 57.3811C95.278 55.0797 95.2875 52.7783 95.2983 50.4768C95.31 47.7053 95.3144 44.9337 95.32 42.1621C95.3294 37.9687 95.3479 33.7754 95.3648 29.582Z" fill="#0097B2"/>
<path d="M79.8713 143.341C85.9416 143.341 92.012 143.341 98.2663 143.341C98.2663 149.251 98.2663 155.162 98.2663 161.252C101.94 161.252 105.615 161.252 109.4 161.252C109.4 166.364 109.4 171.476 109.4 176.742C105.726 176.742 102.052 176.742 98.2663 176.742C98.2663 190.96 98.2663 205.177 98.2663 219.825C92.1959 219.825 86.1256 219.825 79.8713 219.825C79.8713 205.608 79.8713 191.391 79.8713 176.742C76.1971 176.742 72.5229 176.742 68.7374 176.742C68.7263 174.614 68.7167 172.486 68.7108 170.357C68.7084 169.633 68.7051 168.908 68.7009 168.184C68.6951 167.144 68.6923 166.105 68.6901 165.066C68.6876 164.44 68.6851 163.813 68.6825 163.168C68.7374 161.736 68.7374 161.736 69.2215 161.252C70.0128 161.21 70.806 161.2 71.5984 161.205C72.0296 161.206 72.4609 161.207 72.9052 161.208C73.4567 161.213 74.0083 161.217 74.5766 161.222C77.1975 161.236 77.1975 161.236 79.8713 161.252C79.8713 155.341 79.8713 149.431 79.8713 143.341Z" fill="#0097B2"/>
<path d="M199.741 29.0071C200.144 29.0074 200.547 29.0077 200.963 29.0081C202.996 29.0226 204.675 29.1769 206.7 29.582C206.7 35.3328 206.7 41.0837 206.7 47.0088C201.92 47.1601 201.92 47.1601 200.445 47.1966C195.604 47.3903 191.166 48.3685 187.73 52.0009C185.578 55.1923 184.873 58.2695 184.817 62.0518C184.807 62.6331 184.798 63.2145 184.788 63.8134C184.775 64.7476 184.775 64.7476 184.763 65.7007C184.753 66.3485 184.743 66.9962 184.733 67.6439C184.706 69.343 184.682 71.042 184.659 72.7411C184.634 74.4772 184.607 76.2132 184.581 77.9493C184.528 81.3514 184.48 84.7535 184.432 88.1556C178.362 88.1556 172.291 88.1556 166.037 88.1556C166.037 68.9861 166.037 49.8165 166.037 30.066C171.788 30.066 177.539 30.066 183.464 30.066C183.784 32.3025 184.103 34.5389 184.432 36.8432C184.911 36.1742 185.391 35.5053 185.884 34.8161C189.536 30.1337 193.958 28.9213 199.741 29.0071Z" fill="#0097B2"/>
<path d="M228.004 161.252C228.004 167.003 228.004 172.754 228.004 178.679C225.757 178.754 225.757 178.754 223.466 178.83C219.983 178.987 216.698 179.146 213.481 180.615C212.956 180.853 212.956 180.853 212.421 181.095C209.653 182.574 208.297 184.493 207.188 187.392C206.272 191.569 206.064 195.756 206.02 200.018C206.01 200.589 206.001 201.161 205.991 201.749C205.963 203.549 205.94 205.349 205.918 207.149C205.899 208.379 205.88 209.61 205.861 210.841C205.814 213.836 205.775 216.831 205.736 219.826C199.826 219.826 193.915 219.826 187.825 219.826C187.825 200.656 187.825 181.486 187.825 161.736C193.416 161.736 199.008 161.736 204.768 161.736C205.563 162.531 205.406 163.517 205.494 164.61C205.616 166.386 205.616 166.386 206.22 168.029C206.467 167.708 206.715 167.386 206.969 167.055C212.335 160.538 219.97 159.243 228.004 161.252Z" fill="#0097B2"/>
</svg>
