<svg width="404" height="77" viewBox="0 0 404 77" fill="none" xmlns="http://www.w3.org/2000/svg">
<path d="M325.952 0L322.021 5.58283C319.652 3.79784 317.473 2.65849 315.489 2.16477C313.514 1.67105 311.596 1.42419 309.735 1.42419H308.976V34.2565C308.976 36.2694 308.995 38.0069 309.033 39.4596C309.071 40.9028 309.147 42.2463 309.26 43.4853C309.384 44.7291 309.526 46.0631 309.678 47.492H295.968C296.167 46.0631 296.315 44.7291 296.405 43.4853C296.504 42.2463 296.576 40.9028 296.614 39.4596C296.661 38.0069 296.69 36.2694 296.69 34.2565V1.42419H295.911C294.05 1.42419 292.137 1.67105 290.176 2.16477C288.225 2.65849 286.041 3.79784 283.625 5.58283L279.713 0H325.952Z" fill="#B0E867"/>
<path d="M364.519 36.1556H365.715C364.485 40.0673 362.506 43.1388 359.771 45.3653C357.046 47.5776 353.353 48.6884 348.682 48.6884C346.184 48.6884 343.787 48.3466 341.485 47.663C339.192 46.9936 337.165 46.0062 335.408 44.7007C333.647 43.3999 332.246 41.7669 331.211 39.8015C330.186 37.8408 329.673 35.5764 329.673 33.0033C329.673 30.4351 330.186 28.1753 331.211 26.2242C332.246 24.2636 333.647 22.6162 335.408 21.287C337.165 19.9578 339.139 18.9608 341.333 18.2867C343.535 17.6173 345.805 17.2803 348.15 17.2803C351.539 17.2803 354.435 17.8642 356.828 19.0273C359.23 20.1951 361.086 21.757 362.392 23.7176C363.693 25.683 364.367 27.8478 364.405 30.2119H341.257C341.219 30.492 341.2 30.8006 341.2 31.1424C341.2 31.4747 341.2 31.7975 341.2 32.1108C341.2 34.6934 341.603 37.0385 342.415 39.1369C343.222 41.2257 344.447 42.8872 346.08 44.112C347.723 45.3416 349.773 45.954 352.233 45.954C354.687 45.954 357.042 45.2229 359.297 43.7512C361.547 42.2843 363.289 39.754 364.519 36.1556ZM347.96 18.7614C346.137 18.7614 344.646 19.5685 343.497 21.1731C342.358 22.7682 341.627 25.289 341.314 28.7308H353.315C353.315 25.607 352.902 23.1622 352.081 21.4009C351.269 19.6444 349.897 18.7614 347.96 18.7614Z" fill="#B0E867"/>
<path d="M370.218 33.0033C370.218 29.4856 371.025 26.5613 372.649 24.2303C374.282 21.8899 376.456 20.1476 379.181 19.0083C381.916 17.8594 384.925 17.2803 388.22 17.2803C391.03 17.2803 393.423 17.698 395.398 18.5336C397.373 19.3596 398.954 20.4467 400.145 21.7997C401.332 23.1432 402.144 24.6244 402.576 26.2432C401.74 27.4348 400.72 28.1374 399.519 28.351C398.313 28.5694 397.211 28.3225 396.214 27.6104C395.227 26.9031 394.619 25.8159 394.392 24.3443C394.225 23.3568 393.964 22.4453 393.613 21.6098C393.257 20.7743 392.701 20.0907 391.942 19.559C391.192 19.0273 390.128 18.7614 388.752 18.7614C386.217 18.7614 384.413 19.8153 383.34 21.9136C382.276 24.0025 381.745 27.2639 381.745 31.6931C381.745 34.2376 382.058 36.5638 382.694 38.6621C383.326 40.7509 384.365 42.422 385.808 43.6753C387.252 44.9191 389.217 45.5362 391.714 45.5362C394.168 45.5362 396.395 44.7387 398.398 43.1436C400.397 41.539 401.845 39.0514 402.747 35.6808H404C403.288 38.1019 402.282 40.2905 400.981 42.2511C399.675 44.2022 397.952 45.7641 395.816 46.9414C393.675 48.1045 390.94 48.6884 387.612 48.6884C384.536 48.6884 381.678 48.1093 379.048 46.9604C376.413 45.8116 374.282 44.0693 372.649 41.7384C371.025 39.398 370.218 36.4879 370.218 33.0033Z" fill="#B0E867"/>
<path d="M0 47.492C0.189892 46.2292 0.351301 44.976 0.49372 43.7322C0.631391 42.4789 0.731085 41.0262 0.797547 39.3646C0.859262 37.6936 0.892493 35.657 0.892493 33.2501V14.2419C0.892493 11.8018 0.859262 9.75571 0.797547 8.10839C0.731085 6.46583 0.631391 5.00841 0.49372 3.74088C0.351301 2.47809 0.189892 1.22955 0 0H20.4704C23.6321 0 26.6703 0.161409 29.5852 0.47473C32.4953 0.7928 35.0826 1.38621 37.3518 2.25972C39.6305 3.13322 41.4202 4.42449 42.7257 6.13352C44.0407 7.83305 44.7006 10.0405 44.7006 12.7608C44.7006 15.4952 44.0407 17.7169 42.7257 19.426C41.4202 21.1255 39.6305 22.4073 37.3518 23.2808C35.0826 24.1448 32.4953 24.7334 29.5852 25.0468C26.6703 25.3648 23.6321 25.5215 20.4704 25.5215H17.5081V33.2501C17.5081 35.657 17.5318 37.6936 17.584 39.3646C17.6457 41.0262 17.7454 42.4789 17.8878 43.7322C18.0255 44.976 18.1964 46.2292 18.4005 47.492H0ZM17.5081 23.7555H20.2425C21.7854 23.7555 23.1384 23.4422 24.3062 22.806C25.4693 22.1747 26.3855 21.0543 27.0596 19.445C27.729 17.8404 28.0661 15.6091 28.0661 12.7608C28.0661 9.87439 27.729 7.64316 27.0596 6.05756C26.3855 4.47671 25.4693 3.37058 24.3062 2.73445C23.1384 2.10306 21.7854 1.78499 20.2425 1.78499H17.5081V23.7555Z" fill="#0097B2"/>
<path d="M74.6681 47.492C74.9814 45.4317 75.1998 43.7037 75.3137 42.308C75.4372 40.9028 75.5084 39.5498 75.5226 38.2443C75.5463 36.9293 75.5606 35.4624 75.5606 33.8388V23.8694C75.5606 22.7206 75.3707 21.8186 74.9909 21.173C74.6206 20.5178 73.9845 20.1855 73.073 20.1855C71.9194 20.1855 70.7278 20.7125 69.503 21.7616C68.2735 22.8155 67.0249 24.6053 65.7622 27.1356V33.2501C65.7622 34.8737 65.7716 36.3833 65.8001 37.7885C65.8239 39.1937 65.8998 40.6512 66.028 42.1561C66.1657 43.6515 66.3746 45.4317 66.6546 47.492H50.6277C50.9411 45.4317 51.1594 43.6515 51.2734 42.1561C51.3968 40.6512 51.468 39.1937 51.4823 37.7885C51.506 36.3833 51.5202 34.8737 51.5202 33.2501V14.2419C51.5202 12.5851 51.506 11.066 51.4823 9.6845C51.468 8.29354 51.3968 6.83612 51.2734 5.31698C51.1594 3.79784 50.9411 2.0271 50.6277 0H66.6546C66.3746 2.0271 66.1657 3.79784 66.028 5.31698C65.8998 6.83612 65.8239 8.29354 65.8001 9.6845C65.7716 11.066 65.7622 12.5851 65.7622 14.2419V24.3442C67.1911 22.0037 68.8954 20.1286 70.8702 18.7234C72.8546 17.3182 75.5274 16.6156 78.8837 16.6156C81.058 16.6156 82.9569 17.0048 84.5805 17.7739C86.2135 18.5477 87.4906 19.858 88.4163 21.7047C89.3373 23.5419 89.8025 26.0627 89.8025 29.2624V33.8388C89.8025 35.4624 89.812 36.9293 89.8405 38.2443C89.8642 39.5498 89.9402 40.9028 90.0683 42.308C90.206 43.7037 90.4149 45.4317 90.695 47.492H74.6681Z" fill="#0097B2"/>
<path d="M135.155 47.4907H120.913C120.429 45.9478 120.172 44.386 120.134 42.8004C119.261 44.6993 117.841 46.1567 115.881 47.1679C113.93 48.1791 111.309 48.687 108.019 48.687C106.804 48.687 105.532 48.5541 104.202 48.2883C102.873 48.0319 101.629 47.6047 100.481 46.997C99.3413 46.3798 98.4108 45.5348 97.6892 44.4714C96.9771 43.3985 96.6258 42.0503 96.6258 40.4267C96.6258 38.6797 97.0293 37.2081 97.8411 36.0022C98.6481 34.8012 99.7068 33.809 101.012 33.0209C102.327 32.2234 103.733 31.592 105.228 31.122C106.733 30.6425 108.195 30.258 109.614 29.9637C111.043 29.6598 112.259 29.4082 113.26 29.2041C115.069 28.8528 116.46 28.4066 117.438 27.8749C118.411 27.3432 119.081 26.6406 119.451 25.7671C119.831 24.8936 120.021 23.8254 120.021 22.5579C120.021 21.091 119.721 20.0323 119.128 19.3867C118.53 18.7316 117.618 18.3992 116.394 18.3992C115.05 18.3992 113.991 18.7316 113.222 19.3867C112.449 20.0323 111.798 20.8583 111.266 21.8553C110.735 22.8427 110.132 23.8112 109.462 24.7606C108.627 25.9522 107.63 26.764 106.481 27.1912C105.342 27.6233 104.183 27.7135 103.006 27.4571C101.838 27.2055 100.808 26.6168 99.9109 25.6911C99.0232 24.7559 98.4203 23.4978 98.107 21.9122C99.5739 21.0008 101.354 20.1415 103.443 19.3297C105.541 18.5227 107.872 17.8675 110.431 17.3738C112.985 16.8706 115.672 16.6143 118.482 16.6143C121.483 16.6143 124.165 16.9133 126.534 17.5068C128.912 18.1049 130.792 19.1541 132.174 20.659C133.565 22.1686 134.262 24.2622 134.262 26.9444V33.8375C134.262 35.4611 134.267 36.928 134.281 38.243C134.305 39.5485 134.386 40.9015 134.528 42.3067C134.666 43.7024 134.875 45.4304 135.155 47.4907ZM120.021 36.9897V28.1407C119.626 28.5347 119.133 28.9003 118.539 29.2421C117.941 29.5744 117.229 29.9589 116.394 30.4004C114.846 31.1885 113.74 32.2044 113.07 33.4577C112.396 34.7015 112.064 36.1921 112.064 37.9391C112.064 40.1182 112.368 41.661 112.976 42.5725C113.593 43.4745 114.4 43.9207 115.387 43.9207C116.854 43.9207 117.993 43.2181 118.805 41.8129C119.612 40.4077 120.021 38.8032 120.021 36.9897Z" fill="#0097B2"/>
<path d="M176.07 17.811C176.383 19.7479 176.251 21.3809 175.671 22.7102C175.102 24.0394 174.181 24.9509 172.918 25.4446C171.65 25.9384 170.089 25.9099 168.228 25.3497C166.96 24.9604 165.764 24.78 164.639 24.818C163.509 24.856 162.289 25.3449 160.974 26.2802C159.668 27.2059 158.087 28.8342 156.226 31.1604V33.8379C156.226 35.4614 156.236 36.9284 156.264 38.2434C156.288 39.5489 156.364 40.9019 156.492 42.3071C156.63 43.7028 156.839 45.4308 157.119 47.4911H141.092C141.405 45.4308 141.624 43.7028 141.738 42.3071C141.861 40.9019 141.932 39.5489 141.946 38.2434C141.97 36.9284 141.984 35.4614 141.984 33.8379V31.4642C141.984 29.8074 141.97 28.331 141.946 27.0397C141.932 25.7485 141.861 24.3955 141.738 22.976C141.624 21.5471 141.405 19.8238 141.092 17.811H157.119C156.763 20.2321 156.535 22.2117 156.435 23.7546C156.345 25.3022 156.274 26.9021 156.226 28.5589C157.375 26.9021 158.553 25.3117 159.758 23.7926C160.974 22.2639 162.341 20.9442 163.86 19.8428C165.379 18.732 167.126 17.9629 169.101 17.5451C171.085 17.1274 173.412 17.2176 176.07 17.811Z" fill="#0097B2"/>
<path d="M223.127 47.4907C223.44 45.4304 223.658 43.7024 223.772 42.3067C223.896 40.9015 223.967 39.5485 223.981 38.243C224.005 36.928 224.019 35.4611 224.019 33.8375V23.8681C224.019 23.0326 223.915 22.311 223.715 21.7034C223.525 21.0862 223.055 20.7729 222.31 20.7729C221.674 20.7729 220.905 21.1622 219.993 21.9312C219.082 22.705 217.909 24.2194 216.48 26.4697C216.518 26.9159 216.542 27.3622 216.556 27.8179C216.58 28.2736 216.594 28.7579 216.594 29.2611V33.8375C216.594 35.4611 216.604 36.928 216.632 38.243C216.656 39.5485 216.732 40.9015 216.86 42.3067C216.998 43.7024 217.207 45.4304 217.487 47.4907H201.46C201.773 45.4304 201.992 43.7024 202.106 42.3067C202.229 40.9015 202.3 39.5485 202.314 38.243C202.338 36.928 202.352 35.4611 202.352 33.8375V23.8681C202.352 23.0326 202.248 22.311 202.049 21.7034C201.859 21.0862 201.389 20.7729 200.643 20.7729C200.007 20.7729 199.224 21.2049 198.289 22.0642C197.363 22.9139 196.266 24.585 195.004 27.0773C194.951 27.7514 194.928 28.4398 194.928 29.1471C194.928 29.8592 194.928 30.6283 194.928 31.4638V33.8375C194.928 35.4611 194.937 36.928 194.966 38.243C194.989 39.5485 195.065 40.9015 195.193 42.3067C195.331 43.7024 195.54 45.4304 195.82 47.4907H179.793C180.107 45.4304 180.325 43.7024 180.439 42.3067C180.562 40.9015 180.633 39.5485 180.648 38.243C180.671 36.928 180.686 35.4611 180.686 33.8375V31.4638C180.686 29.807 180.671 28.3306 180.648 27.0393C180.633 25.7481 180.562 24.3951 180.439 22.9756C180.325 21.5467 180.107 19.8234 179.793 17.8106H195.82C195.668 19.0781 195.526 20.2032 195.402 21.1907C195.288 22.1781 195.193 23.1276 195.118 24.039C196.257 22.0642 197.719 20.3361 199.504 18.855C201.289 17.3643 203.539 16.6143 206.264 16.6143C208.605 16.6143 210.66 17.1839 212.436 18.3233C214.221 19.4531 215.426 21.4375 216.063 24.2859C217.012 22.9329 218.037 21.6749 219.139 20.507C220.25 19.344 221.531 18.4087 222.975 17.6966C224.427 16.9751 226.079 16.6143 227.931 16.6143C229.915 16.6143 231.681 17.0035 233.229 17.7726C234.772 18.5464 235.992 19.8567 236.894 21.7034C237.805 23.5406 238.261 26.0614 238.261 29.2611V33.8375C238.261 35.4611 238.27 36.928 238.299 38.243C238.323 39.5485 238.399 40.9015 238.527 42.3067C238.665 43.7024 238.873 45.4304 239.153 47.4907H223.127Z" fill="#0097B2"/>
<path d="M283.618 47.4907H269.377C268.892 45.9478 268.636 44.386 268.598 42.8004C267.724 44.6993 266.305 46.1567 264.344 47.1679C262.393 48.1791 259.773 48.687 256.483 48.687C255.268 48.687 253.995 48.5541 252.666 48.2883C251.337 48.0319 250.093 47.6047 248.944 46.997C247.805 46.3798 246.874 45.5348 246.153 44.4714C245.441 43.3985 245.089 42.0503 245.089 40.4267C245.089 38.6797 245.493 37.2081 246.305 36.0022C247.112 34.8012 248.17 33.809 249.476 33.0209C250.791 32.2234 252.196 31.592 253.691 31.122C255.196 30.6425 256.659 30.258 258.078 29.9637C259.507 29.6598 260.722 29.4082 261.724 29.2041C263.533 28.8528 264.924 28.4066 265.902 27.8749C266.875 27.3432 267.544 26.6406 267.914 25.7671C268.294 24.8936 268.484 23.8254 268.484 22.5579C268.484 21.091 268.185 20.0323 267.592 19.3867C266.993 18.7316 266.082 18.3992 264.857 18.3992C263.514 18.3992 262.455 18.7316 261.686 19.3867C260.912 20.0323 260.262 20.8583 259.73 21.8553C259.198 22.8427 258.595 23.8112 257.926 24.7606C257.091 25.9522 256.094 26.764 254.945 27.1912C253.805 27.6233 252.647 27.7135 251.47 27.4571C250.302 27.2055 249.272 26.6168 248.374 25.6911C247.487 24.7559 246.884 23.4978 246.571 21.9122C248.037 21.0008 249.818 20.1415 251.906 19.3297C254.005 18.5227 256.336 17.8675 258.895 17.3738C261.449 16.8706 264.136 16.6143 266.946 16.6143C269.946 16.6143 272.628 16.9133 274.997 17.5068C277.376 18.1049 279.256 19.1541 280.637 20.659C282.028 22.1686 282.726 24.2622 282.726 26.9444V33.8375C282.726 35.4611 282.731 36.928 282.745 38.243C282.769 39.5485 282.849 40.9015 282.992 42.3067C283.129 43.7024 283.338 45.4304 283.618 47.4907ZM268.484 36.9897V28.1407C268.09 28.5347 267.596 28.9003 267.003 29.2421C266.405 29.5744 265.693 29.9589 264.857 30.4004C263.31 31.1885 262.203 32.2044 261.534 33.4577C260.86 34.7015 260.528 36.1921 260.528 37.9391C260.528 40.1182 260.831 41.661 261.439 42.5725C262.056 43.4745 262.863 43.9207 263.851 43.9207C265.318 43.9207 266.457 43.2181 267.269 41.8129C268.076 40.4077 268.484 38.8032 268.484 36.9897Z" fill="#0097B2"/>
<path d="M7.29773 76.1426H1.7149V62.6982H7.39268C8.6697 62.6982 9.6429 63.0163 10.317 63.6477C10.9864 64.2838 11.3234 65.1099 11.3234 66.1353C11.3234 66.8569 11.0671 67.512 10.5639 68.0912C10.0702 68.6609 9.25837 69.0027 8.13326 69.1166C9.06848 69.221 9.8138 69.4299 10.374 69.7432C10.9294 70.0613 11.3282 70.4648 11.5703 70.9585C11.8077 71.4428 11.9311 71.965 11.9311 72.5347C11.9311 73.674 11.5181 74.5618 10.6968 75.1931C9.88501 75.8293 8.75041 76.1426 7.29773 76.1426ZM6.78503 64.2554H3.46191V68.471H6.87997C7.64903 68.471 8.28517 68.3285 8.77889 68.0342C9.27261 67.7304 9.51947 67.1749 9.51947 66.3632C9.51947 65.5561 9.26312 65.0054 8.7599 64.7111C8.25194 64.4073 7.59207 64.2554 6.78503 64.2554ZM7.06986 70.0281H3.46191V74.6045H7.0129C8.08579 74.6045 8.87384 74.4288 9.36756 74.0728C9.87077 73.7072 10.1271 73.1186 10.1271 72.3068C10.1271 71.4997 9.8328 70.9158 9.25362 70.5598C8.6697 70.2085 7.94337 70.0281 7.06986 70.0281Z" fill="#032B59"/>
<path d="M30.5081 76.3515C28.7705 76.3515 27.4888 75.8768 26.6532 74.9273C25.8272 73.9778 25.4189 72.5109 25.4189 70.5218V62.6982H27.166V70.5218C27.166 72.0172 27.4176 73.0853 27.9255 73.731C28.443 74.3671 29.3117 74.6804 30.527 74.6804C31.7518 74.6804 32.6206 74.3671 33.1286 73.731C33.646 73.0853 33.9071 72.0172 33.9071 70.5218V62.6982H35.6351V70.5218C35.6351 72.5109 35.2221 73.9778 34.4008 74.9273C33.5891 75.8768 32.293 76.3515 30.5081 76.3515Z" fill="#032B59"/>
<path d="M54.8624 76.3495C54.0127 76.3495 53.2104 76.2356 52.4508 76.0077C51.6912 75.7799 51.0171 75.4143 50.4379 74.9064C49.8683 74.3889 49.4363 73.7195 49.1467 72.8935L50.4569 71.7352C50.6706 72.4567 51.0124 73.0359 51.4823 73.4632C51.9618 73.8952 52.4983 74.2133 53.0964 74.4126C53.7041 74.6025 54.2927 74.6975 54.8624 74.6975C55.6077 74.6975 56.2534 74.5408 56.7993 74.2227C57.3405 73.9094 57.6159 73.3825 57.6159 72.6466C57.6159 72.1292 57.4877 71.7304 57.2361 71.4503C56.994 71.1607 56.6522 70.9329 56.2107 70.7667C55.7786 70.5911 55.2612 70.4391 54.6535 70.311L53.4003 70.0261C52.954 69.9122 52.5078 69.7793 52.052 69.6274C51.5963 69.4659 51.1833 69.2428 50.8177 68.9627C50.4474 68.6874 50.1531 68.3313 49.9252 67.8993C49.6974 67.4578 49.5834 66.9261 49.5834 66.3042C49.5834 65.483 49.7923 64.7946 50.2101 64.2344C50.6373 63.6647 51.188 63.2422 51.8621 62.9621C52.5457 62.6726 53.2768 62.5254 54.0649 62.5254C55.2802 62.5254 56.3341 62.7865 57.2361 63.3039C58.1476 63.8262 58.8122 64.5905 59.2299 65.6016L57.7678 66.76C57.4497 65.8485 56.9607 65.1981 56.3056 64.8041C55.6457 64.4006 54.8814 64.1964 54.0079 64.1964C53.2721 64.1964 52.6597 64.3768 52.166 64.7281C51.6722 65.0699 51.4254 65.5542 51.4254 66.1713C51.4254 66.8454 51.6532 67.3392 52.109 67.6525C52.5647 67.9705 53.1771 68.2174 53.9509 68.3931L55.4131 68.7539C55.8926 68.882 56.3673 69.0292 56.8373 69.1906C57.3025 69.3568 57.7345 69.5846 58.1286 69.8742C58.5178 70.1543 58.8312 70.5151 59.059 70.9566C59.2869 71.3886 59.4008 71.9393 59.4008 72.6087C59.4008 73.3825 59.2015 74.0471 58.8122 74.6025C58.4181 75.1627 57.8722 75.59 57.1791 75.8938C56.4955 76.1976 55.7217 76.3495 54.8624 76.3495Z" fill="#032B59"/>
<path d="M74.7807 76.1426H73.0337V62.6982H74.7807V76.1426Z" fill="#032B59"/>
<path d="M90.7302 76.1426H88.9832V62.6982H90.5403L96.5219 71.2434L97.9081 73.3322L97.8132 71.2814V62.6982H99.5602V76.1426H97.9841L91.8316 67.4076L90.6353 65.6226L90.7302 67.4076V76.1426Z" fill="#032B59"/>
<path d="M122.935 76.1426H113.745V62.6982H122.935V64.2554H115.492V68.49H121.625V70.0281H115.492V74.6045H122.935V76.1426Z" fill="#032B59"/>
<path d="M141.649 76.3495C140.8 76.3495 139.997 76.2356 139.238 76.0077C138.478 75.7799 137.804 75.4143 137.225 74.9064C136.655 74.3889 136.223 73.7195 135.934 72.8935L137.244 71.7352C137.458 72.4567 137.799 73.0359 138.269 73.4632C138.749 73.8952 139.285 74.2133 139.883 74.4126C140.491 74.6025 141.08 74.6975 141.649 74.6975C142.395 74.6975 143.04 74.5408 143.586 74.2227C144.127 73.9094 144.403 73.3825 144.403 72.6466C144.403 72.1292 144.275 71.7304 144.023 71.4503C143.781 71.1607 143.439 70.9329 142.998 70.7667C142.566 70.5911 142.048 70.4391 141.441 70.311L140.187 70.0261C139.741 69.9122 139.295 69.7793 138.839 69.6274C138.383 69.4659 137.97 69.2428 137.605 68.9627C137.234 68.6874 136.94 68.3313 136.712 67.8993C136.484 67.4578 136.37 66.9261 136.37 66.3042C136.37 65.483 136.579 64.7946 136.997 64.2344C137.424 63.6647 137.975 63.2422 138.649 62.9621C139.333 62.6726 140.064 62.5254 140.852 62.5254C142.067 62.5254 143.121 62.7865 144.023 63.3039C144.935 63.8262 145.599 64.5905 146.017 65.6016L144.555 66.76C144.237 65.8485 143.748 65.1981 143.093 64.8041C142.433 64.4006 141.668 64.1964 140.795 64.1964C140.059 64.1964 139.447 64.3768 138.953 64.7281C138.459 65.0699 138.212 65.5542 138.212 66.1713C138.212 66.8454 138.44 67.3392 138.896 67.6525C139.352 67.9705 139.964 68.2174 140.738 68.3931L142.2 68.7539C142.68 68.882 143.154 69.0292 143.624 69.1906C144.09 69.3568 144.522 69.5846 144.916 69.8742C145.305 70.1543 145.618 70.5151 145.846 70.9566C146.074 71.3886 146.188 71.9393 146.188 72.6087C146.188 73.3825 145.988 74.0471 145.599 74.6025C145.205 75.1627 144.659 75.59 143.966 75.8938C143.282 76.1976 142.509 76.3495 141.649 76.3495Z" fill="#032B59"/>
<path d="M165.025 76.3495C164.175 76.3495 163.373 76.2356 162.613 76.0077C161.853 75.7799 161.179 75.4143 160.6 74.9064C160.03 74.3889 159.598 73.7195 159.309 72.8935L160.619 71.7352C160.833 72.4567 161.175 73.0359 161.645 73.4632C162.124 73.8952 162.66 74.2133 163.259 74.4126C163.866 74.6025 164.455 74.6975 165.025 74.6975C165.77 74.6975 166.416 74.5408 166.961 74.2227C167.503 73.9094 167.778 73.3825 167.778 72.6466C167.778 72.1292 167.65 71.7304 167.398 71.4503C167.156 71.1607 166.814 70.9329 166.373 70.7667C165.941 70.5911 165.423 70.4391 164.816 70.311L163.562 70.0261C163.116 69.9122 162.67 69.7793 162.214 69.6274C161.758 69.4659 161.345 69.2428 160.98 68.9627C160.61 68.6874 160.315 68.3313 160.087 67.8993C159.86 67.4578 159.746 66.9261 159.746 66.3042C159.746 65.483 159.954 64.7946 160.372 64.2344C160.799 63.6647 161.35 63.2422 162.024 62.9621C162.708 62.6726 163.439 62.5254 164.227 62.5254C165.442 62.5254 166.496 62.7865 167.398 63.3039C168.31 63.8262 168.974 64.5905 169.392 65.6016L167.93 66.76C167.612 65.8485 167.123 65.1981 166.468 64.8041C165.808 64.4006 165.044 64.1964 164.17 64.1964C163.434 64.1964 162.822 64.3768 162.328 64.7281C161.834 65.0699 161.588 65.5542 161.588 66.1713C161.588 66.8454 161.815 67.3392 162.271 67.6525C162.727 67.9705 163.339 68.2174 164.113 68.3931L165.575 68.7539C166.055 68.882 166.529 69.0292 166.999 69.1906C167.465 69.3568 167.897 69.5846 168.291 69.8742C168.68 70.1543 168.993 70.5151 169.221 70.9566C169.449 71.3886 169.563 71.9393 169.563 72.6087C169.563 73.3825 169.364 74.0471 168.974 74.6025C168.58 75.1627 168.034 75.59 167.341 75.8938C166.658 76.1976 165.884 76.3495 165.025 76.3495Z" fill="#032B59"/>
<path d="M203.99 76.3495C203.14 76.3495 202.338 76.2356 201.579 76.0077C200.819 75.7799 200.145 75.4143 199.566 74.9064C198.996 74.3889 198.564 73.7195 198.274 72.8935L199.585 71.7352C199.798 72.4567 200.14 73.0359 200.61 73.4632C201.09 73.8952 201.626 74.2133 202.224 74.4126C202.832 74.6025 203.42 74.6975 203.99 74.6975C204.735 74.6975 205.381 74.5408 205.927 74.2227C206.468 73.9094 206.744 73.3825 206.744 72.6466C206.744 72.1292 206.615 71.7304 206.364 71.4503C206.122 71.1607 205.78 70.9329 205.338 70.7667C204.906 70.5911 204.389 70.4391 203.781 70.311L202.528 70.0261C202.082 69.9122 201.636 69.7793 201.18 69.6274C200.724 69.4659 200.311 69.2428 199.945 68.9627C199.575 68.6874 199.281 68.3313 199.053 67.8993C198.825 67.4578 198.711 66.9261 198.711 66.3042C198.711 65.483 198.92 64.7946 199.338 64.2344C199.765 63.6647 200.316 63.2422 200.99 62.9621C201.673 62.6726 202.405 62.5254 203.193 62.5254C204.408 62.5254 205.462 62.7865 206.364 63.3039C207.275 63.8262 207.94 64.5905 208.358 65.6016L206.896 66.76C206.577 65.8485 206.088 65.1981 205.433 64.8041C204.773 64.4006 204.009 64.1964 203.136 64.1964C202.4 64.1964 201.787 64.3768 201.294 64.7281C200.8 65.0699 200.553 65.5542 200.553 66.1713C200.553 66.8454 200.781 67.3392 201.237 67.6525C201.692 67.9705 202.305 68.2174 203.079 68.3931L204.541 68.7539C205.02 68.882 205.495 69.0292 205.965 69.1906C206.43 69.3568 206.862 69.5846 207.256 69.8742C207.646 70.1543 207.959 70.5151 208.187 70.9566C208.415 71.3886 208.529 71.9393 208.529 72.6087C208.529 73.3825 208.329 74.0471 207.94 74.6025C207.546 75.1627 207 75.59 206.307 75.8938C205.623 76.1976 204.849 76.3495 203.99 76.3495Z" fill="#032B59"/>
<path d="M223.919 76.1426H222.172V62.6982H223.919V76.1426Z" fill="#032B59"/>
<path d="M239.858 76.1426H238.111V62.6982H240.067L243.523 69.3635L244.89 72.3068L246.238 69.3635L249.732 62.6982H251.669V76.1426H249.922V68.7178L250.112 65.0909L248.631 68.414L245.745 73.9019H244.036L241.149 68.414L239.649 65.0909L239.858 68.7178V76.1426Z" fill="#032B59"/>
<path d="M267.632 76.1426H265.885V62.6982H271.259C272.142 62.6982 272.94 62.8644 273.652 63.192C274.374 63.5243 274.943 64.0275 275.361 64.7111C275.779 65.3852 275.988 66.2302 275.988 67.2557C275.988 68.2051 275.779 69.0122 275.361 69.6673C274.943 70.3129 274.374 70.7971 273.652 71.1105C272.94 71.4285 272.142 71.5852 271.259 71.5852H267.632V76.1426ZM270.974 64.2554H267.632V70.0471H270.974C271.53 70.0471 272.047 69.9711 272.532 69.8192C273.025 69.6578 273.424 69.373 273.728 68.9647C274.032 68.5469 274.184 67.9772 274.184 67.2557C274.184 66.4581 274.032 65.8457 273.728 65.4137C273.424 64.9722 273.025 64.6684 272.532 64.5022C272.047 64.3408 271.53 64.2554 270.974 64.2554Z" fill="#032B59"/>
<path d="M297.981 76.1426H289.189V62.6982H290.936V74.6045H297.981V76.1426Z" fill="#032B59"/>
<path d="M312.909 76.1426H311.162V62.6982H312.909V76.1426Z" fill="#032B59"/>
<path d="M328.851 76.1426H327.104V62.6982H336.105V64.2554H328.851V69.0596H334.814V70.6167H328.851V76.1426Z" fill="#032B59"/>
<path d="M351.145 76.1426H349.398V62.6982H351.145V76.1426Z" fill="#032B59"/>
<path d="M374.539 76.1426H365.348V62.6982H374.539V64.2554H367.095V68.49H373.228V70.0281H367.095V74.6045H374.539V76.1426Z" fill="#032B59"/>
<path d="M392.815 76.1426H388.049V62.6982H392.815C394.913 62.6982 396.489 63.2869 397.543 64.4642C398.607 65.6416 399.138 67.2936 399.138 69.4204C399.138 71.5472 398.607 73.1993 397.543 74.3766C396.489 75.5539 394.913 76.1426 392.815 76.1426ZM392.53 64.2554H389.796V74.6045H392.53C393.541 74.6045 394.401 74.4431 395.113 74.1108C395.834 73.7832 396.385 73.2468 396.765 72.4967C397.145 71.7371 397.334 70.7117 397.334 69.4204C397.334 68.1434 397.145 67.1322 396.765 66.3821C396.385 65.6226 395.834 65.0814 395.113 64.7491C394.401 64.4215 393.541 64.2554 392.53 64.2554Z" fill="#032B59"/>
</svg>
