<svg width="32" height="32" viewBox="0 0 32 32" fill="none" xmlns="http://www.w3.org/2000/svg">
<path d="M20.5625 2.30469C22.7563 2.8824 24.7575 4.03204 26.3616 5.63619C27.9658 7.24033 29.1154 9.24151 29.6931 11.4353" stroke="#7FD2B6" stroke-width="2" stroke-linecap="round" stroke-linejoin="round"/>
<path d="M19.2656 7.52148C21.9592 8.24215 23.7625 10.0455 24.4831 12.739" stroke="#7FD2B6" stroke-width="2" stroke-linecap="round" stroke-linejoin="round"/>
<path d="M21.2814 19.4791C21.4621 19.3589 21.6699 19.2856 21.8859 19.266C22.102 19.2464 22.3196 19.2809 22.519 19.3666L30.2083 22.8118C30.4674 22.9225 30.6837 23.1142 30.8248 23.3582C30.9659 23.6021 31.0241 23.8852 30.9909 24.1651C30.7376 26.0581 29.8053 27.7947 28.3676 29.052C26.9298 30.3092 25.0843 31.0015 23.1744 31C17.2934 31 11.6532 28.6638 7.49474 24.5053C3.33623 20.3468 1 14.7066 1 8.82559C0.998542 6.91566 1.6908 5.0702 2.94803 3.63243C4.20526 2.19465 5.94188 1.26242 7.83494 1.00911C8.11478 0.975865 8.39786 1.03414 8.64182 1.17523C8.88577 1.31631 9.07747 1.5326 9.18823 1.79174L12.6334 9.48756C12.7181 9.68522 12.7525 9.90074 12.7338 10.1149C12.715 10.3291 12.6435 10.5354 12.5258 10.7153L9.04149 14.8583C8.91789 15.0448 8.8448 15.2602 8.82937 15.4834C8.81394 15.7066 8.85669 15.93 8.95344 16.1317C10.3018 18.8921 13.1552 21.7112 15.9237 23.0466C16.1265 23.1429 16.3509 23.1847 16.5748 23.1678C16.7987 23.1509 17.0143 23.076 17.2004 22.9504L21.2814 19.4791Z" stroke="#0097B2" stroke-width="2" stroke-linecap="round" stroke-linejoin="round"/>
</svg>
