<svg width="196" height="58" viewBox="0 0 196 58" fill="none" xmlns="http://www.w3.org/2000/svg">
<path d="M188.497 58H7.25C3.26247 58 0 54.7375 0 50.75V7.25C0 3.26247 3.26247 0 7.25 0H188.497C192.485 0 195.747 3.26247 195.747 7.25V50.75C195.747 54.7375 192.485 58 188.497 58Z" fill="#100F0D"/>
<path d="M188.497 0H7.25C3.26247 0 0 3.26247 0 7.25V50.75C0 54.7375 3.26247 58 7.25 58H188.497C192.485 58 195.747 54.7375 195.747 50.75V7.25C195.747 3.26247 192.485 0 188.497 0ZM188.497 1.15941C191.855 1.15941 194.587 3.89182 194.587 7.25V50.75C194.587 54.1082 191.856 56.8406 188.497 56.8406H7.25C3.89182 56.8406 1.16061 54.1082 1.16061 50.75V7.25C1.16061 3.89182 3.89182 1.15941 7.25 1.15941H188.497Z" fill="#A2A2A1"/>
<path d="M155.054 43.4997H157.76V25.3717H155.054V43.4997ZM179.425 31.9023L176.323 39.7612H176.23L173.011 31.9023H170.097L174.925 42.8863L172.172 48.9966H174.994L182.434 31.9028L179.425 31.9023ZM164.08 41.4406C163.195 41.4406 161.958 40.997 161.958 39.9011C161.958 38.502 163.498 37.9656 164.826 37.9656C166.015 37.9656 166.577 38.2217 167.299 38.5717C167.088 40.2511 165.643 41.4406 164.08 41.4406ZM164.407 31.5058C162.448 31.5058 160.42 32.369 159.58 34.2813L161.981 35.2838C162.495 34.2813 163.45 33.9551 164.454 33.9551C165.853 33.9551 167.275 34.7939 167.299 36.2869V36.4733C166.809 36.1934 165.759 35.7738 164.477 35.7738C161.887 35.7738 159.253 37.1959 159.253 39.8546C159.253 42.28 161.375 43.8427 163.753 43.8427C165.572 43.8427 166.576 43.0265 167.204 42.0699H167.299V43.47H169.911V36.5196C169.911 33.3013 167.507 31.5058 164.407 31.5058ZM147.685 34.109H143.837V27.8956H147.685C149.708 27.8956 150.857 29.57 150.857 31.0023C150.857 32.407 149.708 34.109 147.685 34.109ZM147.616 25.3721H141.133V43.5001H143.837V36.6325H147.616C150.615 36.6325 153.562 34.462 153.562 31.0029C153.562 27.5445 150.615 25.3721 147.616 25.3721ZM112.264 41.4436C110.394 41.4436 108.83 39.878 108.83 37.7297C108.83 35.5564 110.394 33.9687 112.264 33.9687C114.109 33.9687 115.557 35.5565 115.557 37.7297C115.557 39.878 114.109 41.4436 112.264 41.4436ZM115.37 32.9171H115.277C114.67 32.1931 113.501 31.539 112.03 31.539C108.946 31.539 106.12 34.2492 106.12 37.7297C106.12 41.1865 108.946 43.8729 112.03 43.8729C113.501 43.8729 114.67 43.2187 115.277 42.4717H115.37V43.3586C115.37 45.7189 114.109 46.9796 112.077 46.9796C110.419 46.9796 109.391 45.7885 108.97 44.7841L106.611 45.7652C107.288 47.3997 109.086 49.4095 112.077 49.4095C115.254 49.4095 117.941 47.5402 117.941 42.9847V31.9126H115.37L115.37 32.9171ZM119.81 43.4991H122.518V25.3712H119.81V43.4991ZM126.513 37.5191C126.444 35.1362 128.36 33.9217 129.737 33.9217C130.812 33.9217 131.723 34.4592 132.027 35.2296L126.513 37.5191ZM134.923 35.463C134.409 34.0855 132.844 31.539 129.644 31.539C126.466 31.539 123.827 34.0384 123.827 37.706C123.827 41.1634 126.444 43.873 129.947 43.873C132.773 43.873 134.409 42.145 135.087 41.1401L132.985 39.7383C132.283 40.7663 131.326 41.4437 129.947 41.4437C128.569 41.4437 127.588 40.8128 126.958 39.5747L135.203 36.1643L134.923 35.463ZM69.2264 33.4313V36.0475H75.4867C75.2998 37.5192 74.8093 38.5935 74.0616 39.3412C73.1503 40.252 71.7253 41.2568 69.2263 41.2568C65.3718 41.2568 62.3585 38.15 62.3585 34.2956C62.3585 30.4412 65.3718 27.334 69.2263 27.334C71.3054 27.334 72.8235 28.1518 73.9448 29.2031L75.7908 27.3572C74.2252 25.8624 72.1465 24.7178 69.2263 24.7178C63.9461 24.7178 59.5078 29.0161 59.5078 34.2956C59.5078 39.5746 63.9461 43.873 69.2263 43.873C72.0758 43.873 74.2253 42.9385 75.907 41.1866C77.6357 39.4579 78.1731 37.0286 78.1731 35.066C78.1731 34.4594 78.126 33.8987 78.0326 33.4313H69.2264ZM85.2913 41.4436C83.4221 41.4436 81.8102 39.9018 81.8102 37.706C81.8102 35.4868 83.4221 33.9688 85.2913 33.9688C87.1598 33.9688 88.7718 35.4868 88.7718 37.706C88.7718 39.9018 87.1598 41.4436 85.2913 41.4436ZM85.2913 31.539C81.8798 31.539 79.1004 34.1318 79.1004 37.706C79.1004 41.2568 81.8798 43.873 85.2913 43.873C88.7016 43.873 91.4815 41.2568 91.4815 37.706C91.4815 34.1318 88.7016 31.539 85.2913 31.539ZM98.7952 41.4436C96.9272 41.4436 95.3148 39.9018 95.3148 37.706C95.3148 35.4868 96.9273 33.9688 98.7952 33.9688C100.664 33.9688 102.276 35.4868 102.276 37.706C102.276 39.9018 100.664 41.4436 98.7952 41.4436ZM98.7952 31.539C95.3849 31.539 92.6055 34.1318 92.6055 37.706C92.6055 41.2568 95.3849 43.873 98.7952 43.873C102.207 43.873 104.986 41.2568 104.986 37.706C104.986 34.1318 102.207 31.539 98.7952 31.539Z" fill="white"/>
<path d="M30.0379 28.1652L14.6016 44.5499C14.6021 44.5533 14.6033 44.5561 14.6038 44.5596C15.0773 46.3388 16.7023 47.6488 18.631 47.6488C19.4019 47.6488 20.1258 47.4404 20.7465 47.0745L20.7958 47.0456L38.1723 37.0186L30.0379 28.1652Z" fill="#EB3131"/>
<path d="M45.6523 25.3752L45.6375 25.3651L38.1355 21.0161L29.6836 28.537L38.1649 37.0172L45.6273 32.7115C46.9356 32.0052 47.8238 30.6259 47.8238 29.0354C47.8238 27.4563 46.9476 26.0839 45.6523 25.3752Z" fill="#F6B60B"/>
<path d="M14.5947 13.4517C14.5019 13.7939 14.4531 14.1523 14.4531 14.5245V43.4778C14.4531 43.8493 14.5013 44.2089 14.5953 44.5499L30.5645 28.5839L14.5947 13.4517Z" fill="#5778C5"/>
<path d="M30.1532 29.0008L38.1436 21.0128L20.7867 10.9495C20.1558 10.5716 19.4195 10.3535 18.6315 10.3535C16.7029 10.3535 15.0757 11.6659 14.6021 13.4472C14.6016 13.4489 14.6016 13.4501 14.6016 13.4517L30.1532 29.0008Z" fill="#3BAD49"/>
<path d="M68.7205 14.1824H64.4906V15.2292H67.6603C67.5742 16.0834 67.2343 16.754 66.6611 17.2411C66.0879 17.7283 65.3561 17.9729 64.4906 17.9729C63.5413 17.9729 62.737 17.6422 62.0778 16.9852C61.432 16.3146 61.1036 15.4853 61.1036 14.4862C61.1036 13.4871 61.432 12.6578 62.0778 11.9872C62.737 11.3302 63.5413 11.0017 64.4906 11.0017C64.9778 11.0017 65.4422 11.0855 65.8681 11.2691C66.2941 11.4525 66.6361 11.7085 66.9035 12.0371L67.7078 11.2328C67.343 10.8181 66.8809 10.501 66.3075 10.2699C65.7344 10.0387 65.1363 9.92781 64.4905 9.92781C63.2241 9.92781 62.1502 10.3673 61.2734 11.2442C60.3966 12.1231 59.957 13.2062 59.957 14.4862C59.957 15.7662 60.3965 16.8516 61.2734 17.7284C62.1502 18.6051 63.2241 19.0448 64.4905 19.0448C65.8204 19.0448 66.8808 18.6188 67.6964 17.7532C68.4146 17.0329 68.7816 16.0586 68.7816 14.8397C68.7816 14.6335 68.7568 14.4136 68.7205 14.1824ZM70.3592 10.1225V18.8498H75.4545V17.7781H71.4807V15.0096H75.0649V13.9628H71.4807V11.1965H75.4545V10.1224L70.3592 10.1225ZM82.5993 11.1965V10.1225H76.6022V11.1965H79.0401V18.8497H80.1615V11.1965H82.5993ZM88.0288 10.1225H86.9074V18.8498H88.0288V10.1225ZM95.4312 11.1965V10.1225H89.4341V11.1965H91.8718V18.8497H92.9933V11.1965H95.4312ZM106.748 11.2577C105.882 10.3672 104.822 9.92773 103.556 9.92773C102.287 9.92773 101.227 10.3672 100.361 11.2441C99.4956 12.1096 99.0698 13.1948 99.0698 14.4861C99.0698 15.7774 99.4957 16.8628 100.361 17.7283C101.227 18.605 102.287 19.0447 103.556 19.0447C104.811 19.0447 105.882 18.605 106.748 17.7283C107.613 16.8628 108.039 15.7775 108.039 14.4861C108.039 13.2061 107.613 12.123 106.748 11.2577ZM101.165 11.9872C101.811 11.3302 102.604 11.0016 103.556 11.0016C104.505 11.0016 105.298 11.3302 105.932 11.9872C106.578 12.6329 106.895 13.4756 106.895 14.4861C106.895 15.4989 106.578 16.3393 105.932 16.9851C105.298 17.6421 104.505 17.9728 103.556 17.9728C102.604 17.9728 101.811 17.6421 101.165 16.9851C100.533 16.3258 100.216 15.4989 100.216 14.4861C100.216 13.4756 100.533 12.6464 101.165 11.9872ZM110.704 13.4145L110.656 11.7311H110.704L115.14 18.8497H116.311V10.1224H115.19V15.2291L115.237 16.9126H115.19L110.948 10.1224H109.582V18.8497H110.704V13.4145Z" fill="white" stroke="white" stroke-width="0.29" stroke-miterlimit="10"/>
</svg>
